<svg xmlns="http://www.w3.org/2000/svg" viewBox="0 0 1024 1024" role="img" aria-labelledby="title desc">
  <title id="title">Stylized Beauty Portrait</title>
  <desc id="desc">An original stylized portrait of a woman with soft lighting and floral background.</desc>
  <defs>
    <linearGradient id="bg" x1="0%" y1="0%" x2="100%" y2="100%">
      <stop offset="0%" stop-color="#f7d9c4"/>
      <stop offset="45%" stop-color="#f1b9aa"/>
      <stop offset="100%" stop-color="#d9837c"/>
    </linearGradient>
    <linearGradient id="hair" x1="0%" y1="0%" x2="100%" y2="100%">
      <stop offset="0%" stop-color="#2b1a1a"/>
      <stop offset="100%" stop-color="#5c3029"/>
    </linearGradient>
    <linearGradient id="skin" x1="0%" y1="0%" x2="0%" y2="100%">
      <stop offset="0%" stop-color="#f8d7c4"/>
      <stop offset="100%" stop-color="#efbea7"/>
    </linearGradient>
    <linearGradient id="dress" x1="0%" y1="0%" x2="100%" y2="100%">
      <stop offset="0%" stop-color="#9c2f49"/>
      <stop offset="100%" stop-color="#5c1831"/>
    </linearGradient>
    <radialGradient id="glow" cx="50%" cy="40%" r="60%">
      <stop offset="0%" stop-color="#fff7ef" stop-opacity="0.95"/>
      <stop offset="100%" stop-color="#fff7ef" stop-opacity="0"/>
    </radialGradient>
    <filter id="blur" x="-20%" y="-20%" width="140%" height="140%">
      <feGaussianBlur stdDeviation="18"/>
    </filter>
  </defs>

  <rect width="1024" height="1024" fill="url(#bg)"/>
  <circle cx="512" cy="400" r="360" fill="url(#glow)"/>

  <g opacity="0.35" filter="url(#blur)">
    <circle cx="180" cy="170" r="70" fill="#fff2e4"/>
    <circle cx="840" cy="220" r="90" fill="#ffd7cc"/>
    <circle cx="870" cy="760" r="120" fill="#ffd1d1"/>
    <circle cx="180" cy="820" r="110" fill="#f4b6b6"/>
  </g>

  <g opacity="0.55">
    <path d="M140 710c32-85 84-145 157-180 22 58 29 113 12 175-60 24-114 27-169 5z" fill="#b94f68"/>
    <path d="M869 693c-29-73-80-126-150-162-18 56-22 109-3 167 57 20 108 20 153-5z" fill="#c85f74"/>
    <circle cx="219" cy="624" r="38" fill="#f9c7cf"/>
    <circle cx="257" cy="585" r="24" fill="#ffd9df"/>
    <circle cx="203" cy="571" r="19" fill="#ffe7eb"/>
    <circle cx="790" cy="618" r="42" fill="#f8c4cf"/>
    <circle cx="830" cy="578" r="26" fill="#ffdbe1"/>
    <circle cx="778" cy="560" r="20" fill="#ffe8ec"/>
  </g>

  <g>
    <path d="M333 357c20-140 111-220 220-220 119 0 177 99 165 214 53 33 96 111 71 190-19 60-65 81-112 86-50 4-95-5-127-6-40-1-84 12-137 2-58-12-104-47-120-112-18-76 10-127 40-154z" fill="url(#hair)"/>
    <path d="M404 604c14 63 22 121 8 194h198c-20-72-8-137 6-196-34 18-70 29-105 30-38 2-74-8-107-28z" fill="url(#dress)"/>
    <path d="M514 221c-101 0-171 73-171 185 0 115 68 219 171 219 105 0 171-104 171-219 0-112-70-185-171-185z" fill="url(#skin)"/>

    <path d="M363 424c-7-50 1-95 22-135 24-47 64-81 118-98-111-10-206 64-220 166-6 43 6 77 30 101 13-12 29-23 50-34z" fill="#2f1d1b"/>
    <path d="M666 442c17-19 28-45 28-76 0-107-83-184-188-178 56 17 100 53 126 101 20 36 30 77 34 123z" fill="#3d2521"/>

    <ellipse cx="440" cy="437" rx="27" ry="14" fill="#ffffff" opacity="0.95"/>
    <ellipse cx="586" cy="437" rx="27" ry="14" fill="#ffffff" opacity="0.95"/>
    <circle cx="448" cy="438" r="10" fill="#3d241f"/>
    <circle cx="578" cy="438" r="10" fill="#3d241f"/>
    <circle cx="451" cy="434" r="3.5" fill="#ffffff"/>
    <circle cx="581" cy="434" r="3.5" fill="#ffffff"/>

    <path d="M405 404c18-16 39-24 64-21" fill="none" stroke="#5c3029" stroke-width="9" stroke-linecap="round"/>
    <path d="M555 383c25-3 46 5 64 21" fill="none" stroke="#5c3029" stroke-width="9" stroke-linecap="round"/>

    <path d="M511 448c-11 26-17 54-17 80 13 4 27 4 39-1" fill="none" stroke="#d59f89" stroke-width="6" stroke-linecap="round"/>
    <path d="M452 548c38 25 82 27 123 0" fill="none" stroke="#9c4050" stroke-width="8" stroke-linecap="round"/>
    <path d="M470 560c26 12 56 12 83 0" fill="none" stroke="#c55a6f" stroke-width="6" stroke-linecap="round" opacity="0.85"/>

    <ellipse cx="388" cy="505" rx="31" ry="18" fill="#ef9ca0" opacity="0.28"/>
    <ellipse cx="636" cy="505" rx="31" ry="18" fill="#ef9ca0" opacity="0.28"/>

    <path d="M413 633c34 15 66 22 101 21 34 0 69-8 106-25 8 32 11 64 13 97H391c4-31 11-62 22-93z" fill="#7c203d"/>
    <path d="M446 627c20 10 42 15 66 15 25 0 49-6 72-17l15 101H423l23-99z" fill="#b33e5d"/>

    <path d="M403 617c-28 18-55 54-78 95-20 34-31 71-36 112h72c5-71 24-133 42-196z" fill="#f1c4b0"/>
    <path d="M622 617c25 18 50 52 73 91 22 38 35 75 40 116h-72c-8-78-21-137-41-207z" fill="#f1c4b0"/>

    <path d="M377 334c23-92 109-143 189-143 83 0 147 49 157 133-28-22-60-36-100-38-88-5-183 14-246 48z" fill="#241615"/>
    <path d="M372 348c-16 44-14 90 1 133-36-20-55-52-57-99 0-38 17-72 56-104z" fill="#2a1817"/>
    <path d="M660 323c42 26 60 66 60 113-1 38-16 69-45 92 6-48 0-90-15-126z" fill="#2a1817"/>

    <path d="M463 735c12 22 29 39 51 51 23-11 40-29 53-51" fill="none" stroke="#f0d7c8" stroke-width="6" stroke-linecap="round" opacity="0.7"/>
  </g>
</svg>
