# Created by Kenney (www.kenney.nl)

mtllib block-grass-overhang-large-slope-steep-narrow.mtl

g block-grass-overhang-large-slope-steep-narrow

v 0.5000001 0.3739126 0.691451 1 1 1
v 0.4198205 0.2771273 0.8590878 1 1 1
v 0.5000001 1.100163 -0.566451 1 1 1
v 0.4198205 1.196948 -0.7340878 1 1 1
v 0.22625 0.2370375 0.9285254 1 1 1
v 0.22625 1.237038 -0.8035254 1 1 1
v -0.22625 0.2370375 0.9285254 1 1 1
v -0.22625 1.237038 -0.8035254 1 1 1
v -0.4198205 0.2771273 0.8590878 1 1 1
v -0.4198205 1.196948 -0.7340878 1 1 1
v -0.5000001 0.3739126 0.691451 1 1 1
v -0.5000001 1.100163 -0.566451 1 1 1
v 0.5410625 1.005597 -0.6526583 1 1 1
v 0.5000001 0.8836563 -0.691451 1 1 1
v 0.5410625 0.2519719 0.6526583 1 1 1
v 0.5000001 0.1574062 0.566451 1 1 1
v 0.22625 1.020531 -0.9285254 1 1 1
v 0.253625 1.149316 -0.9015864 1 1 1
v -0.22625 1.020531 -0.9285254 1 1 1
v -0.253625 1.149316 -0.9015864 1 1 1
v -0.456874 1.107221 -0.8286771 1 1 1
v -0.5410625 1.005597 -0.6526583 1 1 1
v -0.4198205 0.9804415 -0.8590878 1 1 1
v -0.5000001 0.8836563 -0.691451 1 1 1
v 0.4198205 0.06062099 0.7340878 1 1 1
v 0.22625 0.02053118 0.8035254 1 1 1
v 0.456874 0.1503474 0.8286771 1 1 1
v 0.253625 0.1082532 0.9015864 1 1 1
v 0.4198205 0.9804415 -0.8590878 1 1 1
v 0.456874 1.107221 -0.8286771 1 1 1
v -0.5410625 0.2519719 0.6526583 1 1 1
v -0.5000001 0.1574062 0.566451 1 1 1
v -0.4198205 0.06062099 0.7340878 1 1 1
v -0.456874 0.1503474 0.8286771 1 1 1
v -0.22625 0.02053118 0.8035254 1 1 1
v -0.253625 0.1082532 0.9015864 1 1 1
v -0.2536249 0.1082532 0.9015865 1 1 1
v -0.3086025 -0.04910988 0.7844377 1 1 1
v -0.4568739 0.1503474 0.8286771 1 1 1
v -0.4568739 -0.08755821 0.6913223 1 1 1
v -0.5410625 0.3908787 -0.1373548 1 1 1
v -0.5410625 0.5552857 -0.2579201 1 1 1
v -0.5410625 0.3686696 0.06530848 1 1 1
v -0.5410625 0.7543885 -0.2175527 1 1 1
v -0.5410625 0.5031802 0.2175529 1 1 1
v -0.5410624 0.2519718 0.6526583 1 1 1
v -0.5410624 0.1174613 0.500414 1 1 1
v -0.5410625 0.3040774 0.1771854 1 1 1
v -0.5410624 0.1396704 0.2977508 1 1 1
v -0.5410626 1.005597 -0.6526582 1 1 1
v -0.5410626 0.806494 -0.6930256 1 1 1
v -0.5410625 0.6198779 -0.3697971 1 1 1
v -0.5410626 0.642087 -0.5724603 1 1 1
v -0.51829 0.05573392 0.6028429 1 1 1
v -0.2536252 1.149316 -0.9015863 1 1 1
v -0.4568741 1.107221 -0.828677 1 1 1
v -0.3086027 0.9691802 -0.9792923 1 1 1
v -0.4568741 0.8693157 -0.9660318 1 1 1
v -0.5182903 0.8643364 -0.7976975 1 1 1
v 0.4568741 -0.08755818 0.6913221 1 1 1
v 0.4568741 0.1503474 0.828677 1 1 1
v 0.5182902 0.05573395 0.6028428 1 1 1
v 0.5410626 0.2519719 0.6526582 1 1 1
v 0.5410624 0.6420871 -0.5724604 1 1 1
v 0.5410625 0.6198779 -0.3697972 1 1 1
v 0.5410624 0.806494 -0.6930258 1 1 1
v 0.5410625 0.7543886 -0.2175528 1 1 1
v 0.5410624 1.005597 -0.6526583 1 1 1
v 0.5410625 0.5552857 -0.2579202 1 1 1
v 0.5410625 0.5031802 0.2175527 1 1 1
v 0.5410625 0.3686696 0.06530836 1 1 1
v 0.5410625 0.3908788 -0.1373549 1 1 1
v 0.5410626 0.1174613 0.5004138 1 1 1
v 0.5410625 0.3040774 0.1771853 1 1 1
v 0.5410625 0.1396705 0.2977507 1 1 1
v 0.2536252 0.1082532 0.9015864 1 1 1
v 0.3086027 -0.04910985 0.7844375 1 1 1
v 0.4568739 0.8693157 -0.966032 1 1 1
v 0.5182899 0.8643364 -0.7976977 1 1 1
v 0.4568739 1.107221 -0.8286771 1 1 1
v 0.2536249 1.149316 -0.9015864 1 1 1
v 0.3086025 0.9691802 -0.9792924 1 1 1
v 0.1884113 0.9825088 -0.9978923 1 1 1
v -1.788139E-07 0.91141 -1.038941 1 1 1
v -0.1884116 0.9825088 -0.9978923 1 1 1
v 0.1884116 -0.05855352 0.8052804 1 1 1
v 5.960464E-08 -0.1296524 0.7642315 1 1 1
v -0.1884114 -0.05855355 0.8052804 1 1 1
v -0.22625 0.05378442 -0.9285254 1 1 1
v 0.22625 0.05378442 -0.9285254 1 1 1
v -0.4198205 0.05378442 -0.8590879 1 1 1
v -0.4198205 0.9804416 -0.8590879 1 1 1
v -0.5000001 0.05378442 -0.691451 1 1 1
v 0.4198205 0.9804416 -0.8590879 1 1 1
v 0.4198205 0.05378442 -0.8590879 1 1 1
v 0.5000001 0.05378442 -0.691451 1 1 1
v 0.5000001 0.1574062 0.566451 1 1 1
v 0.5000001 0.05378442 0.566451 1 1 1
v -0.5000001 0.05378442 0.566451 1 1 1
v -0.5000001 0.1574062 0.566451 1 1 1
v -0.22625 0.05378442 0.7402009 1 1 1
v -0.22625 0.1574062 0.7402009 1 1 1
v 0.22625 0.05378442 0.7402009 1 1 1
v 0.22625 0.1574062 0.7402009 1 1 1
v -0.4198205 0.05378442 0.6600214 1 1 1
v -0.4198205 0.1574062 0.6600214 1 1 1
v 0.4198205 0.05378442 0.6600214 1 1 1
v 0.4198205 0.1574062 0.6600214 1 1 1

vn 0 0.8660253 0.5
vn 0.9774452 0.1055944 -0.1828948
vn 0.9254633 -0.2116966 -0.3141689
vn 0.9774452 -0.1055944 0.1828948
vn 0.9254633 -0.3779265 -0.02625018
vn 0.16623 0.1679201 -0.9716842
vn 0.2111887 0.4887226 -0.8464924
vn -0.16623 0.1679201 -0.9716842
vn -0.2111887 0.4887226 -0.8464924
vn -0.7071068 0.3535534 -0.6123724
vn -0.9774452 0.1055944 -0.1828948
vn -0.652123 -0.008757144 -0.7580627
vn -0.9254633 -0.2116966 -0.3141689
vn 0.652123 -0.6608801 0.3714474
vn 0.16623 -0.7575432 0.6312652
vn 0.7071068 -0.3535534 0.6123724
vn 0.2111887 -0.4887226 0.8464924
vn 0.652123 -0.008757144 -0.7580627
vn 0.7071068 0.3535534 -0.6123724
vn -0.9774452 -0.1055944 0.1828948
vn -0.9254633 -0.3779265 -0.02625018
vn -0.652123 -0.6608801 0.3714474
vn -0.7071068 -0.3535534 0.6123724
vn -0.16623 -0.7575432 0.6312652
vn -0.2111887 -0.4887226 0.8464924
vn -0.9254633 0.3779265 0.02625018
vn -0.9254633 0.2116966 0.3141689
vn -0.652123 0.008757144 0.7580627
vn -0.16623 -0.1679201 0.9716842
vn 0.16623 -0.1679201 0.9716842
vn 0.9254633 0.3779265 0.02625018
vn 0.9254633 0.2116966 0.3141689
vn 0.16623 0.7575432 -0.6312652
vn 0.652123 0.6608801 -0.3714474
vn -0.16623 0.7575432 -0.6312652
vn -0.652123 0.6608801 -0.3714474
vn 0.652123 0.008757144 0.7580627
vn 0 -0.8660253 -0.5
vn -0.3826834 -0.4619398 0.8001032
vn -0.7071068 -0.3535534 0.6123725
vn -1 -2.980233E-08 1.192093E-07
vn -0.9238796 -0.1913417 0.3314137
vn -0.3826836 0.4619398 -0.8001031
vn -0.7071069 0.3535534 -0.6123723
vn -0.9238797 0.1913417 -0.3314134
vn 0.7071069 -0.3535534 0.6123723
vn 0.9238797 -0.1913417 0.3314134
vn 1 2.980233E-08 -1.192093E-07
vn 0.3826836 -0.4619398 0.8001031
vn 0.7071068 0.3535534 -0.6123725
vn 0.9238796 0.1913417 -0.3314137
vn 0.3826834 0.4619398 -0.8001032
vn -1.192093E-07 0.5 -0.8660254
vn 1.192093E-07 -0.5 0.8660254
vn -0.1713608 0 -0.9852083
vn 0.1713608 0 -0.9852083
vn -0.1601632 0 -0.9870905
vn 0.1601632 0 -0.9870905
vn -0.6702482 0 -0.742137
vn -0.5955263 0 -0.8033358
vn -0.9752238 0 -0.2212204
vn -0.956386 0 -0.2921059
vn 0.5955263 0 -0.8033358
vn 0.6702482 0 -0.742137
vn 0.956386 0 -0.2921059
vn 0.9752238 0 -0.2212204
vn 0.9549056 0 0.2969095
vn 0.9379104 0 0.3468777
vn -0.9379104 0 0.3468777
vn -0.9549056 0 0.2969095
vn -0.1950903 0 0.9807853
vn 0.1950903 0 0.9807853
vn -0.5871291 0 0.8094933
vn 0.5871291 0 0.8094933
vn 0 -1 0

vt 0.96875 0.475
vt 0.96875 0.375
vt 0.96875 0.275
vt 0.96875 0.355
vt 0.96875 0.2982551
vt 0.96875 0.2989083
vt 0.46875 0.475
vt 0.46875 0.275
vt 0.46875 0.2832937
vt 0.46875 0.3033167
vt 0.46875 0.4535628

usemtl colormap

f 3/1/1 2/1/1 1/1/1
f 2/1/1 3/1/1 4/1/1
f 2/1/1 4/1/1 5/1/1
f 5/1/1 4/1/1 6/1/1
f 5/1/1 6/1/1 7/1/1
f 7/1/1 6/1/1 8/1/1
f 7/1/1 8/1/1 9/1/1
f 9/1/1 8/1/1 10/1/1
f 9/1/1 10/1/1 11/1/1
f 11/1/1 10/1/1 12/1/1
f 15/2/4 14/3/3 13/2/2
f 14/3/3 15/2/4 16/3/5
f 19/3/8 18/2/7 17/3/6
f 18/2/7 19/3/8 20/2/9
f 23/3/12 22/2/11 21/2/10
f 22/2/11 23/3/12 24/3/13
f 27/2/16 26/3/15 25/3/14
f 26/3/15 27/2/16 28/2/17
f 18/2/7 29/3/18 17/3/6
f 29/3/18 18/2/7 30/2/19
f 24/3/13 31/2/20 22/2/11
f 31/2/20 24/3/13 32/3/21
f 35/3/24 34/2/23 33/3/22
f 34/2/23 35/3/24 36/2/25
f 28/2/17 35/3/24 26/3/15
f 35/3/24 28/2/17 36/2/25
f 23/3/12 20/2/9 19/3/8
f 20/2/9 23/3/12 21/2/10
f 33/3/22 31/2/20 32/3/21
f 31/2/20 33/3/22 34/2/23
f 13/2/2 29/3/18 30/2/19
f 29/3/18 13/2/2 14/3/3
f 15/2/4 25/3/14 16/3/5
f 25/3/14 15/2/4 27/2/16
f 31/2/20 12/1/26 22/2/11
f 12/1/26 31/2/20 11/1/27
f 31/2/20 9/1/28 11/1/27
f 9/1/28 31/2/20 34/2/23
f 7/1/29 34/2/23 36/2/25
f 34/2/23 7/1/29 9/1/28
f 28/2/17 7/1/29 36/2/25
f 7/1/29 28/2/17 5/1/30
f 3/1/31 15/2/4 13/2/2
f 15/2/4 3/1/31 1/1/32
f 6/1/33 30/2/19 18/2/7
f 30/2/19 6/1/33 4/1/34
f 20/2/9 6/1/33 18/2/7
f 6/1/33 20/2/9 8/1/35
f 4/1/34 13/2/2 30/2/19
f 13/2/2 4/1/34 3/1/31
f 10/1/36 20/2/9 21/2/10
f 20/2/9 10/1/36 8/1/35
f 22/2/11 10/1/36 21/2/10
f 10/1/36 22/2/11 12/1/26
f 2/1/37 28/2/17 27/2/16
f 28/2/17 2/1/37 5/1/30
f 2/1/37 15/2/4 1/1/32
f 15/2/4 2/1/37 27/2/16
f 25/3/38 14/3/38 16/3/38
f 14/3/38 25/3/38 29/3/38
f 29/3/38 25/3/38 26/3/38
f 29/3/38 26/3/38 17/3/38
f 17/3/38 26/3/38 35/3/38
f 17/3/38 35/3/38 19/3/38
f 19/3/38 35/3/38 33/3/38
f 19/3/38 33/3/38 23/3/38
f 23/3/38 33/3/38 32/3/38
f 23/3/38 32/3/38 24/3/38
f 39/4/40 38/5/39 37/4/39
f 38/5/39 39/4/40 40/3/40
f 43/6/41 42/6/41 41/3/41
f 42/6/41 43/6/41 44/4/41
f 44/4/41 43/6/41 45/4/41
f 45/4/41 47/6/41 46/4/41
f 48/6/41 47/6/41 45/4/41
f 47/6/41 48/6/41 49/3/41
f 51/6/41 44/4/41 50/4/41
f 51/6/41 52/6/41 44/4/41
f 52/6/41 51/6/41 53/3/41
f 39/4/40 54/5/42 40/3/40
f 54/5/42 39/4/40 46/4/42
f 57/5/43 56/4/44 55/4/43
f 56/4/44 57/5/43 58/3/44
f 59/5/45 56/4/44 58/3/44
f 56/4/44 59/5/45 50/4/45
f 62/5/47 61/4/46 60/3/46
f 61/4/46 62/5/47 63/4/47
f 66/6/48 65/6/48 64/3/48
f 65/6/48 66/6/48 67/4/48
f 67/4/48 66/6/48 68/4/48
f 70/4/48 69/6/48 67/4/48
f 71/6/48 69/6/48 70/4/48
f 69/6/48 71/6/48 72/3/48
f 73/6/48 70/4/48 63/4/48
f 73/6/48 74/6/48 70/4/48
f 74/6/48 73/6/48 75/3/48
f 76/4/49 60/3/46 61/4/46
f 60/3/46 76/4/49 77/5/49
f 80/4/50 79/5/51 78/3/50
f 79/5/51 80/4/50 68/4/51
f 78/3/50 81/4/52 80/4/50
f 81/4/52 78/3/50 82/5/52
f 83/6/53 55/4/53 81/4/53
f 55/4/53 83/6/53 84/3/53
f 55/4/53 84/3/53 85/6/53
f 37/4/54 86/6/54 76/4/54
f 86/6/54 37/4/54 87/3/54
f 87/3/54 37/4/54 88/6/54
f 19/8/57 90/7/56 89/7/55
f 90/7/56 19/8/57 17/8/58
f 93/7/61 92/9/60 91/7/59
f 92/9/60 93/7/61 24/10/62
f 14/10/65 95/7/64 94/9/63
f 95/7/64 14/10/65 96/7/66
f 92/9/60 89/7/55 91/7/59
f 89/7/55 92/9/60 19/8/57
f 17/8/58 95/7/64 90/7/56
f 95/7/64 17/8/58 94/9/63
f 97/11/67 96/7/66 14/10/65
f 96/7/66 97/11/67 98/7/68
f 99/7/69 24/10/62 93/7/61
f 24/10/62 99/7/69 100/11/70
f 103/7/72 102/11/71 101/7/71
f 102/11/71 103/7/72 104/11/72
f 105/7/73 100/11/70 99/7/69
f 100/11/70 105/7/73 106/11/73
f 108/11/74 103/7/72 107/7/74
f 103/7/72 108/11/74 104/11/72
f 102/11/71 105/7/73 101/7/71
f 105/7/73 102/11/71 106/11/73
f 108/11/74 98/7/68 97/11/67
f 98/7/68 108/11/74 107/7/74
f 107/7/75 96/7/75 98/7/75
f 96/7/75 107/7/75 95/7/75
f 95/7/75 107/7/75 103/7/75
f 95/7/75 103/7/75 90/7/75
f 90/7/75 103/7/75 101/7/75
f 90/7/75 101/7/75 89/7/75
f 89/7/75 101/7/75 105/7/75
f 89/7/75 105/7/75 91/7/75
f 91/7/75 105/7/75 99/7/75
f 91/7/75 99/7/75 93/7/75

g block-grass-overhang-large-slope-steep-narrow




usemtl colormap

f 3/1/1 2/1/1 1/1/1
f 2/1/1 3/1/1 4/1/1
f 2/1/1 4/1/1 5/1/1
f 5/1/1 4/1/1 6/1/1
f 5/1/1 6/1/1 7/1/1
f 7/1/1 6/1/1 8/1/1
f 7/1/1 8/1/1 9/1/1
f 9/1/1 8/1/1 10/1/1
f 9/1/1 10/1/1 11/1/1
f 11/1/1 10/1/1 12/1/1
f 15/2/4 14/3/3 13/2/2
f 14/3/3 15/2/4 16/3/5
f 19/3/8 18/2/7 17/3/6
f 18/2/7 19/3/8 20/2/9
f 23/3/12 22/2/11 21/2/10
f 22/2/11 23/3/12 24/3/13
f 27/2/16 26/3/15 25/3/14
f 26/3/15 27/2/16 28/2/17
f 18/2/7 29/3/18 17/3/6
f 29/3/18 18/2/7 30/2/19
f 24/3/13 31/2/20 22/2/11
f 31/2/20 24/3/13 32/3/21
f 35/3/24 34/2/23 33/3/22
f 34/2/23 35/3/24 36/2/25
f 28/2/17 35/3/24 26/3/15
f 35/3/24 28/2/17 36/2/25
f 23/3/12 20/2/9 19/3/8
f 20/2/9 23/3/12 21/2/10
f 33/3/22 31/2/20 32/3/21
f 31/2/20 33/3/22 34/2/23
f 13/2/2 29/3/18 30/2/19
f 29/3/18 13/2/2 14/3/3
f 15/2/4 25/3/14 16/3/5
f 25/3/14 15/2/4 27/2/16
f 31/2/20 12/1/26 22/2/11
f 12/1/26 31/2/20 11/1/27
f 31/2/20 9/1/28 11/1/27
f 9/1/28 31/2/20 34/2/23
f 7/1/29 34/2/23 36/2/25
f 34/2/23 7/1/29 9/1/28
f 28/2/17 7/1/29 36/2/25
f 7/1/29 28/2/17 5/1/30
f 3/1/31 15/2/4 13/2/2
f 15/2/4 3/1/31 1/1/32
f 6/1/33 30/2/19 18/2/7
f 30/2/19 6/1/33 4/1/34
f 20/2/9 6/1/33 18/2/7
f 6/1/33 20/2/9 8/1/35
f 4/1/34 13/2/2 30/2/19
f 13/2/2 4/1/34 3/1/31
f 10/1/36 20/2/9 21/2/10
f 20/2/9 10/1/36 8/1/35
f 22/2/11 10/1/36 21/2/10
f 10/1/36 22/2/11 12/1/26
f 2/1/37 28/2/17 27/2/16
f 28/2/17 2/1/37 5/1/30
f 2/1/37 15/2/4 1/1/32
f 15/2/4 2/1/37 27/2/16
f 25/3/38 14/3/38 16/3/38
f 14/3/38 25/3/38 29/3/38
f 29/3/38 25/3/38 26/3/38
f 29/3/38 26/3/38 17/3/38
f 17/3/38 26/3/38 35/3/38
f 17/3/38 35/3/38 19/3/38
f 19/3/38 35/3/38 33/3/38
f 19/3/38 33/3/38 23/3/38
f 23/3/38 33/3/38 32/3/38
f 23/3/38 32/3/38 24/3/38
f 39/4/40 38/5/39 37/4/39
f 38/5/39 39/4/40 40/3/40
f 43/6/41 42/6/41 41/3/41
f 42/6/41 43/6/41 44/4/41
f 44/4/41 43/6/41 45/4/41
f 45/4/41 47/6/41 46/4/41
f 48/6/41 47/6/41 45/4/41
f 47/6/41 48/6/41 49/3/41
f 51/6/41 44/4/41 50/4/41
f 51/6/41 52/6/41 44/4/41
f 52/6/41 51/6/41 53/3/41
f 39/4/40 54/5/42 40/3/40
f 54/5/42 39/4/40 46/4/42
f 57/5/43 56/4/44 55/4/43
f 56/4/44 57/5/43 58/3/44
f 59/5/45 56/4/44 58/3/44
f 56/4/44 59/5/45 50/4/45
f 62/5/47 61/4/46 60/3/46
f 61/4/46 62/5/47 63/4/47
f 66/6/48 65/6/48 64/3/48
f 65/6/48 66/6/48 67/4/48
f 67/4/48 66/6/48 68/4/48
f 70/4/48 69/6/48 67/4/48
f 71/6/48 69/6/48 70/4/48
f 69/6/48 71/6/48 72/3/48
f 73/6/48 70/4/48 63/4/48
f 73/6/48 74/6/48 70/4/48
f 74/6/48 73/6/48 75/3/48
f 76/4/49 60/3/46 61/4/46
f 60/3/46 76/4/49 77/5/49
f 80/4/50 79/5/51 78/3/50
f 79/5/51 80/4/50 68/4/51
f 78/3/50 81/4/52 80/4/50
f 81/4/52 78/3/50 82/5/52
f 83/6/53 55/4/53 81/4/53
f 55/4/53 83/6/53 84/3/53
f 55/4/53 84/3/53 85/6/53
f 37/4/54 86/6/54 76/4/54
f 86/6/54 37/4/54 87/3/54
f 87/3/54 37/4/54 88/6/54
f 19/8/57 90/7/56 89/7/55
f 90/7/56 19/8/57 17/8/58
f 93/7/61 92/9/60 91/7/59
f 92/9/60 93/7/61 24/10/62
f 14/10/65 95/7/64 94/9/63
f 95/7/64 14/10/65 96/7/66
f 92/9/60 89/7/55 91/7/59
f 89/7/55 92/9/60 19/8/57
f 17/8/58 95/7/64 90/7/56
f 95/7/64 17/8/58 94/9/63
f 97/11/67 96/7/66 14/10/65
f 96/7/66 97/11/67 98/7/68
f 99/7/69 24/10/62 93/7/61
f 24/10/62 99/7/69 100/11/70
f 103/7/72 102/11/71 101/7/71
f 102/11/71 103/7/72 104/11/72
f 105/7/73 100/11/70 99/7/69
f 100/11/70 105/7/73 106/11/73
f 108/11/74 103/7/72 107/7/74
f 103/7/72 108/11/74 104/11/72
f 102/11/71 105/7/73 101/7/71
f 105/7/73 102/11/71 106/11/73
f 108/11/74 98/7/68 97/11/67
f 98/7/68 108/11/74 107/7/74
f 107/7/75 96/7/75 98/7/75
f 96/7/75 107/7/75 95/7/75
f 95/7/75 107/7/75 103/7/75
f 95/7/75 103/7/75 90/7/75
f 90/7/75 103/7/75 101/7/75
f 90/7/75 101/7/75 89/7/75
f 89/7/75 101/7/75 105/7/75
f 89/7/75 105/7/75 91/7/75
f 91/7/75 105/7/75 99/7/75
f 91/7/75 99/7/75 93/7/75

