# Created by Kenney (www.kenney.nl)

mtllib block-grass-corner-overhang-low.mtl

g block-grass-corner-overhang-low

v -0.2260932 0.375 -0.5272182 1 1 1
v 0.2716568 0.375 -0.5272182 1 1 1
v -0.2055393 0.5 -0.4792893 1 1 1
v 0.2469607 0.5 -0.4792893 1 1 1
v -0.4390208 0.375 -0.4390208 1 1 1
v -0.3991098 0.5 -0.3991098 1 1 1
v 0.4845843 0.375 -0.4390208 1 1 1
v 0.5272182 0.375 -0.3360932 1 1 1
v 0.4405311 0.5 -0.3991098 1 1 1
v 0.4792893 0.5 -0.3055393 1 1 1
v -0.4792893 0.25 0.2469607 1 1 1
v -0.5272182 0.375 0.2716568 1 1 1
v -0.3991098 0.25 0.4405311 1 1 1
v -0.4390208 0.375 0.4845843 1 1 1
v -0.4792893 0.5 0.2469607 1 1 1
v -0.3991098 0.5 0.4405311 1 1 1
v -0.5272182 0.375 -0.2260932 1 1 1
v -0.4792893 0.5 -0.2055393 1 1 1
v -0.4792893 0.25 -0.2055393 1 1 1
v -0.3991098 0.25 -0.3991098 1 1 1
v -0.2055393 0.25 -0.4792893 1 1 1
v 0.4405311 0.25 -0.3991098 1 1 1
v 0.4792893 0.25 -0.3055393 1 1 1
v 0.444174 0.5 -0.1290026 1 1 1
v -0.1290026 0.5 0.444174 1 1 1
v -0.3055393 0.5 0.4792893 1 1 1
v 0.4885914 0.375 -0.1419029 1 1 1
v 0.444174 0.25 -0.1290026 1 1 1
v 0.2469607 0.25 -0.4792893 1 1 1
v -0.1419029 0.375 0.4885914 1 1 1
v -0.3360932 0.375 0.5272182 1 1 1
v -0.1290026 0.25 0.444174 1 1 1
v -0.3055393 0.25 0.4792893 1 1 1
v -0.4390208 0.1002902 -0.4390208 1 1 1
v -0.284427 0.1794838 -0.5030556 1 1 1
v -0.2260933 0.375 -0.5272182 1 1 1
v 0.02278174 0.1002902 -0.5272182 1 1 1
v 0.2076645 0.1823882 -0.5272182 1 1 1
v -0.162101 0.1823882 -0.5272182 1 1 1
v -0.5158793 0.2724342 0.2990313 1 1 1
v -0.4831195 0.228717 0.3781205 1 1 1
v -0.4503597 0.2724342 0.4572097 1 1 1
v -0.2389981 0.228717 0.5079048 1 1 1
v -0.3111276 0.2724342 0.5222523 1 1 1
v -0.1668686 0.2724342 0.4935574 1 1 1
v -0.5232093 0.375 -0.2357717 1 1 1
v -0.5030556 0.1794838 -0.284427 1 1 1
v 0.4885913 0.375 -0.1419029 1 1 1
v 0.4480623 0.1823882 -0.1013738 1 1 1
v 0.1733443 0.375 0.1733442 1 1 1
v 0.3309678 0.1002902 0.01572067 1 1 1
v 0.2138734 0.1823882 0.1328151 1 1 1
v 0.1328151 0.1823882 0.2138734 1 1 1
v 0.01572067 0.1002902 0.3309678 1 1 1
v -0.1013738 0.1823882 0.4480623 1 1 1
v -0.5272182 0.1823882 -0.162101 1 1 1
v -0.5272182 0.1002902 0.02278175 1 1 1
v -0.5272182 0.1823882 0.2076645 1 1 1
v -0.387557 0.2724342 0.5059012 1 1 1
v -0.4257881 0.3030863 0.4900654 1 1 1
v -0.3493259 0.3030863 0.5217371 1 1 1
v -0.3991098 0 -0.3991098 1 1 1
v -0.4792893 0 -0.2055393 1 1 1
v -0.4792893 0.25 -0.2055393 1 1 1
v 0.4405311 0 -0.3991098 1 1 1
v 0.4792893 0 -0.3055393 1 1 1
v 0.444174 0 -0.1290026 1 1 1
v -0.1290026 0 0.444174 1 1 1
v 0.2469607 0 -0.4792893 1 1 1
v -0.2055393 0 -0.4792893 1 1 1
v -0.3055394 0 0.4792893 1 1 1
v -0.3991098 0 0.4405312 1 1 1
v -0.4792893 0 0.2469607 1 1 1
v -0.4792893 0.25 0.2469607 1 1 1
v 0.2469607 0.25 -0.4792893 1 1 1
v -0.2055393 0.25 -0.4792893 1 1 1
v -0.3991098 0.25 0.4405312 1 1 1
v 0.444174 0.25 -0.1290026 1 1 1
v -0.3055394 0.25 0.4792893 1 1 1

vn -0.2041873 0 -0.9789318
vn 0.2075395 0 -0.9782266
vn -0.170995 0.3771308 -0.9102379
vn 0.1670611 0.3815875 -0.9091103
vn -0.7071068 0 -0.7071068
vn -0.6444537 0.4115325 -0.6444537
vn 0.7102627 0 -0.7039367
vn 0.9915926 0 -0.1293986
vn 0.6348521 0.4289249 -0.6426401
vn 0.9277033 0.3692102 -0.0552286
vn -0.9091103 -0.3815875 0.1670611
vn -0.9782266 0 0.2075395
vn -0.6426401 -0.4289249 0.6348521
vn -0.7039367 0 0.7102627
vn -0.9091103 0.3815875 0.1670611
vn -0.6426401 0.4289249 0.6348521
vn -0.9789318 0 -0.2041873
vn -0.9102379 0.3771308 -0.170995
vn -0.9102379 -0.3771308 -0.170995
vn -0.3531832 -0.3850109 -0.8526595
vn -0.170995 -0.3771308 -0.9102379
vn 0.6348521 -0.4289249 -0.6426401
vn 0.9277033 -0.3692102 -0.0552286
vn 0 1 0
vn 0.9010634 0 0.4336874
vn 0.832027 -0.24425 0.4980694
vn 0.1670611 -0.3815875 -0.9091103
vn 0.4336874 0 0.9010634
vn 0.832027 0.24425 0.4980694
vn 0.4980694 0.24425 0.832027
vn -0.1293986 0 0.9915926
vn -0.0552286 0.3692102 0.9277033
vn 0.4980694 -0.24425 0.832027
vn -0.0552286 -0.3692102 0.9277033
vn -0.8526595 -0.3850109 -0.3531832
vn -0.3826834 0 -0.9238795
vn 0 0 -1
vn -0.9238795 0 0.3826834
vn 0.1950903 0 0.9807853
vn -0.9238795 0 -0.3826834
vn 0.7071068 0 0.7071068
vn -1 0 0
vn -0.3826834 0 0.9238795
vn -0.9807853 0 -0.1950903
vn 0.7071068 0 -0.7071068
vn 0.9951847 0 -0.09801714
vn 0 -1 0
vn -0.9807853 0 0.1950903
vn 0.1950903 0 -0.9807853
vn -0.1950903 0 -0.9807853
vn -0.7071068 0 0.7071068
vn 0.8819212 0 0.4713967
vn 0.4713967 0 0.8819212
vn -0.09801714 0 0.9951847

vt 0.96875 0.375
vt 0.96875 0.475
vt 0.96875 0.275
vt 0.96875 0.2980625
vt 0.96875 0.355
vt 0.96875 0.2989083
vt 0.96875 0.3251311
vt 0.96875 0.3124
vt 0.96875 0.3340576
vt 0.46875 0.475
vt 0.46875 0.275

usemtl colormap

f 3/2/3 2/1/2 1/1/1
f 2/1/2 3/2/3 4/2/4
f 6/2/6 1/1/1 5/1/5
f 1/1/1 6/2/6 3/2/3
f 9/2/9 8/1/8 7/1/7
f 8/1/8 9/2/9 10/2/10
f 13/3/13 12/1/12 11/3/11
f 12/1/12 13/3/13 14/1/14
f 12/1/12 16/2/16 15/2/15
f 16/2/16 12/1/12 14/1/14
f 17/1/17 6/2/6 5/1/5
f 6/2/6 17/1/17 18/2/18
f 12/1/12 18/2/18 17/1/17
f 18/2/18 12/1/12 15/2/15
f 19/3/19 12/1/12 17/1/17
f 12/1/12 19/3/19 11/3/11
f 5/1/5 21/3/21 20/3/20
f 21/3/21 5/1/5 1/1/1
f 8/1/8 22/3/22 7/1/7
f 22/3/22 8/1/8 23/3/23
f 9/2/24 24/2/24 10/2/24
f 24/2/24 9/2/24 25/2/24
f 25/2/24 9/2/24 4/2/24
f 25/2/24 4/2/24 3/2/24
f 25/2/24 3/2/24 26/2/24
f 26/2/24 3/2/24 6/2/24
f 26/2/24 6/2/24 16/2/24
f 16/2/24 6/2/24 18/2/24
f 16/2/24 18/2/24 15/2/24
f 27/1/25 23/3/23 8/1/8
f 23/3/23 27/1/25 28/3/26
f 1/1/1 29/3/27 21/3/21
f 29/3/27 1/1/1 2/1/2
f 24/2/29 30/1/28 27/1/25
f 30/1/28 24/2/29 25/2/30
f 25/2/30 31/1/31 30/1/28
f 31/1/31 25/2/30 26/2/32
f 10/2/10 27/1/25 8/1/8
f 27/1/25 10/2/10 24/2/29
f 26/2/32 14/1/14 31/1/31
f 14/1/14 26/2/32 16/2/16
f 30/1/28 33/3/34 32/3/33
f 33/3/34 30/1/28 31/1/31
f 27/1/25 32/3/33 28/3/26
f 32/3/33 27/1/25 30/1/28
f 31/1/31 13/3/13 33/3/34
f 13/3/13 31/1/31 14/1/14
f 2/1/2 22/3/22 29/3/27
f 22/3/22 2/1/2 7/1/7
f 4/2/4 7/1/7 2/1/2
f 7/1/7 4/2/4 9/2/9
f 20/3/35 17/1/17 5/1/5
f 17/1/17 20/3/35 19/3/19
f 5/5/36 35/4/36 34/3/36
f 35/4/36 5/5/36 36/5/36
f 39/6/37 38/6/37 37/3/37
f 38/6/37 39/6/37 2/5/37
f 2/5/37 39/6/37 36/5/37
f 40/7/38 14/5/38 12/5/38
f 14/5/38 40/7/38 41/8/38
f 14/5/38 41/8/38 42/7/38
f 45/7/39 44/7/39 43/8/39
f 44/7/39 45/7/39 31/5/39
f 31/5/39 45/7/39 30/5/39
f 34/3/40 46/5/40 5/5/40
f 46/5/40 34/3/40 47/4/40
f 46/5/40 47/4/40 17/5/40
f 50/5/41 49/6/41 48/5/41
f 49/6/41 50/5/41 51/3/41
f 51/3/41 50/5/41 52/6/41
f 30/5/41 53/6/41 50/5/41
f 53/6/41 30/5/41 54/3/41
f 54/3/41 30/5/41 55/6/41
f 56/6/42 12/5/42 17/5/42
f 12/5/42 56/6/42 57/3/42
f 12/5/42 57/3/42 58/6/42
f 61/9/43 60/9/43 59/7/43
f 60/9/43 61/9/43 14/5/43
f 14/5/43 61/9/43 31/5/43
f 63/10/44 20/11/5 62/10/5
f 20/11/5 63/10/44 64/11/44
f 23/11/46 65/10/45 22/11/45
f 65/10/45 23/11/46 66/10/46
f 67/10/47 65/10/47 66/10/47
f 65/10/47 67/10/47 68/10/47
f 65/10/47 68/10/47 69/10/47
f 69/10/47 68/10/47 70/10/47
f 70/10/47 68/10/47 71/10/47
f 70/10/47 71/10/47 62/10/47
f 62/10/47 71/10/47 72/10/47
f 62/10/47 72/10/47 63/10/47
f 63/10/47 72/10/47 73/10/47
f 73/10/48 64/11/44 63/10/44
f 64/11/44 73/10/48 74/11/48
f 75/11/49 65/10/45 69/10/49
f 65/10/45 75/11/49 22/11/45
f 76/11/50 69/10/49 70/10/50
f 69/10/49 76/11/50 75/11/49
f 72/10/51 74/11/48 73/10/48
f 74/11/48 72/10/51 77/11/51
f 20/11/5 70/10/50 62/10/5
f 70/10/50 20/11/5 76/11/50
f 78/11/52 66/10/46 23/11/46
f 66/10/46 78/11/52 67/10/52
f 78/11/52 68/10/53 67/10/52
f 68/10/53 78/11/52 32/11/53
f 79/11/54 72/10/51 71/10/54
f 72/10/51 79/11/54 77/11/51
f 32/11/53 71/10/54 68/10/53
f 71/10/54 32/11/53 79/11/54

g block-grass-corner-overhang-low




usemtl colormap

f 3/2/3 2/1/2 1/1/1
f 2/1/2 3/2/3 4/2/4
f 6/2/6 1/1/1 5/1/5
f 1/1/1 6/2/6 3/2/3
f 9/2/9 8/1/8 7/1/7
f 8/1/8 9/2/9 10/2/10
f 13/3/13 12/1/12 11/3/11
f 12/1/12 13/3/13 14/1/14
f 12/1/12 16/2/16 15/2/15
f 16/2/16 12/1/12 14/1/14
f 17/1/17 6/2/6 5/1/5
f 6/2/6 17/1/17 18/2/18
f 12/1/12 18/2/18 17/1/17
f 18/2/18 12/1/12 15/2/15
f 19/3/19 12/1/12 17/1/17
f 12/1/12 19/3/19 11/3/11
f 5/1/5 21/3/21 20/3/20
f 21/3/21 5/1/5 1/1/1
f 8/1/8 22/3/22 7/1/7
f 22/3/22 8/1/8 23/3/23
f 9/2/24 24/2/24 10/2/24
f 24/2/24 9/2/24 25/2/24
f 25/2/24 9/2/24 4/2/24
f 25/2/24 4/2/24 3/2/24
f 25/2/24 3/2/24 26/2/24
f 26/2/24 3/2/24 6/2/24
f 26/2/24 6/2/24 16/2/24
f 16/2/24 6/2/24 18/2/24
f 16/2/24 18/2/24 15/2/24
f 27/1/25 23/3/23 8/1/8
f 23/3/23 27/1/25 28/3/26
f 1/1/1 29/3/27 21/3/21
f 29/3/27 1/1/1 2/1/2
f 24/2/29 30/1/28 27/1/25
f 30/1/28 24/2/29 25/2/30
f 25/2/30 31/1/31 30/1/28
f 31/1/31 25/2/30 26/2/32
f 10/2/10 27/1/25 8/1/8
f 27/1/25 10/2/10 24/2/29
f 26/2/32 14/1/14 31/1/31
f 14/1/14 26/2/32 16/2/16
f 30/1/28 33/3/34 32/3/33
f 33/3/34 30/1/28 31/1/31
f 27/1/25 32/3/33 28/3/26
f 32/3/33 27/1/25 30/1/28
f 31/1/31 13/3/13 33/3/34
f 13/3/13 31/1/31 14/1/14
f 2/1/2 22/3/22 29/3/27
f 22/3/22 2/1/2 7/1/7
f 4/2/4 7/1/7 2/1/2
f 7/1/7 4/2/4 9/2/9
f 20/3/35 17/1/17 5/1/5
f 17/1/17 20/3/35 19/3/19
f 5/5/36 35/4/36 34/3/36
f 35/4/36 5/5/36 36/5/36
f 39/6/37 38/6/37 37/3/37
f 38/6/37 39/6/37 2/5/37
f 2/5/37 39/6/37 36/5/37
f 40/7/38 14/5/38 12/5/38
f 14/5/38 40/7/38 41/8/38
f 14/5/38 41/8/38 42/7/38
f 45/7/39 44/7/39 43/8/39
f 44/7/39 45/7/39 31/5/39
f 31/5/39 45/7/39 30/5/39
f 34/3/40 46/5/40 5/5/40
f 46/5/40 34/3/40 47/4/40
f 46/5/40 47/4/40 17/5/40
f 50/5/41 49/6/41 48/5/41
f 49/6/41 50/5/41 51/3/41
f 51/3/41 50/5/41 52/6/41
f 30/5/41 53/6/41 50/5/41
f 53/6/41 30/5/41 54/3/41
f 54/3/41 30/5/41 55/6/41
f 56/6/42 12/5/42 17/5/42
f 12/5/42 56/6/42 57/3/42
f 12/5/42 57/3/42 58/6/42
f 61/9/43 60/9/43 59/7/43
f 60/9/43 61/9/43 14/5/43
f 14/5/43 61/9/43 31/5/43
f 63/10/44 20/11/5 62/10/5
f 20/11/5 63/10/44 64/11/44
f 23/11/46 65/10/45 22/11/45
f 65/10/45 23/11/46 66/10/46
f 67/10/47 65/10/47 66/10/47
f 65/10/47 67/10/47 68/10/47
f 65/10/47 68/10/47 69/10/47
f 69/10/47 68/10/47 70/10/47
f 70/10/47 68/10/47 71/10/47
f 70/10/47 71/10/47 62/10/47
f 62/10/47 71/10/47 72/10/47
f 62/10/47 72/10/47 63/10/47
f 63/10/47 72/10/47 73/10/47
f 73/10/48 64/11/44 63/10/44
f 64/11/44 73/10/48 74/11/48
f 75/11/49 65/10/45 69/10/49
f 65/10/45 75/11/49 22/11/45
f 76/11/50 69/10/49 70/10/50
f 69/10/49 76/11/50 75/11/49
f 72/10/51 74/11/48 73/10/48
f 74/11/48 72/10/51 77/11/51
f 20/11/5 70/10/50 62/10/5
f 70/10/50 20/11/5 76/11/50
f 78/11/52 66/10/46 23/11/46
f 66/10/46 78/11/52 67/10/52
f 78/11/52 68/10/53 67/10/52
f 68/10/53 78/11/52 32/11/53
f 79/11/54 72/10/51 71/10/54
f 72/10/51 79/11/54 77/11/51
f 32/11/53 71/10/54 68/10/53
f 71/10/54 32/11/53 79/11/54

