# Created by Kenney (www.kenney.nl)

mtllib block-snow-overhang-low-large.mtl

g block-snow-overhang-low-large

v 1 0.5 0.7262501 1 1 1
v 0.9198205 0.5 0.9198205 1 1 1
v 1 0.5 -0.7262501 1 1 1
v 0.9198205 0.5 -0.9198205 1 1 1
v 0.7262501 0.5 1 1 1 1
v 0.7262501 0.5 -1 1 1 1
v -0.7262501 0.5 1 1 1 1
v -0.7262501 0.5 -1 1 1 1
v -0.9198205 0.5 0.9198205 1 1 1
v -0.9198205 0.5 -0.9198205 1 1 1
v -1 0.5 0.7262501 1 1 1
v -1 0.5 -0.7262501 1 1 1
v 1.041062 0.375 -0.753625 1 1 1
v 1 0.25 -0.7262501 1 1 1
v 1.041062 0.375 0.753625 1 1 1
v 1 0.25 0.7262501 1 1 1
v -0.7262501 0.25 -1 1 1 1
v 0.7262501 0.25 -1 1 1 1
v -0.753625 0.375 -1.041062 1 1 1
v 0.753625 0.375 -1.041062 1 1 1
v -0.956874 0.375 -0.956874 1 1 1
v -1.041062 0.375 -0.753625 1 1 1
v -0.9198205 0.25 -0.9198205 1 1 1
v -1 0.25 -0.7262501 1 1 1
v 0.9198205 0.25 0.9198205 1 1 1
v 0.7262501 0.25 1 1 1 1
v 0.956874 0.375 0.956874 1 1 1
v 0.753625 0.375 1.041062 1 1 1
v 0.9198205 0.25 -0.9198205 1 1 1
v 0.956874 0.375 -0.956874 1 1 1
v -1.041062 0.375 0.753625 1 1 1
v -1 0.25 0.7262501 1 1 1
v -0.7262501 0.25 1 1 1 1
v -0.9198205 0.25 0.9198205 1 1 1
v -0.753625 0.375 1.041062 1 1 1
v -0.956874 0.375 0.956874 1 1 1
v -0.5030209 0.1002902 1.041062 1 1 1
v -0.6354546 0.1379545 1.041062 1 1 1
v -0.3705871 0.1379545 1.041062 1 1 1
v -0.2777939 0.2396734 1.041062 1 1 1
v -0.7282478 0.2396734 1.041062 1 1 1
v -0.2524167 0.375 1.041062 1 1 1
v -0.02711458 0.2376451 1.041062 1 1 1
v -0.09333148 0.2564772 1.041062 1 1 1
v 0.03910231 0.2564772 1.041062 1 1 1
v 0.08549888 0.3073367 1.041062 1 1 1
v -0.1397281 0.3073367 1.041062 1 1 1
v 0.0981875 0.375 1.041062 1 1 1
v -0.1524167 0.375 1.041062 1 1 1
v 0.5596302 0.1689677 1.041062 1 1 1
v 0.4603049 0.1972159 1.041062 1 1 1
v 0.6589556 0.1972159 1.041062 1 1 1
v 0.7285504 0.273505 1.041062 1 1 1
v 0.39071 0.273505 1.041062 1 1 1
v 0.7475833 0.375 1.041062 1 1 1
v 0.3716771 0.375 1.041062 1 1 1
v -1.041062 0.375 -0.2524167 1 1 1
v -1.041062 0.2396734 -0.7282478 1 1 1
v -1.041062 0.1379545 -0.6354546 1 1 1
v -1.041062 0.1002902 -0.5030209 1 1 1
v -1.041062 0.1379545 -0.3705871 1 1 1
v -1.041062 0.2396734 -0.2777939 1 1 1
v -1.041062 0.375 0.3716771 1 1 1
v -1.041062 0.375 0.7475833 1 1 1
v -1.041062 0.273505 0.39071 1 1 1
v -1.041062 0.1972159 0.4603049 1 1 1
v -1.041062 0.1689677 0.5596302 1 1 1
v -1.041062 0.1972159 0.6589556 1 1 1
v -1.041062 0.273505 0.7285504 1 1 1
v -1.041062 0.375 -0.1524167 1 1 1
v -1.041062 0.375 0.09818751 1 1 1
v -1.041062 0.3073367 -0.139728 1 1 1
v -1.041062 0.2564772 -0.09333148 1 1 1
v -1.041062 0.2376451 -0.02711458 1 1 1
v -1.041062 0.2564772 0.03910231 1 1 1
v -1.041062 0.3073367 0.08549888 1 1 1
v 0.02711458 0.2376451 -1.041062 1 1 1
v 0.09333148 0.2564772 -1.041062 1 1 1
v -0.03910231 0.2564772 -1.041062 1 1 1
v -0.08549888 0.3073367 -1.041062 1 1 1
v 0.139728 0.3073367 -1.041062 1 1 1
v -0.09818751 0.375 -1.041062 1 1 1
v 0.1524167 0.375 -1.041062 1 1 1
v 0.5030209 0.1002902 -1.041062 1 1 1
v 0.6354546 0.1379545 -1.041062 1 1 1
v 0.3705871 0.1379545 -1.041062 1 1 1
v 0.2777939 0.2396734 -1.041062 1 1 1
v 0.7282478 0.2396734 -1.041062 1 1 1
v 0.2524167 0.375 -1.041062 1 1 1
v -0.5596302 0.1689677 -1.041062 1 1 1
v -0.4603049 0.1972159 -1.041062 1 1 1
v -0.6589556 0.1972159 -1.041062 1 1 1
v -0.7285504 0.273505 -1.041062 1 1 1
v -0.39071 0.273505 -1.041062 1 1 1
v -0.7475833 0.375 -1.041062 1 1 1
v -0.3716771 0.375 -1.041062 1 1 1
v 1.041062 0.375 0.2524167 1 1 1
v 1.041062 0.2396734 0.2777939 1 1 1
v 1.041062 0.1379545 0.3705871 1 1 1
v 1.041062 0.1002902 0.5030209 1 1 1
v 1.041062 0.1379545 0.6354546 1 1 1
v 1.041062 0.2396734 0.7282478 1 1 1
v 1.041062 0.375 -0.7475833 1 1 1
v 1.041062 0.273505 -0.7285504 1 1 1
v 1.041062 0.375 -0.3716771 1 1 1
v 1.041062 0.1972159 -0.6589556 1 1 1
v 1.041062 0.1689677 -0.5596302 1 1 1
v 1.041062 0.1972159 -0.4603049 1 1 1
v 1.041062 0.273505 -0.39071 1 1 1
v 1.041062 0.375 -0.0981875 1 1 1
v 1.041062 0.3073367 -0.08549888 1 1 1
v 1.041062 0.375 0.1524167 1 1 1
v 1.041062 0.2564772 -0.0391023 1 1 1
v 1.041062 0.2376451 0.02711459 1 1 1
v 1.041062 0.2564772 0.09333148 1 1 1
v 1.041062 0.3073367 0.1397281 1 1 1
v 0.7262501 0 -1 1 1 1
v 0.9198205 0 -0.9198205 1 1 1
v 0.7262501 0.25 -1 1 1 1
v 0.9198205 0.25 -0.9198205 1 1 1
v -0.9198205 0 -0.9198205 1 1 1
v -0.9198205 0.25 -0.9198205 1 1 1
v -1 0 -0.7262501 1 1 1
v -1 0.25 -0.7262501 1 1 1
v 0.9198205 0 0.9198205 1 1 1
v 0.7262501 0 1 1 1 1
v 0.9198205 0.25 0.9198205 1 1 1
v 0.7262501 0.25 1 1 1 1
v -0.7262501 0 1 1 1 1
v -0.7262501 0.25 1 1 1 1
v 1 0 0.7262501 1 1 1
v 1 0 -0.7262501 1 1 1
v -0.7262501 0 -1 1 1 1
v -0.9198205 0 0.9198205 1 1 1
v -1 0 0.7262501 1 1 1
v -0.7262501 0.25 -1 1 1 1
v -0.9198205 0.25 0.9198205 1 1 1
v 1 0.25 0.7262501 1 1 1
v -1 0.25 0.7262501 1 1 1
v 1 0.25 -0.7262501 1 1 1

vn 0 1 0
vn 0.9774452 0 -0.2111887
vn 0.9254633 -0.3404191 -0.16623
vn 0.9774452 0 0.2111887
vn 0.9254633 -0.3404191 0.16623
vn -0.16623 -0.3404191 -0.9254633
vn 0.16623 -0.3404191 -0.9254633
vn -0.2111887 0 -0.9774452
vn 0.2111887 0 -0.9774452
vn -0.7071068 0 -0.7071068
vn -0.9774452 0 -0.2111887
vn -0.652123 -0.3866153 -0.652123
vn -0.9254633 -0.3404191 -0.16623
vn 0.652123 -0.3866153 0.652123
vn 0.16623 -0.3404191 0.9254633
vn 0.7071068 0 0.7071068
vn 0.2111887 0 0.9774452
vn 0.652123 -0.3866153 -0.652123
vn 0.7071068 0 -0.7071068
vn -0.9774452 0 0.2111887
vn -0.9254633 -0.3404191 0.16623
vn -0.16623 -0.3404191 0.9254633
vn -0.652123 -0.3866153 0.652123
vn -0.2111887 0 0.9774452
vn -0.7071068 0 0.7071068
vn -0.9254633 0.3404191 -0.16623
vn -0.9254633 0.3404191 0.16623
vn -0.652123 0.3866153 0.652123
vn -0.16623 0.3404191 0.9254633
vn 0.16623 0.3404191 0.9254633
vn 0.9254633 0.3404191 -0.16623
vn 0.9254633 0.3404191 0.16623
vn 0.16623 0.3404191 -0.9254633
vn 0.652123 0.3866153 -0.652123
vn -0.16623 0.3404191 -0.9254633
vn -0.652123 0.3866153 -0.652123
vn 0.652123 0.3866153 0.652123
vn 0 0 1
vn -1 0 0
vn 0 0 -1
vn 1 0 0
vn 0.1950903 0 -0.9807853
vn -0.9807853 0 -0.1950903
vn 0.1950903 0 0.9807853
vn -0.1950903 0 0.9807853
vn 0 -1 0
vn -0.1950903 0 -0.9807853
vn 0.9807853 0 0.1950903
vn -0.9807853 0 0.1950903
vn 0.9807853 0 -0.1950903

vt 0.34375 0.475
vt 0.34375 0.375
vt 0.34375 0.275
vt 0.34375 0.2859685
vt 0.34375 0.3155907
vt 0.34375 0.355
vt 0.34375 0.315
vt 0.34375 0.3204842
vt 0.34375 0.3352953
vt 0.34375 0.295
vt 0.34375 0.3032264
vt 0.34375 0.325443
vt 0.46875 0.475
vt 0.46875 0.275

usemtl colormap

f 3/1/1 2/1/1 1/1/1
f 2/1/1 3/1/1 4/1/1
f 2/1/1 4/1/1 5/1/1
f 5/1/1 4/1/1 6/1/1
f 5/1/1 6/1/1 7/1/1
f 7/1/1 6/1/1 8/1/1
f 7/1/1 8/1/1 9/1/1
f 9/1/1 8/1/1 10/1/1
f 9/1/1 10/1/1 11/1/1
f 11/1/1 10/1/1 12/1/1
f 15/2/4 14/3/3 13/2/2
f 14/3/3 15/2/4 16/3/5
f 19/2/8 18/3/7 17/3/6
f 18/3/7 19/2/8 20/2/9
f 23/3/12 22/2/11 21/2/10
f 22/2/11 23/3/12 24/3/13
f 27/2/16 26/3/15 25/3/14
f 26/3/15 27/2/16 28/2/17
f 20/2/9 29/3/18 18/3/7
f 29/3/18 20/2/9 30/2/19
f 24/3/13 31/2/20 22/2/11
f 31/2/20 24/3/13 32/3/21
f 35/2/24 34/3/23 33/3/22
f 34/3/23 35/2/24 36/2/25
f 26/3/15 35/2/24 33/3/22
f 35/2/24 26/3/15 28/2/17
f 21/2/10 17/3/6 23/3/12
f 17/3/6 21/2/10 19/2/8
f 34/3/23 31/2/20 32/3/21
f 31/2/20 34/3/23 36/2/25
f 13/2/2 29/3/18 30/2/19
f 29/3/18 13/2/2 14/3/3
f 15/2/4 25/3/14 16/3/5
f 25/3/14 15/2/4 27/2/16
f 31/2/20 12/1/26 22/2/11
f 12/1/26 31/2/20 11/1/27
f 31/2/20 9/1/28 11/1/27
f 9/1/28 31/2/20 36/2/25
f 7/1/29 36/2/25 35/2/24
f 36/2/25 7/1/29 9/1/28
f 28/2/17 7/1/29 35/2/24
f 7/1/29 28/2/17 5/1/30
f 3/1/31 15/2/4 13/2/2
f 15/2/4 3/1/31 1/1/32
f 6/1/33 30/2/19 20/2/9
f 30/2/19 6/1/33 4/1/34
f 8/1/35 20/2/9 19/2/8
f 20/2/9 8/1/35 6/1/33
f 4/1/34 13/2/2 30/2/19
f 13/2/2 4/1/34 3/1/31
f 10/1/36 19/2/8 21/2/10
f 19/2/8 10/1/36 8/1/35
f 22/2/11 10/1/36 21/2/10
f 10/1/36 22/2/11 12/1/26
f 2/1/37 28/2/17 27/2/16
f 28/2/17 2/1/37 5/1/30
f 2/1/37 15/2/4 1/1/32
f 15/2/4 2/1/37 27/2/16
f 39/4/38 38/4/38 37/3/38
f 38/4/38 39/4/38 40/5/38
f 38/4/38 40/5/38 41/5/38
f 41/5/38 40/5/38 42/6/38
f 41/5/38 42/6/38 35/6/38
f 45/8/38 44/8/38 43/7/38
f 44/8/38 45/8/38 46/9/38
f 44/8/38 46/9/38 47/9/38
f 47/9/38 46/9/38 48/6/38
f 47/9/38 48/6/38 49/6/38
f 52/11/38 51/11/38 50/10/38
f 51/11/38 52/11/38 53/12/38
f 51/11/38 53/12/38 54/12/38
f 54/12/38 53/12/38 55/6/38
f 54/12/38 55/6/38 56/6/38
f 58/5/39 57/6/39 22/6/39
f 57/6/39 58/5/39 59/4/39
f 57/6/39 59/4/39 60/3/39
f 57/6/39 60/3/39 61/4/39
f 57/6/39 61/4/39 62/5/39
f 65/12/39 64/6/39 63/6/39
f 64/6/39 65/12/39 66/11/39
f 64/6/39 66/11/39 67/10/39
f 64/6/39 67/10/39 68/11/39
f 64/6/39 68/11/39 69/12/39
f 72/9/39 71/6/39 70/6/39
f 71/6/39 72/9/39 73/8/39
f 71/6/39 73/8/39 74/7/39
f 71/6/39 74/7/39 75/8/39
f 71/6/39 75/8/39 76/9/39
f 79/8/40 78/8/40 77/7/40
f 78/8/40 79/8/40 80/9/40
f 78/8/40 80/9/40 81/9/40
f 81/9/40 80/9/40 82/6/40
f 81/9/40 82/6/40 83/6/40
f 86/4/40 85/4/40 84/3/40
f 85/4/40 86/4/40 87/5/40
f 85/4/40 87/5/40 88/5/40
f 88/5/40 87/5/40 89/6/40
f 88/5/40 89/6/40 20/6/40
f 92/11/40 91/11/40 90/10/40
f 91/11/40 92/11/40 93/12/40
f 91/11/40 93/12/40 94/12/40
f 94/12/40 93/12/40 95/6/40
f 94/12/40 95/6/40 96/6/40
f 15/6/41 98/5/41 97/6/41
f 98/5/41 15/6/41 99/4/41
f 99/4/41 15/6/41 100/3/41
f 100/3/41 15/6/41 101/4/41
f 101/4/41 15/6/41 102/5/41
f 105/6/41 104/12/41 103/6/41
f 104/12/41 105/6/41 106/11/41
f 106/11/41 105/6/41 107/10/41
f 107/10/41 105/6/41 108/11/41
f 108/11/41 105/6/41 109/12/41
f 112/6/41 111/9/41 110/6/41
f 111/9/41 112/6/41 113/8/41
f 113/8/41 112/6/41 114/7/41
f 114/7/41 112/6/41 115/8/41
f 115/8/41 112/6/41 116/9/41
f 119/14/42 118/13/19 117/13/42
f 118/13/19 119/14/42 120/14/19
f 123/13/43 122/14/10 121/13/10
f 122/14/10 123/13/43 124/14/43
f 127/14/16 126/13/44 125/13/16
f 126/13/44 127/14/16 128/14/44
f 128/14/44 129/13/45 126/13/44
f 129/13/45 128/14/44 130/14/45
f 125/13/46 132/13/46 131/13/46
f 132/13/46 125/13/46 118/13/46
f 118/13/46 125/13/46 126/13/46
f 118/13/46 126/13/46 117/13/46
f 117/13/46 126/13/46 129/13/46
f 117/13/46 129/13/46 133/13/46
f 133/13/46 129/13/46 134/13/46
f 133/13/46 134/13/46 121/13/46
f 121/13/46 134/13/46 135/13/46
f 121/13/46 135/13/46 123/13/46
f 136/14/47 117/13/42 133/13/47
f 117/13/42 136/14/47 119/14/42
f 130/14/45 134/13/25 129/13/45
f 134/13/25 130/14/45 137/14/25
f 127/14/16 131/13/48 138/14/48
f 131/13/48 127/14/16 125/13/16
f 135/13/49 124/14/43 123/13/43
f 124/14/43 135/13/49 139/14/49
f 134/13/25 139/14/49 135/13/49
f 139/14/49 134/13/25 137/14/25
f 138/14/48 132/13/50 140/14/50
f 132/13/50 138/14/48 131/13/48
f 122/14/10 133/13/47 121/13/10
f 133/13/47 122/14/10 136/14/47
f 140/14/50 118/13/19 120/14/19
f 118/13/19 140/14/50 132/13/50

g block-snow-overhang-low-large




usemtl colormap

f 3/1/1 2/1/1 1/1/1
f 2/1/1 3/1/1 4/1/1
f 2/1/1 4/1/1 5/1/1
f 5/1/1 4/1/1 6/1/1
f 5/1/1 6/1/1 7/1/1
f 7/1/1 6/1/1 8/1/1
f 7/1/1 8/1/1 9/1/1
f 9/1/1 8/1/1 10/1/1
f 9/1/1 10/1/1 11/1/1
f 11/1/1 10/1/1 12/1/1
f 15/2/4 14/3/3 13/2/2
f 14/3/3 15/2/4 16/3/5
f 19/2/8 18/3/7 17/3/6
f 18/3/7 19/2/8 20/2/9
f 23/3/12 22/2/11 21/2/10
f 22/2/11 23/3/12 24/3/13
f 27/2/16 26/3/15 25/3/14
f 26/3/15 27/2/16 28/2/17
f 20/2/9 29/3/18 18/3/7
f 29/3/18 20/2/9 30/2/19
f 24/3/13 31/2/20 22/2/11
f 31/2/20 24/3/13 32/3/21
f 35/2/24 34/3/23 33/3/22
f 34/3/23 35/2/24 36/2/25
f 26/3/15 35/2/24 33/3/22
f 35/2/24 26/3/15 28/2/17
f 21/2/10 17/3/6 23/3/12
f 17/3/6 21/2/10 19/2/8
f 34/3/23 31/2/20 32/3/21
f 31/2/20 34/3/23 36/2/25
f 13/2/2 29/3/18 30/2/19
f 29/3/18 13/2/2 14/3/3
f 15/2/4 25/3/14 16/3/5
f 25/3/14 15/2/4 27/2/16
f 31/2/20 12/1/26 22/2/11
f 12/1/26 31/2/20 11/1/27
f 31/2/20 9/1/28 11/1/27
f 9/1/28 31/2/20 36/2/25
f 7/1/29 36/2/25 35/2/24
f 36/2/25 7/1/29 9/1/28
f 28/2/17 7/1/29 35/2/24
f 7/1/29 28/2/17 5/1/30
f 3/1/31 15/2/4 13/2/2
f 15/2/4 3/1/31 1/1/32
f 6/1/33 30/2/19 20/2/9
f 30/2/19 6/1/33 4/1/34
f 8/1/35 20/2/9 19/2/8
f 20/2/9 8/1/35 6/1/33
f 4/1/34 13/2/2 30/2/19
f 13/2/2 4/1/34 3/1/31
f 10/1/36 19/2/8 21/2/10
f 19/2/8 10/1/36 8/1/35
f 22/2/11 10/1/36 21/2/10
f 10/1/36 22/2/11 12/1/26
f 2/1/37 28/2/17 27/2/16
f 28/2/17 2/1/37 5/1/30
f 2/1/37 15/2/4 1/1/32
f 15/2/4 2/1/37 27/2/16
f 39/4/38 38/4/38 37/3/38
f 38/4/38 39/4/38 40/5/38
f 38/4/38 40/5/38 41/5/38
f 41/5/38 40/5/38 42/6/38
f 41/5/38 42/6/38 35/6/38
f 45/8/38 44/8/38 43/7/38
f 44/8/38 45/8/38 46/9/38
f 44/8/38 46/9/38 47/9/38
f 47/9/38 46/9/38 48/6/38
f 47/9/38 48/6/38 49/6/38
f 52/11/38 51/11/38 50/10/38
f 51/11/38 52/11/38 53/12/38
f 51/11/38 53/12/38 54/12/38
f 54/12/38 53/12/38 55/6/38
f 54/12/38 55/6/38 56/6/38
f 58/5/39 57/6/39 22/6/39
f 57/6/39 58/5/39 59/4/39
f 57/6/39 59/4/39 60/3/39
f 57/6/39 60/3/39 61/4/39
f 57/6/39 61/4/39 62/5/39
f 65/12/39 64/6/39 63/6/39
f 64/6/39 65/12/39 66/11/39
f 64/6/39 66/11/39 67/10/39
f 64/6/39 67/10/39 68/11/39
f 64/6/39 68/11/39 69/12/39
f 72/9/39 71/6/39 70/6/39
f 71/6/39 72/9/39 73/8/39
f 71/6/39 73/8/39 74/7/39
f 71/6/39 74/7/39 75/8/39
f 71/6/39 75/8/39 76/9/39
f 79/8/40 78/8/40 77/7/40
f 78/8/40 79/8/40 80/9/40
f 78/8/40 80/9/40 81/9/40
f 81/9/40 80/9/40 82/6/40
f 81/9/40 82/6/40 83/6/40
f 86/4/40 85/4/40 84/3/40
f 85/4/40 86/4/40 87/5/40
f 85/4/40 87/5/40 88/5/40
f 88/5/40 87/5/40 89/6/40
f 88/5/40 89/6/40 20/6/40
f 92/11/40 91/11/40 90/10/40
f 91/11/40 92/11/40 93/12/40
f 91/11/40 93/12/40 94/12/40
f 94/12/40 93/12/40 95/6/40
f 94/12/40 95/6/40 96/6/40
f 15/6/41 98/5/41 97/6/41
f 98/5/41 15/6/41 99/4/41
f 99/4/41 15/6/41 100/3/41
f 100/3/41 15/6/41 101/4/41
f 101/4/41 15/6/41 102/5/41
f 105/6/41 104/12/41 103/6/41
f 104/12/41 105/6/41 106/11/41
f 106/11/41 105/6/41 107/10/41
f 107/10/41 105/6/41 108/11/41
f 108/11/41 105/6/41 109/12/41
f 112/6/41 111/9/41 110/6/41
f 111/9/41 112/6/41 113/8/41
f 113/8/41 112/6/41 114/7/41
f 114/7/41 112/6/41 115/8/41
f 115/8/41 112/6/41 116/9/41
f 119/14/42 118/13/19 117/13/42
f 118/13/19 119/14/42 120/14/19
f 123/13/43 122/14/10 121/13/10
f 122/14/10 123/13/43 124/14/43
f 127/14/16 126/13/44 125/13/16
f 126/13/44 127/14/16 128/14/44
f 128/14/44 129/13/45 126/13/44
f 129/13/45 128/14/44 130/14/45
f 125/13/46 132/13/46 131/13/46
f 132/13/46 125/13/46 118/13/46
f 118/13/46 125/13/46 126/13/46
f 118/13/46 126/13/46 117/13/46
f 117/13/46 126/13/46 129/13/46
f 117/13/46 129/13/46 133/13/46
f 133/13/46 129/13/46 134/13/46
f 133/13/46 134/13/46 121/13/46
f 121/13/46 134/13/46 135/13/46
f 121/13/46 135/13/46 123/13/46
f 136/14/47 117/13/42 133/13/47
f 117/13/42 136/14/47 119/14/42
f 130/14/45 134/13/25 129/13/45
f 134/13/25 130/14/45 137/14/25
f 127/14/16 131/13/48 138/14/48
f 131/13/48 127/14/16 125/13/16
f 135/13/49 124/14/43 123/13/43
f 124/14/43 135/13/49 139/14/49
f 134/13/25 139/14/49 135/13/49
f 139/14/49 134/13/25 137/14/25
f 138/14/48 132/13/50 140/14/50
f 132/13/50 138/14/48 131/13/48
f 122/14/10 133/13/47 121/13/10
f 133/13/47 122/14/10 136/14/47
f 140/14/50 118/13/19 120/14/19
f 118/13/19 140/14/50 132/13/50

