# Created by Kenney (www.kenney.nl)

mtllib block-grass-overhang-low-large.mtl

g block-grass-overhang-low-large

v 1 0.5 0.7262501 1 1 1
v 0.9198205 0.5 0.9198205 1 1 1
v 1 0.5 -0.7262501 1 1 1
v 0.9198205 0.5 -0.9198205 1 1 1
v 0.7262501 0.5 1 1 1 1
v 0.7262501 0.5 -1 1 1 1
v -0.7262501 0.5 1 1 1 1
v -0.7262501 0.5 -1 1 1 1
v -0.9198205 0.5 0.9198205 1 1 1
v -0.9198205 0.5 -0.9198205 1 1 1
v -1 0.5 0.7262501 1 1 1
v -1 0.5 -0.7262501 1 1 1
v 1.041062 0.375 -0.753625 1 1 1
v 1 0.25 -0.7262501 1 1 1
v 1.041062 0.375 0.753625 1 1 1
v 1 0.25 0.7262501 1 1 1
v -0.7262501 0.25 -1 1 1 1
v 0.7262501 0.25 -1 1 1 1
v -0.753625 0.375 -1.041062 1 1 1
v 0.753625 0.375 -1.041062 1 1 1
v -0.956874 0.375 -0.956874 1 1 1
v -1.041062 0.375 -0.753625 1 1 1
v -0.9198205 0.25 -0.9198205 1 1 1
v -1 0.25 -0.7262501 1 1 1
v 0.9198205 0.25 0.9198205 1 1 1
v 0.7262501 0.25 1 1 1 1
v 0.956874 0.375 0.956874 1 1 1
v 0.753625 0.375 1.041062 1 1 1
v 0.9198205 0.25 -0.9198205 1 1 1
v 0.956874 0.375 -0.956874 1 1 1
v -1.041062 0.375 0.753625 1 1 1
v -1 0.25 0.7262501 1 1 1
v -0.7262501 0.25 1 1 1 1
v -0.9198205 0.25 0.9198205 1 1 1
v -0.753625 0.375 1.041062 1 1 1
v -0.956874 0.375 0.956874 1 1 1
v 1.041062 0.1823882 0.6890328 1 1 1
v 1.041062 0.1002902 0.5024167 1 1 1
v 1.041062 0.1823882 0.3158005 1 1 1
v 1.041062 0.375 0.2512083 1 1 1
v 1.041062 0.1823882 0.1866161 1 1 1
v 1.041062 0.1002902 2.141554E-09 1 1 1
v 1.041062 0.1823882 -0.1866161 1 1 1
v 1.041062 0.375 -0.2512083 1 1 1
v 1.041062 0.1823882 -0.6890328 1 1 1
v 1.041062 0.1002902 -0.5024167 1 1 1
v 1.041062 0.1823882 -0.3158005 1 1 1
v 1.01829 0.1801452 0.8086026 1 1 1
v 0.956874 0.1002902 0.956874 1 1 1
v -3.761436E-13 0.1002902 1.041062 1 1 1
v -0.1866161 0.1823882 1.041062 1 1 1
v 0.1866161 0.1823882 1.041062 1 1 1
v -0.2512083 0.375 1.041062 1 1 1
v 0.2512083 0.375 1.041062 1 1 1
v 0.6890328 0.1823882 1.041062 1 1 1
v 0.3158005 0.1823882 1.041062 1 1 1
v 0.5024167 0.1002902 1.041062 1 1 1
v -0.6890328 0.1823882 1.041062 1 1 1
v -0.3158005 0.1823882 1.041062 1 1 1
v -0.5024167 0.1002902 1.041062 1 1 1
v 0.8086026 0.1801452 1.01829 1 1 1
v -1.01829 0.1801452 0.8086026 1 1 1
v -0.956874 0.1002902 0.956874 1 1 1
v -0.8086026 0.1801452 1.01829 1 1 1
v -1.041062 0.375 -0.2512083 1 1 1
v -1.041062 0.1823882 -0.6890328 1 1 1
v -1.041062 0.1002902 -0.5024167 1 1 1
v -1.041062 0.1823882 -0.3158005 1 1 1
v -1.041062 0.375 0.2512083 1 1 1
v -1.041062 0.1823882 -0.1866161 1 1 1
v -1.041062 0.1002902 -2.141559E-09 1 1 1
v -1.041062 0.1823882 0.1866161 1 1 1
v -1.041062 0.1823882 0.3158005 1 1 1
v -1.041062 0.1002902 0.5024167 1 1 1
v -1.041062 0.1823882 0.6890328 1 1 1
v -0.956874 0.1002902 -0.956874 1 1 1
v -1.01829 0.1801452 -0.8086026 1 1 1
v 4.282712E-09 0.1002902 -1.041062 1 1 1
v 0.1866161 0.1823882 -1.041062 1 1 1
v -0.1866161 0.1823882 -1.041062 1 1 1
v 0.2512083 0.375 -1.041062 1 1 1
v -0.2512083 0.375 -1.041062 1 1 1
v -0.6890328 0.1823882 -1.041062 1 1 1
v -0.3158005 0.1823882 -1.041062 1 1 1
v -0.5024167 0.1002902 -1.041062 1 1 1
v 0.6890328 0.1823882 -1.041062 1 1 1
v 0.3158005 0.1823882 -1.041062 1 1 1
v 0.5024167 0.1002902 -1.041062 1 1 1
v 0.956874 0.1002902 -0.956874 1 1 1
v 1.01829 0.1801452 -0.8086026 1 1 1
v 0.8086026 0.1801452 -1.01829 1 1 1
v -0.8086026 0.1801452 -1.01829 1 1 1
v 0.7262501 1.219735E-31 -1 1 1 1
v 0.9198205 1.219735E-31 -0.9198205 1 1 1
v 0.7262501 0.25 -1 1 1 1
v 0.9198205 0.25 -0.9198205 1 1 1
v -0.9198205 1.219735E-31 -0.9198205 1 1 1
v -0.9198205 0.25 -0.9198205 1 1 1
v -1 1.219735E-31 -0.7262501 1 1 1
v -1 0.25 -0.7262501 1 1 1
v 0.9198205 0 0.9198205 1 1 1
v 0.7262501 0 1 1 1 1
v 0.9198205 0.25 0.9198205 1 1 1
v 0.7262501 0.25 1 1 1 1
v -0.7262501 0 1 1 1 1
v -0.7262501 0.25 1 1 1 1
v 1 0 0.7262501 1 1 1
v 1 1.219735E-31 -0.7262501 1 1 1
v -0.7262501 1.219735E-31 -1 1 1 1
v -0.9198205 0 0.9198205 1 1 1
v -1 0 0.7262501 1 1 1
v -0.7262501 0.25 -1 1 1 1
v -0.9198205 0.25 0.9198205 1 1 1
v 1 0.25 0.7262501 1 1 1
v -1 0.25 0.7262501 1 1 1
v 1 0.25 -0.7262501 1 1 1

vn 0 1 0
vn 0.9774452 0 -0.2111887
vn 0.9254633 -0.3404191 -0.16623
vn 0.9774452 0 0.2111887
vn 0.9254633 -0.3404191 0.16623
vn -0.16623 -0.3404191 -0.9254633
vn 0.16623 -0.3404191 -0.9254633
vn -0.2111887 0 -0.9774452
vn 0.2111887 0 -0.9774452
vn -0.7071068 0 -0.7071068
vn -0.9774452 0 -0.2111887
vn -0.652123 -0.3866153 -0.652123
vn -0.9254633 -0.3404191 -0.16623
vn 0.652123 -0.3866153 0.652123
vn 0.16623 -0.3404191 0.9254633
vn 0.7071068 0 0.7071068
vn 0.2111887 0 0.9774452
vn 0.652123 -0.3866153 -0.652123
vn 0.7071068 0 -0.7071068
vn -0.9774452 0 0.2111887
vn -0.9254633 -0.3404191 0.16623
vn -0.16623 -0.3404191 0.9254633
vn -0.652123 -0.3866153 0.652123
vn -0.2111887 0 0.9774452
vn -0.7071068 0 0.7071068
vn -0.9254633 0.3404191 -0.16623
vn -0.9254633 0.3404191 0.16623
vn -0.652123 0.3866153 0.652123
vn -0.16623 0.3404191 0.9254633
vn 0.16623 0.3404191 0.9254633
vn 0.9254633 0.3404191 -0.16623
vn 0.9254633 0.3404191 0.16623
vn 0.16623 0.3404191 -0.9254633
vn 0.652123 0.3866153 -0.652123
vn -0.16623 0.3404191 -0.9254633
vn -0.652123 0.3866153 -0.652123
vn 0.652123 0.3866153 0.652123
vn 1 0 0
vn 0.9238795 0 0.3826834
vn 0 0 1
vn 0.3826834 0 0.9238795
vn -0.9238795 0 0.3826834
vn -0.3826834 0 0.9238795
vn -1 0 0
vn -0.9238795 0 -0.3826834
vn 0 0 -1
vn 0.9238795 0 -0.3826834
vn 0.3826834 0 -0.9238795
vn -0.3826834 0 -0.9238795
vn 0.1950903 0 -0.9807853
vn -0.9807853 0 -0.1950903
vn 0.1950903 0 0.9807853
vn -0.1950903 0 0.9807853
vn 0 -1 0
vn -0.1950903 0 -0.9807853
vn 0.9807853 0 0.1950903
vn -0.9807853 0 0.1950903
vn 0.9807853 0 -0.1950903

vt 0.96875 0.475
vt 0.96875 0.375
vt 0.96875 0.275
vt 0.96875 0.2989083
vt 0.96875 0.355
vt 0.96875 0.2982551
vt 0.46875 0.475
vt 0.46875 0.275

usemtl colormap

f 3/1/1 2/1/1 1/1/1
f 2/1/1 3/1/1 4/1/1
f 2/1/1 4/1/1 5/1/1
f 5/1/1 4/1/1 6/1/1
f 5/1/1 6/1/1 7/1/1
f 7/1/1 6/1/1 8/1/1
f 7/1/1 8/1/1 9/1/1
f 9/1/1 8/1/1 10/1/1
f 9/1/1 10/1/1 11/1/1
f 11/1/1 10/1/1 12/1/1
f 15/2/4 14/3/3 13/2/2
f 14/3/3 15/2/4 16/3/5
f 19/2/8 18/3/7 17/3/6
f 18/3/7 19/2/8 20/2/9
f 23/3/12 22/2/11 21/2/10
f 22/2/11 23/3/12 24/3/13
f 27/2/16 26/3/15 25/3/14
f 26/3/15 27/2/16 28/2/17
f 20/2/9 29/3/18 18/3/7
f 29/3/18 20/2/9 30/2/19
f 24/3/13 31/2/20 22/2/11
f 31/2/20 24/3/13 32/3/21
f 35/2/24 34/3/23 33/3/22
f 34/3/23 35/2/24 36/2/25
f 26/3/15 35/2/24 33/3/22
f 35/2/24 26/3/15 28/2/17
f 21/2/10 17/3/6 23/3/12
f 17/3/6 21/2/10 19/2/8
f 34/3/23 31/2/20 32/3/21
f 31/2/20 34/3/23 36/2/25
f 13/2/2 29/3/18 30/2/19
f 29/3/18 13/2/2 14/3/3
f 15/2/4 25/3/14 16/3/5
f 25/3/14 15/2/4 27/2/16
f 31/2/20 12/1/26 22/2/11
f 12/1/26 31/2/20 11/1/27
f 31/2/20 9/1/28 11/1/27
f 9/1/28 31/2/20 36/2/25
f 7/1/29 36/2/25 35/2/24
f 36/2/25 7/1/29 9/1/28
f 28/2/17 7/1/29 35/2/24
f 7/1/29 28/2/17 5/1/30
f 3/1/31 15/2/4 13/2/2
f 15/2/4 3/1/31 1/1/32
f 6/1/33 30/2/19 20/2/9
f 30/2/19 6/1/33 4/1/34
f 8/1/35 20/2/9 19/2/8
f 20/2/9 8/1/35 6/1/33
f 4/1/34 13/2/2 30/2/19
f 13/2/2 4/1/34 3/1/31
f 10/1/36 19/2/8 21/2/10
f 19/2/8 10/1/36 8/1/35
f 22/2/11 10/1/36 21/2/10
f 10/1/36 22/2/11 12/1/26
f 2/1/37 28/2/17 27/2/16
f 28/2/17 2/1/37 5/1/30
f 2/1/37 15/2/4 1/1/32
f 15/2/4 2/1/37 27/2/16
f 38/3/38 15/5/38 37/4/38
f 39/4/38 15/5/38 38/3/38
f 15/5/38 39/4/38 40/5/38
f 42/3/38 40/5/38 41/4/38
f 43/4/38 40/5/38 42/3/38
f 40/5/38 43/4/38 44/5/38
f 44/5/38 45/4/38 13/5/38
f 45/4/38 44/5/38 46/3/38
f 46/3/38 44/5/38 47/4/38
f 27/5/16 48/6/39 15/5/39
f 48/6/39 27/5/16 49/3/16
f 52/4/40 51/4/40 50/3/40
f 51/4/40 52/4/40 53/5/40
f 53/5/40 52/4/40 54/5/40
f 54/5/40 55/4/40 28/5/40
f 56/4/40 55/4/40 54/5/40
f 55/4/40 56/4/40 57/3/40
f 58/4/40 53/5/40 35/5/40
f 58/4/40 59/4/40 53/5/40
f 59/4/40 58/4/40 60/3/40
f 27/5/16 61/6/41 49/3/16
f 61/6/41 27/5/16 28/5/41
f 62/6/42 36/5/25 31/5/42
f 36/5/25 62/6/42 63/3/25
f 64/6/43 36/5/25 63/3/25
f 36/5/25 64/6/43 35/5/43
f 66/4/44 65/5/44 22/5/44
f 65/5/44 66/4/44 67/3/44
f 65/5/44 67/3/44 68/4/44
f 70/4/44 69/5/44 65/5/44
f 69/5/44 70/4/44 71/3/44
f 69/5/44 71/3/44 72/4/44
f 73/4/44 31/5/44 69/5/44
f 31/5/44 73/4/44 74/3/44
f 31/5/44 74/3/44 75/4/44
f 76/3/10 22/5/45 21/5/10
f 22/5/45 76/3/10 77/6/45
f 80/4/46 79/4/46 78/3/46
f 79/4/46 80/4/46 81/5/46
f 81/5/46 80/4/46 82/5/46
f 82/5/46 83/4/46 19/5/46
f 84/4/46 83/4/46 82/5/46
f 83/4/46 84/4/46 85/3/46
f 86/4/46 81/5/46 20/5/46
f 86/4/46 87/4/46 81/5/46
f 87/4/46 86/4/46 88/3/46
f 13/5/47 89/3/19 30/5/19
f 89/3/19 13/5/47 90/6/47
f 91/6/48 30/5/19 89/3/19
f 30/5/19 91/6/48 20/5/48
f 21/5/10 92/6/49 76/3/10
f 92/6/49 21/5/10 19/5/49
f 95/8/50 94/7/19 93/7/50
f 94/7/19 95/8/50 96/8/19
f 99/7/51 98/8/10 97/7/10
f 98/8/10 99/7/51 100/8/51
f 103/8/16 102/7/52 101/7/16
f 102/7/52 103/8/16 104/8/52
f 102/7/52 106/8/53 105/7/53
f 106/8/53 102/7/52 104/8/52
f 101/7/54 108/7/54 107/7/54
f 108/7/54 101/7/54 94/7/54
f 94/7/54 101/7/54 102/7/54
f 94/7/54 102/7/54 93/7/54
f 93/7/54 102/7/54 105/7/54
f 93/7/54 105/7/54 109/7/54
f 109/7/54 105/7/54 110/7/54
f 109/7/54 110/7/54 97/7/54
f 97/7/54 110/7/54 111/7/54
f 97/7/54 111/7/54 99/7/54
f 112/8/55 93/7/50 109/7/55
f 93/7/50 112/8/55 95/8/50
f 106/8/53 110/7/25 105/7/53
f 110/7/25 106/8/53 113/8/25
f 103/8/16 107/7/56 114/8/56
f 107/7/56 103/8/16 101/7/16
f 111/7/57 100/8/51 99/7/51
f 100/8/51 111/7/57 115/8/57
f 110/7/25 115/8/57 111/7/57
f 115/8/57 110/7/25 113/8/25
f 114/8/56 108/7/58 116/8/58
f 108/7/58 114/8/56 107/7/56
f 98/8/10 109/7/55 97/7/10
f 109/7/55 98/8/10 112/8/55
f 116/8/58 94/7/19 96/8/19
f 94/7/19 116/8/58 108/7/58

g block-grass-overhang-low-large




usemtl colormap

f 3/1/1 2/1/1 1/1/1
f 2/1/1 3/1/1 4/1/1
f 2/1/1 4/1/1 5/1/1
f 5/1/1 4/1/1 6/1/1
f 5/1/1 6/1/1 7/1/1
f 7/1/1 6/1/1 8/1/1
f 7/1/1 8/1/1 9/1/1
f 9/1/1 8/1/1 10/1/1
f 9/1/1 10/1/1 11/1/1
f 11/1/1 10/1/1 12/1/1
f 15/2/4 14/3/3 13/2/2
f 14/3/3 15/2/4 16/3/5
f 19/2/8 18/3/7 17/3/6
f 18/3/7 19/2/8 20/2/9
f 23/3/12 22/2/11 21/2/10
f 22/2/11 23/3/12 24/3/13
f 27/2/16 26/3/15 25/3/14
f 26/3/15 27/2/16 28/2/17
f 20/2/9 29/3/18 18/3/7
f 29/3/18 20/2/9 30/2/19
f 24/3/13 31/2/20 22/2/11
f 31/2/20 24/3/13 32/3/21
f 35/2/24 34/3/23 33/3/22
f 34/3/23 35/2/24 36/2/25
f 26/3/15 35/2/24 33/3/22
f 35/2/24 26/3/15 28/2/17
f 21/2/10 17/3/6 23/3/12
f 17/3/6 21/2/10 19/2/8
f 34/3/23 31/2/20 32/3/21
f 31/2/20 34/3/23 36/2/25
f 13/2/2 29/3/18 30/2/19
f 29/3/18 13/2/2 14/3/3
f 15/2/4 25/3/14 16/3/5
f 25/3/14 15/2/4 27/2/16
f 31/2/20 12/1/26 22/2/11
f 12/1/26 31/2/20 11/1/27
f 31/2/20 9/1/28 11/1/27
f 9/1/28 31/2/20 36/2/25
f 7/1/29 36/2/25 35/2/24
f 36/2/25 7/1/29 9/1/28
f 28/2/17 7/1/29 35/2/24
f 7/1/29 28/2/17 5/1/30
f 3/1/31 15/2/4 13/2/2
f 15/2/4 3/1/31 1/1/32
f 6/1/33 30/2/19 20/2/9
f 30/2/19 6/1/33 4/1/34
f 8/1/35 20/2/9 19/2/8
f 20/2/9 8/1/35 6/1/33
f 4/1/34 13/2/2 30/2/19
f 13/2/2 4/1/34 3/1/31
f 10/1/36 19/2/8 21/2/10
f 19/2/8 10/1/36 8/1/35
f 22/2/11 10/1/36 21/2/10
f 10/1/36 22/2/11 12/1/26
f 2/1/37 28/2/17 27/2/16
f 28/2/17 2/1/37 5/1/30
f 2/1/37 15/2/4 1/1/32
f 15/2/4 2/1/37 27/2/16
f 38/3/38 15/5/38 37/4/38
f 39/4/38 15/5/38 38/3/38
f 15/5/38 39/4/38 40/5/38
f 42/3/38 40/5/38 41/4/38
f 43/4/38 40/5/38 42/3/38
f 40/5/38 43/4/38 44/5/38
f 44/5/38 45/4/38 13/5/38
f 45/4/38 44/5/38 46/3/38
f 46/3/38 44/5/38 47/4/38
f 27/5/16 48/6/39 15/5/39
f 48/6/39 27/5/16 49/3/16
f 52/4/40 51/4/40 50/3/40
f 51/4/40 52/4/40 53/5/40
f 53/5/40 52/4/40 54/5/40
f 54/5/40 55/4/40 28/5/40
f 56/4/40 55/4/40 54/5/40
f 55/4/40 56/4/40 57/3/40
f 58/4/40 53/5/40 35/5/40
f 58/4/40 59/4/40 53/5/40
f 59/4/40 58/4/40 60/3/40
f 27/5/16 61/6/41 49/3/16
f 61/6/41 27/5/16 28/5/41
f 62/6/42 36/5/25 31/5/42
f 36/5/25 62/6/42 63/3/25
f 64/6/43 36/5/25 63/3/25
f 36/5/25 64/6/43 35/5/43
f 66/4/44 65/5/44 22/5/44
f 65/5/44 66/4/44 67/3/44
f 65/5/44 67/3/44 68/4/44
f 70/4/44 69/5/44 65/5/44
f 69/5/44 70/4/44 71/3/44
f 69/5/44 71/3/44 72/4/44
f 73/4/44 31/5/44 69/5/44
f 31/5/44 73/4/44 74/3/44
f 31/5/44 74/3/44 75/4/44
f 76/3/10 22/5/45 21/5/10
f 22/5/45 76/3/10 77/6/45
f 80/4/46 79/4/46 78/3/46
f 79/4/46 80/4/46 81/5/46
f 81/5/46 80/4/46 82/5/46
f 82/5/46 83/4/46 19/5/46
f 84/4/46 83/4/46 82/5/46
f 83/4/46 84/4/46 85/3/46
f 86/4/46 81/5/46 20/5/46
f 86/4/46 87/4/46 81/5/46
f 87/4/46 86/4/46 88/3/46
f 13/5/47 89/3/19 30/5/19
f 89/3/19 13/5/47 90/6/47
f 91/6/48 30/5/19 89/3/19
f 30/5/19 91/6/48 20/5/48
f 21/5/10 92/6/49 76/3/10
f 92/6/49 21/5/10 19/5/49
f 95/8/50 94/7/19 93/7/50
f 94/7/19 95/8/50 96/8/19
f 99/7/51 98/8/10 97/7/10
f 98/8/10 99/7/51 100/8/51
f 103/8/16 102/7/52 101/7/16
f 102/7/52 103/8/16 104/8/52
f 102/7/52 106/8/53 105/7/53
f 106/8/53 102/7/52 104/8/52
f 101/7/54 108/7/54 107/7/54
f 108/7/54 101/7/54 94/7/54
f 94/7/54 101/7/54 102/7/54
f 94/7/54 102/7/54 93/7/54
f 93/7/54 102/7/54 105/7/54
f 93/7/54 105/7/54 109/7/54
f 109/7/54 105/7/54 110/7/54
f 109/7/54 110/7/54 97/7/54
f 97/7/54 110/7/54 111/7/54
f 97/7/54 111/7/54 99/7/54
f 112/8/55 93/7/50 109/7/55
f 93/7/50 112/8/55 95/8/50
f 106/8/53 110/7/25 105/7/53
f 110/7/25 106/8/53 113/8/25
f 103/8/16 107/7/56 114/8/56
f 107/7/56 103/8/16 101/7/16
f 111/7/57 100/8/51 99/7/51
f 100/8/51 111/7/57 115/8/57
f 110/7/25 115/8/57 111/7/57
f 115/8/57 110/7/25 113/8/25
f 114/8/56 108/7/58 116/8/58
f 108/7/58 114/8/56 107/7/56
f 98/8/10 109/7/55 97/7/10
f 109/7/55 98/8/10 112/8/55
f 116/8/58 94/7/19 96/8/19
f 94/7/19 116/8/58 108/7/58

