# Created by Kenney (www.kenney.nl)

mtllib block-grass-overhang-low-narrow.mtl

g block-grass-overhang-low-narrow

v 0.35 0.5 -0.07625 1 1 1
v 0.35 0.5 0.07625 1 1 1
v 0.2698205 0.5 -0.2698205 1 1 1
v 0.2698205 0.5 0.2698205 1 1 1
v 0.07625 0.5 0.35 1 1 1
v 0.07625 0.5 -0.35 1 1 1
v -0.07625 0.5 -0.35 1 1 1
v -0.07625 0.5 0.35 1 1 1
v -0.2698205 0.5 -0.2698205 1 1 1
v -0.2698205 0.5 0.2698205 1 1 1
v -0.35 0.5 0.07625 1 1 1
v -0.35 0.5 -0.07625 1 1 1
v 0.3910625 0.375 -0.103625 1 1 1
v 0.35 0.25 -0.07625 1 1 1
v 0.3910625 0.375 0.103625 1 1 1
v 0.35 0.25 0.07625 1 1 1
v -0.07625 0.25 -0.35 1 1 1
v 0.07625 0.25 -0.35 1 1 1
v -0.103625 0.375 -0.3910625 1 1 1
v 0.103625 0.375 -0.3910625 1 1 1
v -0.306874 0.375 -0.306874 1 1 1
v -0.3910625 0.375 -0.103625 1 1 1
v -0.2698205 0.25 -0.2698205 1 1 1
v -0.35 0.25 -0.07625 1 1 1
v 0.2698205 0.25 0.2698205 1 1 1
v 0.07625 0.25 0.35 1 1 1
v 0.306874 0.375 0.306874 1 1 1
v 0.103625 0.375 0.3910625 1 1 1
v 0.2698205 0.25 -0.2698205 1 1 1
v 0.306874 0.375 -0.306874 1 1 1
v -0.3910625 0.375 0.103625 1 1 1
v -0.35 0.25 0.07625 1 1 1
v -0.07625 0.25 0.35 1 1 1
v -0.2698205 0.25 0.2698205 1 1 1
v -0.103625 0.375 0.3910625 1 1 1
v -0.306874 0.375 0.306874 1 1 1
v -0.306874 0.1002902 -0.306874 1 1 1
v -0.1586026 0.1801452 -0.36829 1 1 1
v -0.103625 0.375 -0.3910625 1 1 1
v -0.3910625 0.375 -0.103625 1 1 1
v -0.36829 0.1801452 -0.1586026 1 1 1
v -0.3910625 0.375 0.103625 1 1 1
v -0.36829 0.1801452 0.1586026 1 1 1
v -0.306874 0.1002902 0.306874 1 1 1
v -0.1586026 0.1801452 0.36829 1 1 1
v -0.103625 0.375 0.3910625 1 1 1
v 0.306874 0.1002902 0.306874 1 1 1
v 0.1586026 0.1801452 0.36829 1 1 1
v 0.306874 0.375 0.306874 1 1 1
v 0.103625 0.375 0.3910625 1 1 1
v 0.306874 0.1002902 -0.306874 1 1 1
v 0.306874 0.375 -0.306874 1 1 1
v 0.1586026 0.1801452 -0.36829 1 1 1
v 0.103625 0.375 -0.3910625 1 1 1
v 0.3910625 0.375 0.103625 1 1 1
v 0.3682901 0.1801452 0.1586026 1 1 1
v 0.3910625 0.375 -0.103625 1 1 1
v 0.3682901 0.1801452 -0.1586026 1 1 1
v 1.490116E-08 0.2101741 0.3910625 1 1 1
v -0.07698032 0.2594329 0.3910625 1 1 1
v 0.07698032 0.2594329 0.3910625 1 1 1
v 0.3910626 0.2594329 -0.07698031 1 1 1
v 0.3910626 0.2101741 0 1 1 1
v 0.3910625 0.2594329 0.07698034 1 1 1
v 1.490116E-08 0.2101741 -0.3910625 1 1 1
v 0.07698032 0.2594329 -0.3910625 1 1 1
v -0.07698032 0.2594329 -0.3910625 1 1 1
v -0.3910625 0.2594329 -0.07698033 1 1 1
v -0.3910625 0.2101741 0 1 1 1
v -0.3910625 0.2594329 0.07698031 1 1 1
v 0.07625 -4.388118E-32 -0.35 1 1 1
v 0.2698205 -4.388118E-32 -0.2698205 1 1 1
v 0.07625 0.2594329 -0.35 1 1 1
v 0.2698205 0.2594329 -0.2698205 1 1 1
v -0.2698205 -4.388118E-32 -0.2698205 1 1 1
v -0.2698205 0.2594329 -0.2698205 1 1 1
v -0.35 -4.388118E-32 -0.07625 1 1 1
v -0.35 0.2594329 -0.07625 1 1 1
v 0.2698205 -4.388118E-32 0.2698205 1 1 1
v 0.07625 -4.388118E-32 0.35 1 1 1
v 0.2698205 0.2594329 0.2698205 1 1 1
v 0.07625 0.2594329 0.35 1 1 1
v -0.07625 -4.388118E-32 0.35 1 1 1
v -0.07625 0.2594329 0.35 1 1 1
v 0.35 -4.388118E-32 0.07625 1 1 1
v 0.35 -4.388118E-32 -0.07625 1 1 1
v -0.07625 -4.388118E-32 -0.35 1 1 1
v -0.2698205 -4.388118E-32 0.2698205 1 1 1
v -0.35 -4.388118E-32 0.07625 1 1 1
v -0.07625 0.2594329 -0.35 1 1 1
v -0.2698205 0.2594329 0.2698205 1 1 1
v 0.35 0.2594329 0.07625 1 1 1
v -0.35 0.2594329 0.07625 1 1 1
v 0.35 0.2594329 -0.07625 1 1 1

vn 0 1 0
vn 0.9774452 0 -0.2111887
vn 0.9254633 -0.3404191 -0.16623
vn 0.9774452 0 0.2111887
vn 0.9254633 -0.3404191 0.16623
vn -0.16623 -0.3404191 -0.9254633
vn 0.16623 -0.3404191 -0.9254633
vn -0.2111887 0 -0.9774452
vn 0.2111887 0 -0.9774452
vn -0.7071068 0 -0.7071068
vn -0.9774452 0 -0.2111887
vn -0.652123 -0.3866153 -0.652123
vn -0.9254633 -0.3404191 -0.16623
vn 0.652123 -0.3866153 0.652123
vn 0.16623 -0.3404191 0.9254633
vn 0.7071068 0 0.7071068
vn 0.2111887 0 0.9774452
vn 0.652123 -0.3866153 -0.652123
vn 0.7071068 0 -0.7071068
vn -0.9774452 0 0.2111887
vn -0.9254633 -0.3404191 0.16623
vn -0.16623 -0.3404191 0.9254633
vn -0.652123 -0.3866153 0.652123
vn -0.2111887 0 0.9774452
vn -0.7071068 0 0.7071068
vn -0.9254633 0.3404191 -0.16623
vn -0.9254633 0.3404191 0.16623
vn -0.652123 0.3866153 0.652123
vn -0.16623 0.3404191 0.9254633
vn 0.16623 0.3404191 0.9254633
vn 0.9254633 0.3404191 -0.16623
vn 0.9254633 0.3404191 0.16623
vn 0.16623 0.3404191 -0.9254633
vn 0.652123 0.3866153 -0.652123
vn -0.16623 0.3404191 -0.9254633
vn -0.652123 0.3866153 -0.652123
vn 0.652123 0.3866153 0.652123
vn -0.3826834 0 -0.9238795
vn -0.9238795 0 -0.3826834
vn -0.9238795 0 0.3826834
vn -0.3826834 0 0.9238795
vn 0.7071067 0 0.7071068
vn 0.3826834 0 0.9238795
vn 0.7071068 0 -0.7071067
vn 0.3826834 0 -0.9238795
vn 0.9238795 0 0.3826834
vn 0.9238795 0 -0.3826834
vn 0 0 1
vn 1 0 0
vn 0 0 -1
vn -1 0 0
vn 0.1950903 0 -0.9807853
vn -0.9807853 0 -0.1950903
vn 0.1950903 0 0.9807853
vn -0.1950903 0 0.9807853
vn 0 -1 0
vn -0.1950903 0 -0.9807853
vn 0.9807853 0 0.1950903
vn -0.9807853 0 0.1950903
vn 0.9807853 0 -0.1950903

vt 0.96875 0.475
vt 0.96875 0.375
vt 0.96875 0.275
vt 0.96875 0.2982551
vt 0.96875 0.355
vt 0.96875 0.307
vt 0.96875 0.321345
vt 0.46875 0.475
vt 0.46875 0.275

usemtl colormap

f 3/1/1 2/1/1 1/1/1
f 2/1/1 3/1/1 4/1/1
f 4/1/1 3/1/1 5/1/1
f 5/1/1 3/1/1 6/1/1
f 5/1/1 6/1/1 7/1/1
f 5/1/1 7/1/1 8/1/1
f 8/1/1 7/1/1 9/1/1
f 8/1/1 9/1/1 10/1/1
f 10/1/1 9/1/1 11/1/1
f 11/1/1 9/1/1 12/1/1
f 15/2/4 14/3/3 13/2/2
f 14/3/3 15/2/4 16/3/5
f 19/2/8 18/3/7 17/3/6
f 18/3/7 19/2/8 20/2/9
f 23/3/12 22/2/11 21/2/10
f 22/2/11 23/3/12 24/3/13
f 27/2/16 26/3/15 25/3/14
f 26/3/15 27/2/16 28/2/17
f 20/2/9 29/3/18 18/3/7
f 29/3/18 20/2/9 30/2/19
f 24/3/13 31/2/20 22/2/11
f 31/2/20 24/3/13 32/3/21
f 35/2/24 34/3/23 33/3/22
f 34/3/23 35/2/24 36/2/25
f 28/2/17 33/3/22 26/3/15
f 33/3/22 28/2/17 35/2/24
f 21/2/10 17/3/6 23/3/12
f 17/3/6 21/2/10 19/2/8
f 34/3/23 31/2/20 32/3/21
f 31/2/20 34/3/23 36/2/25
f 13/2/2 29/3/18 30/2/19
f 29/3/18 13/2/2 14/3/3
f 15/2/4 25/3/14 16/3/5
f 25/3/14 15/2/4 27/2/16
f 31/2/20 12/1/26 22/2/11
f 12/1/26 31/2/20 11/1/27
f 31/2/20 10/1/28 11/1/27
f 10/1/28 31/2/20 36/2/25
f 8/1/29 36/2/25 35/2/24
f 36/2/25 8/1/29 10/1/28
f 28/2/17 8/1/29 35/2/24
f 8/1/29 28/2/17 5/1/30
f 1/1/31 15/2/4 13/2/2
f 15/2/4 1/1/31 2/1/32
f 6/1/33 30/2/19 20/2/9
f 30/2/19 6/1/33 3/1/34
f 7/1/35 20/2/9 19/2/8
f 20/2/9 7/1/35 6/1/33
f 3/1/34 13/2/2 30/2/19
f 13/2/2 3/1/34 1/1/31
f 9/1/36 19/2/8 21/2/10
f 19/2/8 9/1/36 7/1/35
f 22/2/11 9/1/36 21/2/10
f 9/1/36 22/2/11 12/1/26
f 4/1/37 28/2/17 27/2/16
f 28/2/17 4/1/37 5/1/30
f 4/1/37 15/2/4 2/1/32
f 15/2/4 4/1/37 27/2/16
f 21/5/10 38/4/38 37/3/10
f 38/4/38 21/5/10 39/5/38
f 37/3/10 40/5/39 21/5/10
f 40/5/39 37/3/10 41/4/39
f 43/4/40 36/5/25 42/5/40
f 36/5/25 43/4/40 44/3/25
f 45/4/41 36/5/25 44/3/25
f 36/5/25 45/4/41 46/5/41
f 49/5/42 48/4/43 47/3/42
f 48/4/43 49/5/42 50/5/43
f 53/4/45 52/5/44 51/3/44
f 52/5/44 53/4/45 54/5/45
f 49/5/42 56/4/46 55/5/46
f 56/4/46 49/5/42 47/3/42
f 57/5/47 51/3/44 52/5/44
f 51/3/44 57/5/47 58/4/47
f 61/7/48 60/7/48 59/6/48
f 60/7/48 61/7/48 46/5/48
f 46/5/48 61/7/48 50/5/48
f 55/5/49 62/7/49 57/5/49
f 62/7/49 55/5/49 63/6/49
f 63/6/49 55/5/49 64/7/49
f 67/7/50 66/7/50 65/6/50
f 66/7/50 67/7/50 54/5/50
f 54/5/50 67/7/50 39/5/50
f 68/7/51 42/5/51 40/5/51
f 42/5/51 68/7/51 69/6/51
f 42/5/51 69/6/51 70/7/51
f 73/9/52 72/8/19 71/8/52
f 72/8/19 73/9/52 74/9/19
f 77/8/53 76/9/10 75/8/10
f 76/9/10 77/8/53 78/9/53
f 81/9/16 80/8/54 79/8/16
f 80/8/54 81/9/16 82/9/54
f 82/9/54 83/8/55 80/8/54
f 83/8/55 82/9/54 84/9/55
f 79/8/56 86/8/56 85/8/56
f 86/8/56 79/8/56 72/8/56
f 72/8/56 79/8/56 80/8/56
f 72/8/56 80/8/56 71/8/56
f 71/8/56 80/8/56 83/8/56
f 71/8/56 83/8/56 87/8/56
f 87/8/56 83/8/56 88/8/56
f 87/8/56 88/8/56 75/8/56
f 75/8/56 88/8/56 89/8/56
f 75/8/56 89/8/56 77/8/56
f 90/9/57 71/8/52 87/8/57
f 71/8/52 90/9/57 73/9/52
f 84/9/55 88/8/25 83/8/55
f 88/8/25 84/9/55 91/9/25
f 81/9/16 85/8/58 92/9/58
f 85/8/58 81/9/16 79/8/16
f 89/8/59 78/9/53 77/8/53
f 78/9/53 89/8/59 93/9/59
f 88/8/25 93/9/59 89/8/59
f 93/9/59 88/8/25 91/9/25
f 92/9/58 86/8/60 94/9/60
f 86/8/60 92/9/58 85/8/58
f 76/9/10 87/8/57 75/8/10
f 87/8/57 76/9/10 90/9/57
f 94/9/60 72/8/19 74/9/19
f 72/8/19 94/9/60 86/8/60

g block-grass-overhang-low-narrow




usemtl colormap

f 3/1/1 2/1/1 1/1/1
f 2/1/1 3/1/1 4/1/1
f 4/1/1 3/1/1 5/1/1
f 5/1/1 3/1/1 6/1/1
f 5/1/1 6/1/1 7/1/1
f 5/1/1 7/1/1 8/1/1
f 8/1/1 7/1/1 9/1/1
f 8/1/1 9/1/1 10/1/1
f 10/1/1 9/1/1 11/1/1
f 11/1/1 9/1/1 12/1/1
f 15/2/4 14/3/3 13/2/2
f 14/3/3 15/2/4 16/3/5
f 19/2/8 18/3/7 17/3/6
f 18/3/7 19/2/8 20/2/9
f 23/3/12 22/2/11 21/2/10
f 22/2/11 23/3/12 24/3/13
f 27/2/16 26/3/15 25/3/14
f 26/3/15 27/2/16 28/2/17
f 20/2/9 29/3/18 18/3/7
f 29/3/18 20/2/9 30/2/19
f 24/3/13 31/2/20 22/2/11
f 31/2/20 24/3/13 32/3/21
f 35/2/24 34/3/23 33/3/22
f 34/3/23 35/2/24 36/2/25
f 28/2/17 33/3/22 26/3/15
f 33/3/22 28/2/17 35/2/24
f 21/2/10 17/3/6 23/3/12
f 17/3/6 21/2/10 19/2/8
f 34/3/23 31/2/20 32/3/21
f 31/2/20 34/3/23 36/2/25
f 13/2/2 29/3/18 30/2/19
f 29/3/18 13/2/2 14/3/3
f 15/2/4 25/3/14 16/3/5
f 25/3/14 15/2/4 27/2/16
f 31/2/20 12/1/26 22/2/11
f 12/1/26 31/2/20 11/1/27
f 31/2/20 10/1/28 11/1/27
f 10/1/28 31/2/20 36/2/25
f 8/1/29 36/2/25 35/2/24
f 36/2/25 8/1/29 10/1/28
f 28/2/17 8/1/29 35/2/24
f 8/1/29 28/2/17 5/1/30
f 1/1/31 15/2/4 13/2/2
f 15/2/4 1/1/31 2/1/32
f 6/1/33 30/2/19 20/2/9
f 30/2/19 6/1/33 3/1/34
f 7/1/35 20/2/9 19/2/8
f 20/2/9 7/1/35 6/1/33
f 3/1/34 13/2/2 30/2/19
f 13/2/2 3/1/34 1/1/31
f 9/1/36 19/2/8 21/2/10
f 19/2/8 9/1/36 7/1/35
f 22/2/11 9/1/36 21/2/10
f 9/1/36 22/2/11 12/1/26
f 4/1/37 28/2/17 27/2/16
f 28/2/17 4/1/37 5/1/30
f 4/1/37 15/2/4 2/1/32
f 15/2/4 4/1/37 27/2/16
f 21/5/10 38/4/38 37/3/10
f 38/4/38 21/5/10 39/5/38
f 37/3/10 40/5/39 21/5/10
f 40/5/39 37/3/10 41/4/39
f 43/4/40 36/5/25 42/5/40
f 36/5/25 43/4/40 44/3/25
f 45/4/41 36/5/25 44/3/25
f 36/5/25 45/4/41 46/5/41
f 49/5/42 48/4/43 47/3/42
f 48/4/43 49/5/42 50/5/43
f 53/4/45 52/5/44 51/3/44
f 52/5/44 53/4/45 54/5/45
f 49/5/42 56/4/46 55/5/46
f 56/4/46 49/5/42 47/3/42
f 57/5/47 51/3/44 52/5/44
f 51/3/44 57/5/47 58/4/47
f 61/7/48 60/7/48 59/6/48
f 60/7/48 61/7/48 46/5/48
f 46/5/48 61/7/48 50/5/48
f 55/5/49 62/7/49 57/5/49
f 62/7/49 55/5/49 63/6/49
f 63/6/49 55/5/49 64/7/49
f 67/7/50 66/7/50 65/6/50
f 66/7/50 67/7/50 54/5/50
f 54/5/50 67/7/50 39/5/50
f 68/7/51 42/5/51 40/5/51
f 42/5/51 68/7/51 69/6/51
f 42/5/51 69/6/51 70/7/51
f 73/9/52 72/8/19 71/8/52
f 72/8/19 73/9/52 74/9/19
f 77/8/53 76/9/10 75/8/10
f 76/9/10 77/8/53 78/9/53
f 81/9/16 80/8/54 79/8/16
f 80/8/54 81/9/16 82/9/54
f 82/9/54 83/8/55 80/8/54
f 83/8/55 82/9/54 84/9/55
f 79/8/56 86/8/56 85/8/56
f 86/8/56 79/8/56 72/8/56
f 72/8/56 79/8/56 80/8/56
f 72/8/56 80/8/56 71/8/56
f 71/8/56 80/8/56 83/8/56
f 71/8/56 83/8/56 87/8/56
f 87/8/56 83/8/56 88/8/56
f 87/8/56 88/8/56 75/8/56
f 75/8/56 88/8/56 89/8/56
f 75/8/56 89/8/56 77/8/56
f 90/9/57 71/8/52 87/8/57
f 71/8/52 90/9/57 73/9/52
f 84/9/55 88/8/25 83/8/55
f 88/8/25 84/9/55 91/9/25
f 81/9/16 85/8/58 92/9/58
f 85/8/58 81/9/16 79/8/16
f 89/8/59 78/9/53 77/8/53
f 78/9/53 89/8/59 93/9/59
f 88/8/25 93/9/59 89/8/59
f 93/9/59 88/8/25 91/9/25
f 92/9/58 86/8/60 94/9/60
f 86/8/60 92/9/58 85/8/58
f 76/9/10 87/8/57 75/8/10
f 87/8/57 76/9/10 90/9/57
f 94/9/60 72/8/19 74/9/19
f 72/8/19 94/9/60 86/8/60

