# Created by Kenney (www.kenney.nl)

mtllib block-grass-overhang-low.mtl

g block-grass-overhang-low

v 0.5000001 0.5 -0.22625 1 1 1
v 0.5000001 0.5 0.22625 1 1 1
v 0.4198205 0.5 -0.4198205 1 1 1
v 0.4198205 0.5 0.4198205 1 1 1
v 0.22625 0.5 0.5000001 1 1 1
v 0.22625 0.5 -0.5000001 1 1 1
v -0.22625 0.5 -0.5000001 1 1 1
v -0.22625 0.5 0.5000001 1 1 1
v -0.4198205 0.5 -0.4198205 1 1 1
v -0.4198205 0.5 0.4198205 1 1 1
v -0.5000001 0.5 0.22625 1 1 1
v -0.5000001 0.5 -0.22625 1 1 1
v 0.5410625 0.375 -0.253625 1 1 1
v 0.5000001 0.25 -0.22625 1 1 1
v 0.5410625 0.375 0.253625 1 1 1
v 0.5000001 0.25 0.22625 1 1 1
v -0.22625 0.25 -0.5000001 1 1 1
v 0.22625 0.25 -0.5000001 1 1 1
v -0.253625 0.375 -0.5410625 1 1 1
v 0.253625 0.375 -0.5410625 1 1 1
v -0.456874 0.375 -0.456874 1 1 1
v -0.5410625 0.375 -0.253625 1 1 1
v -0.4198205 0.25 -0.4198205 1 1 1
v -0.5000001 0.25 -0.22625 1 1 1
v 0.4198205 0.25 0.4198205 1 1 1
v 0.22625 0.25 0.5000001 1 1 1
v 0.456874 0.375 0.456874 1 1 1
v 0.253625 0.375 0.5410625 1 1 1
v 0.4198205 0.25 -0.4198205 1 1 1
v 0.456874 0.375 -0.456874 1 1 1
v -0.5410625 0.375 0.253625 1 1 1
v -0.5000001 0.25 0.22625 1 1 1
v -0.22625 0.25 0.5000001 1 1 1
v -0.4198205 0.25 0.4198205 1 1 1
v -0.253625 0.375 0.5410625 1 1 1
v -0.456874 0.375 0.456874 1 1 1
v -1.184171E-08 0.1002902 -0.5410625 1 1 1
v 0.1884114 0.1823882 -0.5410625 1 1 1
v -0.1884114 0.1823882 -0.5410625 1 1 1
v 0.253625 0.375 -0.5410625 1 1 1
v -0.456874 0.1002902 -0.456874 1 1 1
v -0.3086026 0.1801452 -0.51829 1 1 1
v -0.51829 0.1801452 -0.3086026 1 1 1
v -0.5410625 0.375 0.253625 1 1 1
v -0.51829 0.1801452 0.3086026 1 1 1
v -0.456874 0.1002902 0.456874 1 1 1
v -0.3086026 0.1801452 0.51829 1 1 1
v -0.5410625 0.1823882 -0.1884114 1 1 1
v -0.5410625 0.1002902 -7.558614E-09 1 1 1
v -0.5410625 0.1823882 0.1884114 1 1 1
v -1.184172E-08 0.1002902 0.5410625 1 1 1
v -0.1884114 0.1823882 0.5410625 1 1 1
v 0.1884114 0.1823882 0.5410625 1 1 1
v 0.253625 0.375 0.5410625 1 1 1
v 0.456874 0.1002902 0.456874 1 1 1
v 0.3086026 0.1801452 0.51829 1 1 1
v 0.456874 0.1002902 -0.456874 1 1 1
v 0.456874 0.375 -0.456874 1 1 1
v 0.3086026 0.1801452 -0.51829 1 1 1
v 0.51829 0.1801452 0.3086026 1 1 1
v 0.5410625 0.375 -0.253625 1 1 1
v 0.5410625 0.1823882 -0.1884114 1 1 1
v 0.5410625 0.1002902 1.612491E-08 1 1 1
v 0.5410625 0.1823882 0.1884114 1 1 1
v 0.51829 0.1801452 -0.3086026 1 1 1
v 0.22625 5.398336E-32 -0.5000001 1 1 1
v 0.4198205 5.398336E-32 -0.4198205 1 1 1
v 0.22625 0.25 -0.5000001 1 1 1
v 0.4198205 0.25 -0.4198205 1 1 1
v -0.4198205 5.398336E-32 -0.4198205 1 1 1
v -0.4198205 0.25 -0.4198205 1 1 1
v -0.5000001 5.398336E-32 -0.22625 1 1 1
v -0.5000001 0.25 -0.22625 1 1 1
v 0.4198205 0 0.4198205 1 1 1
v 0.22625 0 0.5000001 1 1 1
v 0.4198205 0.25 0.4198205 1 1 1
v 0.22625 0.25 0.5000001 1 1 1
v -0.22625 0 0.5000001 1 1 1
v -0.22625 0.25 0.5000001 1 1 1
v 0.5000001 0 0.22625 1 1 1
v 0.5000001 5.398336E-32 -0.22625 1 1 1
v -0.22625 5.398336E-32 -0.5000001 1 1 1
v -0.4198205 0 0.4198205 1 1 1
v -0.5000001 0 0.22625 1 1 1
v -0.22625 0.25 -0.5000001 1 1 1
v -0.4198205 0.25 0.4198205 1 1 1
v 0.5000001 0.25 0.22625 1 1 1
v -0.5000001 0.25 0.22625 1 1 1
v 0.5000001 0.25 -0.22625 1 1 1

vn 0 1 0
vn 0.9774452 0 -0.2111887
vn 0.9254633 -0.3404191 -0.16623
vn 0.9774452 0 0.2111887
vn 0.9254633 -0.3404191 0.16623
vn -0.16623 -0.3404191 -0.9254633
vn 0.16623 -0.3404191 -0.9254633
vn -0.2111887 0 -0.9774452
vn 0.2111887 0 -0.9774452
vn -0.7071068 0 -0.7071068
vn -0.9774452 0 -0.2111887
vn -0.652123 -0.3866153 -0.652123
vn -0.9254633 -0.3404191 -0.16623
vn 0.652123 -0.3866153 0.652123
vn 0.16623 -0.3404191 0.9254633
vn 0.7071068 0 0.7071068
vn 0.2111887 0 0.9774452
vn 0.652123 -0.3866153 -0.652123
vn 0.7071068 0 -0.7071068
vn -0.9774452 0 0.2111887
vn -0.9254633 -0.3404191 0.16623
vn -0.16623 -0.3404191 0.9254633
vn -0.652123 -0.3866153 0.652123
vn -0.2111887 0 0.9774452
vn -0.7071068 0 0.7071068
vn -0.9254633 0.3404191 -0.16623
vn -0.9254633 0.3404191 0.16623
vn -0.652123 0.3866153 0.652123
vn -0.16623 0.3404191 0.9254633
vn 0.16623 0.3404191 0.9254633
vn 0.9254633 0.3404191 -0.16623
vn 0.9254633 0.3404191 0.16623
vn 0.16623 0.3404191 -0.9254633
vn 0.652123 0.3866153 -0.652123
vn -0.16623 0.3404191 -0.9254633
vn -0.652123 0.3866153 -0.652123
vn 0.652123 0.3866153 0.652123
vn 0 0 -1
vn -0.3826834 0 -0.9238795
vn -0.9238795 0 -0.3826834
vn -0.9238795 0 0.3826834
vn -0.3826834 0 0.9238795
vn -1 0 0
vn 0 0 1
vn 0.7071067 0 0.7071068
vn 0.3826834 0 0.9238795
vn 0.7071068 0 -0.7071067
vn 0.3826834 0 -0.9238795
vn 0.9238795 0 0.3826834
vn 1 0 0
vn 0.9238795 0 -0.3826834
vn 0.1950903 0 -0.9807853
vn -0.9807853 0 -0.1950903
vn 0.1950903 0 0.9807853
vn -0.1950903 0 0.9807853
vn 0 -1 0
vn -0.1950903 0 -0.9807853
vn 0.9807853 0 0.1950903
vn -0.9807853 0 0.1950903
vn 0.9807853 0 -0.1950903

vt 0.96875 0.475
vt 0.96875 0.375
vt 0.96875 0.275
vt 0.96875 0.2989083
vt 0.96875 0.355
vt 0.96875 0.2982551
vt 0.46875 0.475
vt 0.46875 0.275

usemtl colormap

f 3/1/1 2/1/1 1/1/1
f 2/1/1 3/1/1 4/1/1
f 4/1/1 3/1/1 5/1/1
f 5/1/1 3/1/1 6/1/1
f 5/1/1 6/1/1 7/1/1
f 5/1/1 7/1/1 8/1/1
f 8/1/1 7/1/1 9/1/1
f 8/1/1 9/1/1 10/1/1
f 10/1/1 9/1/1 11/1/1
f 11/1/1 9/1/1 12/1/1
f 15/2/4 14/3/3 13/2/2
f 14/3/3 15/2/4 16/3/5
f 19/2/8 18/3/7 17/3/6
f 18/3/7 19/2/8 20/2/9
f 23/3/12 22/2/11 21/2/10
f 22/2/11 23/3/12 24/3/13
f 27/2/16 26/3/15 25/3/14
f 26/3/15 27/2/16 28/2/17
f 20/2/9 29/3/18 18/3/7
f 29/3/18 20/2/9 30/2/19
f 24/3/13 31/2/20 22/2/11
f 31/2/20 24/3/13 32/3/21
f 35/2/24 34/3/23 33/3/22
f 34/3/23 35/2/24 36/2/25
f 28/2/17 33/3/22 26/3/15
f 33/3/22 28/2/17 35/2/24
f 21/2/10 17/3/6 23/3/12
f 17/3/6 21/2/10 19/2/8
f 34/3/23 31/2/20 32/3/21
f 31/2/20 34/3/23 36/2/25
f 13/2/2 29/3/18 30/2/19
f 29/3/18 13/2/2 14/3/3
f 15/2/4 25/3/14 16/3/5
f 25/3/14 15/2/4 27/2/16
f 31/2/20 12/1/26 22/2/11
f 12/1/26 31/2/20 11/1/27
f 31/2/20 10/1/28 11/1/27
f 10/1/28 31/2/20 36/2/25
f 8/1/29 36/2/25 35/2/24
f 36/2/25 8/1/29 10/1/28
f 28/2/17 8/1/29 35/2/24
f 8/1/29 28/2/17 5/1/30
f 1/1/31 15/2/4 13/2/2
f 15/2/4 1/1/31 2/1/32
f 6/1/33 30/2/19 20/2/9
f 30/2/19 6/1/33 3/1/34
f 19/2/8 6/1/33 20/2/9
f 6/1/33 19/2/8 7/1/35
f 3/1/34 13/2/2 30/2/19
f 13/2/2 3/1/34 1/1/31
f 9/1/36 19/2/8 21/2/10
f 19/2/8 9/1/36 7/1/35
f 22/2/11 9/1/36 21/2/10
f 9/1/36 22/2/11 12/1/26
f 4/1/37 28/2/17 27/2/16
f 28/2/17 4/1/37 5/1/30
f 4/1/37 15/2/4 2/1/32
f 15/2/4 4/1/37 27/2/16
f 39/4/38 38/4/38 37/3/38
f 38/4/38 39/4/38 40/5/38
f 40/5/38 39/4/38 19/5/38
f 21/5/10 42/6/39 41/3/10
f 42/6/39 21/5/10 19/5/39
f 41/3/10 22/5/40 21/5/10
f 22/5/40 41/3/10 43/6/40
f 45/6/41 36/5/25 44/5/41
f 36/5/25 45/6/41 46/3/25
f 47/6/42 36/5/25 46/3/25
f 36/5/25 47/6/42 35/5/42
f 48/4/43 44/5/43 22/5/43
f 44/5/43 48/4/43 49/3/43
f 44/5/43 49/3/43 50/4/43
f 53/4/44 52/4/44 51/3/44
f 52/4/44 53/4/44 35/5/44
f 35/5/44 53/4/44 54/5/44
f 27/5/45 56/6/46 55/3/45
f 56/6/46 27/5/45 54/5/46
f 59/6/48 58/5/47 57/3/47
f 58/5/47 59/6/48 40/5/48
f 27/5/45 60/6/49 15/5/49
f 60/6/49 27/5/45 55/3/45
f 15/5/50 62/4/50 61/5/50
f 62/4/50 15/5/50 63/3/50
f 63/3/50 15/5/50 64/4/50
f 61/5/51 57/3/47 58/5/47
f 57/3/47 61/5/51 65/6/51
f 68/8/52 67/7/19 66/7/52
f 67/7/19 68/8/52 69/8/19
f 72/7/53 71/8/10 70/7/10
f 71/8/10 72/7/53 73/8/53
f 76/8/16 75/7/54 74/7/16
f 75/7/54 76/8/16 77/8/54
f 75/7/54 79/8/55 78/7/55
f 79/8/55 75/7/54 77/8/54
f 74/7/56 81/7/56 80/7/56
f 81/7/56 74/7/56 67/7/56
f 67/7/56 74/7/56 75/7/56
f 67/7/56 75/7/56 66/7/56
f 66/7/56 75/7/56 78/7/56
f 66/7/56 78/7/56 82/7/56
f 82/7/56 78/7/56 83/7/56
f 82/7/56 83/7/56 70/7/56
f 70/7/56 83/7/56 84/7/56
f 70/7/56 84/7/56 72/7/56
f 82/7/57 68/8/52 66/7/52
f 68/8/52 82/7/57 85/8/57
f 79/8/55 83/7/25 78/7/55
f 83/7/25 79/8/55 86/8/25
f 76/8/16 80/7/58 87/8/58
f 80/7/58 76/8/16 74/7/16
f 84/7/59 73/8/53 72/7/53
f 73/8/53 84/7/59 88/8/59
f 83/7/25 88/8/59 84/7/59
f 88/8/59 83/7/25 86/8/25
f 87/8/58 81/7/60 89/8/60
f 81/7/60 87/8/58 80/7/58
f 71/8/10 82/7/57 70/7/10
f 82/7/57 71/8/10 85/8/57
f 89/8/60 67/7/19 69/8/19
f 67/7/19 89/8/60 81/7/60

g block-grass-overhang-low




usemtl colormap

f 3/1/1 2/1/1 1/1/1
f 2/1/1 3/1/1 4/1/1
f 4/1/1 3/1/1 5/1/1
f 5/1/1 3/1/1 6/1/1
f 5/1/1 6/1/1 7/1/1
f 5/1/1 7/1/1 8/1/1
f 8/1/1 7/1/1 9/1/1
f 8/1/1 9/1/1 10/1/1
f 10/1/1 9/1/1 11/1/1
f 11/1/1 9/1/1 12/1/1
f 15/2/4 14/3/3 13/2/2
f 14/3/3 15/2/4 16/3/5
f 19/2/8 18/3/7 17/3/6
f 18/3/7 19/2/8 20/2/9
f 23/3/12 22/2/11 21/2/10
f 22/2/11 23/3/12 24/3/13
f 27/2/16 26/3/15 25/3/14
f 26/3/15 27/2/16 28/2/17
f 20/2/9 29/3/18 18/3/7
f 29/3/18 20/2/9 30/2/19
f 24/3/13 31/2/20 22/2/11
f 31/2/20 24/3/13 32/3/21
f 35/2/24 34/3/23 33/3/22
f 34/3/23 35/2/24 36/2/25
f 28/2/17 33/3/22 26/3/15
f 33/3/22 28/2/17 35/2/24
f 21/2/10 17/3/6 23/3/12
f 17/3/6 21/2/10 19/2/8
f 34/3/23 31/2/20 32/3/21
f 31/2/20 34/3/23 36/2/25
f 13/2/2 29/3/18 30/2/19
f 29/3/18 13/2/2 14/3/3
f 15/2/4 25/3/14 16/3/5
f 25/3/14 15/2/4 27/2/16
f 31/2/20 12/1/26 22/2/11
f 12/1/26 31/2/20 11/1/27
f 31/2/20 10/1/28 11/1/27
f 10/1/28 31/2/20 36/2/25
f 8/1/29 36/2/25 35/2/24
f 36/2/25 8/1/29 10/1/28
f 28/2/17 8/1/29 35/2/24
f 8/1/29 28/2/17 5/1/30
f 1/1/31 15/2/4 13/2/2
f 15/2/4 1/1/31 2/1/32
f 6/1/33 30/2/19 20/2/9
f 30/2/19 6/1/33 3/1/34
f 19/2/8 6/1/33 20/2/9
f 6/1/33 19/2/8 7/1/35
f 3/1/34 13/2/2 30/2/19
f 13/2/2 3/1/34 1/1/31
f 9/1/36 19/2/8 21/2/10
f 19/2/8 9/1/36 7/1/35
f 22/2/11 9/1/36 21/2/10
f 9/1/36 22/2/11 12/1/26
f 4/1/37 28/2/17 27/2/16
f 28/2/17 4/1/37 5/1/30
f 4/1/37 15/2/4 2/1/32
f 15/2/4 4/1/37 27/2/16
f 39/4/38 38/4/38 37/3/38
f 38/4/38 39/4/38 40/5/38
f 40/5/38 39/4/38 19/5/38
f 21/5/10 42/6/39 41/3/10
f 42/6/39 21/5/10 19/5/39
f 41/3/10 22/5/40 21/5/10
f 22/5/40 41/3/10 43/6/40
f 45/6/41 36/5/25 44/5/41
f 36/5/25 45/6/41 46/3/25
f 47/6/42 36/5/25 46/3/25
f 36/5/25 47/6/42 35/5/42
f 48/4/43 44/5/43 22/5/43
f 44/5/43 48/4/43 49/3/43
f 44/5/43 49/3/43 50/4/43
f 53/4/44 52/4/44 51/3/44
f 52/4/44 53/4/44 35/5/44
f 35/5/44 53/4/44 54/5/44
f 27/5/45 56/6/46 55/3/45
f 56/6/46 27/5/45 54/5/46
f 59/6/48 58/5/47 57/3/47
f 58/5/47 59/6/48 40/5/48
f 27/5/45 60/6/49 15/5/49
f 60/6/49 27/5/45 55/3/45
f 15/5/50 62/4/50 61/5/50
f 62/4/50 15/5/50 63/3/50
f 63/3/50 15/5/50 64/4/50
f 61/5/51 57/3/47 58/5/47
f 57/3/47 61/5/51 65/6/51
f 68/8/52 67/7/19 66/7/52
f 67/7/19 68/8/52 69/8/19
f 72/7/53 71/8/10 70/7/10
f 71/8/10 72/7/53 73/8/53
f 76/8/16 75/7/54 74/7/16
f 75/7/54 76/8/16 77/8/54
f 75/7/54 79/8/55 78/7/55
f 79/8/55 75/7/54 77/8/54
f 74/7/56 81/7/56 80/7/56
f 81/7/56 74/7/56 67/7/56
f 67/7/56 74/7/56 75/7/56
f 67/7/56 75/7/56 66/7/56
f 66/7/56 75/7/56 78/7/56
f 66/7/56 78/7/56 82/7/56
f 82/7/56 78/7/56 83/7/56
f 82/7/56 83/7/56 70/7/56
f 70/7/56 83/7/56 84/7/56
f 70/7/56 84/7/56 72/7/56
f 82/7/57 68/8/52 66/7/52
f 68/8/52 82/7/57 85/8/57
f 79/8/55 83/7/25 78/7/55
f 83/7/25 79/8/55 86/8/25
f 76/8/16 80/7/58 87/8/58
f 80/7/58 76/8/16 74/7/16
f 84/7/59 73/8/53 72/7/53
f 73/8/53 84/7/59 88/8/59
f 83/7/25 88/8/59 84/7/59
f 88/8/59 83/7/25 86/8/25
f 87/8/58 81/7/60 89/8/60
f 81/7/60 87/8/58 80/7/58
f 71/8/10 82/7/57 70/7/10
f 82/7/57 71/8/10 85/8/57
f 89/8/60 67/7/19 69/8/19
f 67/7/19 89/8/60 81/7/60

