# Created by Kenney (www.kenney.nl)

mtllib block-snow-overhang-low-hexagon.mtl

g block-snow-overhang-low-hexagon

v 0.5 0.5 -0.288675 1 1 1
v 0.5 0.5 0.2886752 1 1 1
v 5.197762E-14 0.5 -0.5773501 1 1 1
v 5.197762E-14 0.5 0.5773501 1 1 1
v -0.5 0.5 -0.288675 1 1 1
v -0.5 0.5 0.2886752 1 1 1
v 0.55 0.375 -0.3175425 1 1 1
v 0.55 0.375 0.3175428 1 1 1
v 5.197762E-14 0.375 0.6350852 1 1 1
v -0.55 0.375 0.3175428 1 1 1
v -0.55 0.375 -0.3175425 1 1 1
v 5.197762E-14 0.375 -0.6350852 1 1 1
v -0.5 0.25 -0.288675 1 1 1
v -0.5 0.25 0.2886752 1 1 1
v 5.197762E-14 0.25 -0.5773501 1 1 1
v 0.5 0.25 -0.288675 1 1 1
v 0.5 0.25 0.2886752 1 1 1
v 5.197762E-14 0.25 0.5773501 1 1 1
v 0.55 0.375 -0.1403382 1 1 1
v 0.55 0.2992171 -0.1261269 1 1 1
v 0.55 0.375 0.1403385 1 1 1
v 0.55 0.2422545 -0.07416277 1 1 1
v 0.55 0.2211625 1.485E-07 1 1 1
v 0.55 0.2422545 0.07416307 1 1 1
v 0.55 0.2992171 0.1261272 1 1 1
v 0.275 0.1552322 0.4763139 1 1 1
v 0.1832472 0.1853636 0.5292875 1 1 1
v 0.3667528 0.1853636 0.4233404 1 1 1
v 0.4310418 0.2667387 0.3862232 1 1 1
v 0.1189582 0.2667387 0.5664046 1 1 1
v 0.4486237 0.375 0.3760723 1 1 1
v 0.1013763 0.375 0.5765556 1 1 1
v -0.55 0.375 -0.1403382 1 1 1
v -0.55 0.375 0.1403385 1 1 1
v -0.55 0.2992171 -0.1261269 1 1 1
v -0.55 0.2422545 -0.07416277 1 1 1
v -0.55 0.2211625 1.485E-07 1 1 1
v -0.55 0.2422545 0.07416307 1 1 1
v -0.55 0.2992171 0.1261272 1 1 1
v -0.275 0.1552322 -0.4763138 1 1 1
v -0.1832472 0.1853636 -0.5292873 1 1 1
v -0.3667528 0.1853636 -0.4233403 1 1 1
v -0.4310418 0.2667387 -0.3862231 1 1 1
v -0.1189582 0.2667387 -0.5664045 1 1 1
v -0.4486237 0.375 -0.3760722 1 1 1
v -0.1013763 0.375 -0.5765554 1 1 1
v 4.908998E-14 2.404448E-31 0.5773501 1 1 1
v -0.5 2.404448E-31 0.2886752 1 1 1
v 4.908998E-14 0.25 0.5773501 1 1 1
v 0.5 2.404448E-31 0.2886752 1 1 1
v 0.5 2.404448E-31 -0.288675 1 1 1
v 4.908998E-14 2.404448E-31 -0.5773501 1 1 1
v -0.5 2.404448E-31 -0.288675 1 1 1
v 4.908998E-14 0.25 -0.5773501 1 1 1

vn 0 1 0
vn 0.8660254 0 -0.5
vn 0.8660253 0 0.5000002
vn 0.7862136 0.4193139 -0.4539206
vn 0.7862135 0.419314 0.4539208
vn 0 0 1
vn -0.8660253 0 0.5000002
vn 0 0.4193138 0.9078413
vn -0.7862135 0.419314 0.4539208
vn -0.8660254 0 -0.5
vn 0 0 -1
vn -0.7862136 0.4193139 -0.4539206
vn 0 0.4193138 -0.9078413
vn -0.7862136 -0.4193139 -0.4539206
vn -0.7862135 -0.419314 0.4539208
vn 0 -0.4193138 -0.9078413
vn 0.7862136 -0.4193139 -0.4539206
vn 0.7862135 -0.419314 0.4539208
vn 0 -0.4193138 0.9078413
vn 1 0 0
vn 0.4999998 0 0.8660256
vn -1 0 0
vn -0.4999998 0 -0.8660256
vn -0.4999998 0 0.8660256
vn 0 -1 0
vn -0.5000001 0 -0.8660254
vn 0.5000001 0 -0.8660254

vt 0.34375 0.475
vt 0.34375 0.375
vt 0.34375 0.275
vt 0.34375 0.355
vt 0.34375 0.3329307
vt 0.34375 0.3163423
vt 0.34375 0.3102
vt 0.34375 0.291
vt 0.34375 0.2997748
vt 0.34375 0.3234725
vt 0.46875 0.475
vt 0.46875 0.275

usemtl colormap

f 3/1/1 2/1/1 1/1/1
f 2/1/1 3/1/1 4/1/1
f 4/1/1 3/1/1 5/1/1
f 4/1/1 5/1/1 6/1/1
f 1/1/4 8/2/3 7/2/2
f 8/2/3 1/1/4 2/1/5
f 4/1/8 10/2/7 9/2/6
f 10/2/7 4/1/8 6/1/9
f 5/1/12 12/2/11 11/2/10
f 12/2/11 5/1/12 3/1/13
f 13/3/14 10/2/7 11/2/10
f 10/2/7 13/3/14 14/3/15
f 10/2/7 5/1/12 11/2/10
f 5/1/12 10/2/7 6/1/9
f 11/2/10 15/3/16 13/3/14
f 15/3/16 11/2/10 12/2/11
f 3/1/13 7/2/2 12/2/11
f 7/2/2 3/1/13 1/1/4
f 8/2/3 16/3/17 7/2/2
f 16/3/17 8/2/3 17/3/18
f 9/2/6 14/3/15 18/3/19
f 14/3/15 9/2/6 10/2/7
f 12/2/11 16/3/17 15/3/16
f 16/3/17 12/2/11 7/2/2
f 2/1/5 9/2/6 8/2/3
f 9/2/6 2/1/5 4/1/8
f 8/2/3 18/3/19 17/3/18
f 18/3/19 8/2/3 9/2/6
f 21/4/20 20/5/20 19/4/20
f 20/5/20 21/4/20 22/6/20
f 22/6/20 21/4/20 23/7/20
f 23/7/20 21/4/20 24/6/20
f 24/6/20 21/4/20 25/5/20
f 28/9/21 27/9/21 26/8/21
f 27/9/21 28/9/21 29/10/21
f 27/9/21 29/10/21 30/10/21
f 30/10/21 29/10/21 31/4/21
f 30/10/21 31/4/21 32/4/21
f 35/5/22 34/4/22 33/4/22
f 34/4/22 35/5/22 36/6/22
f 34/4/22 36/6/22 37/7/22
f 34/4/22 37/7/22 38/6/22
f 34/4/22 38/6/22 39/5/22
f 42/9/23 41/9/23 40/8/23
f 41/9/23 42/9/23 43/10/23
f 41/9/23 43/10/23 44/10/23
f 44/10/23 43/10/23 45/4/23
f 44/10/23 45/4/23 46/4/23
f 49/12/24 48/11/24 47/11/24
f 48/11/24 49/12/24 14/12/24
f 47/11/25 51/11/25 50/11/25
f 51/11/25 47/11/25 52/11/25
f 52/11/25 47/11/25 48/11/25
f 52/11/25 48/11/25 53/11/25
f 17/12/21 47/11/21 50/11/21
f 47/11/21 17/12/21 49/12/21
f 13/12/26 52/11/26 53/11/26
f 52/11/26 13/12/26 54/12/26
f 54/12/27 51/11/27 52/11/27
f 51/11/27 54/12/27 16/12/27
f 48/11/22 13/12/22 53/11/22
f 13/12/22 48/11/22 14/12/22
f 17/12/20 51/11/20 16/12/20
f 51/11/20 17/12/20 50/11/20

g block-snow-overhang-low-hexagon




usemtl colormap

f 3/1/1 2/1/1 1/1/1
f 2/1/1 3/1/1 4/1/1
f 4/1/1 3/1/1 5/1/1
f 4/1/1 5/1/1 6/1/1
f 1/1/4 8/2/3 7/2/2
f 8/2/3 1/1/4 2/1/5
f 4/1/8 10/2/7 9/2/6
f 10/2/7 4/1/8 6/1/9
f 5/1/12 12/2/11 11/2/10
f 12/2/11 5/1/12 3/1/13
f 13/3/14 10/2/7 11/2/10
f 10/2/7 13/3/14 14/3/15
f 10/2/7 5/1/12 11/2/10
f 5/1/12 10/2/7 6/1/9
f 11/2/10 15/3/16 13/3/14
f 15/3/16 11/2/10 12/2/11
f 3/1/13 7/2/2 12/2/11
f 7/2/2 3/1/13 1/1/4
f 8/2/3 16/3/17 7/2/2
f 16/3/17 8/2/3 17/3/18
f 9/2/6 14/3/15 18/3/19
f 14/3/15 9/2/6 10/2/7
f 12/2/11 16/3/17 15/3/16
f 16/3/17 12/2/11 7/2/2
f 2/1/5 9/2/6 8/2/3
f 9/2/6 2/1/5 4/1/8
f 8/2/3 18/3/19 17/3/18
f 18/3/19 8/2/3 9/2/6
f 21/4/20 20/5/20 19/4/20
f 20/5/20 21/4/20 22/6/20
f 22/6/20 21/4/20 23/7/20
f 23/7/20 21/4/20 24/6/20
f 24/6/20 21/4/20 25/5/20
f 28/9/21 27/9/21 26/8/21
f 27/9/21 28/9/21 29/10/21
f 27/9/21 29/10/21 30/10/21
f 30/10/21 29/10/21 31/4/21
f 30/10/21 31/4/21 32/4/21
f 35/5/22 34/4/22 33/4/22
f 34/4/22 35/5/22 36/6/22
f 34/4/22 36/6/22 37/7/22
f 34/4/22 37/7/22 38/6/22
f 34/4/22 38/6/22 39/5/22
f 42/9/23 41/9/23 40/8/23
f 41/9/23 42/9/23 43/10/23
f 41/9/23 43/10/23 44/10/23
f 44/10/23 43/10/23 45/4/23
f 44/10/23 45/4/23 46/4/23
f 49/12/24 48/11/24 47/11/24
f 48/11/24 49/12/24 14/12/24
f 47/11/25 51/11/25 50/11/25
f 51/11/25 47/11/25 52/11/25
f 52/11/25 47/11/25 48/11/25
f 52/11/25 48/11/25 53/11/25
f 17/12/21 47/11/21 50/11/21
f 47/11/21 17/12/21 49/12/21
f 13/12/26 52/11/26 53/11/26
f 52/11/26 13/12/26 54/12/26
f 54/12/27 51/11/27 52/11/27
f 51/11/27 54/12/27 16/12/27
f 48/11/22 13/12/22 53/11/22
f 13/12/22 48/11/22 14/12/22
f 17/12/20 51/11/20 16/12/20
f 51/11/20 17/12/20 50/11/20

