# Created by Kenney (www.kenney.nl)

mtllib bomb.mtl

g bomb

v -0.09351607 0.0387683 0.09351607 1 1 1
v 0 -0.004202882 2.887646E-15 1 1 1
v -0.1322517 0.0387683 2.887646E-15 1 1 1
v 0.09351607 0.0387683 0.09351607 1 1 1
v 0.1322517 0.0387683 2.887646E-15 1 1 1
v 0.09351607 0.0387683 -0.09351607 1 1 1
v 0 0.0387683 -0.1322517 1 1 1
v -0.09351607 0.0387683 -0.09351607 1 1 1
v 0 0.0387683 0.1322517 1 1 1
v -0.1513122 0.1512683 -0.1513122 1 1 1
v 0 0.1512683 -0.2139877 1 1 1
v 0.1513122 0.290326 -0.1513122 1 1 1
v 0.2139877 0.290326 2.887646E-15 1 1 1
v 0.09351607 0.4028259 -0.09351607 1 1 1
v 0.1322517 0.4028259 2.887646E-15 1 1 1
v -0.1513122 0.290326 -0.1513122 1 1 1
v 0 0.290326 -0.2139877 1 1 1
v -0.09351607 0.4028259 -0.09351607 1 1 1
v 0 0.4028259 -0.1322517 1 1 1
v -0.2139877 0.290326 2.887646E-15 1 1 1
v -0.1322517 0.4028259 2.887646E-15 1 1 1
v -0.1513122 0.290326 0.1513122 1 1 1
v -0.09351607 0.4028259 0.09351607 1 1 1
v 0.1513122 0.1512683 -0.1513122 1 1 1
v 0.2139877 0.1512683 2.887646E-15 1 1 1
v 0 0.1512683 0.2139877 1 1 1
v -0.1513122 0.1512683 0.1513122 1 1 1
v -0.2139877 0.1512683 2.887646E-15 1 1 1
v 0.1513122 0.1512683 0.1513122 1 1 1
v 0.1513122 0.290326 0.1513122 1 1 1
v 0 0.290326 0.2139877 1 1 1
v 0.09351607 0.4028259 0.09351607 1 1 1
v 0 0.4028259 0.1322517 1 1 1
v 0 0.402826 -0.1322517 1 1 1
v 0.09351607 0.402826 -0.09351607 1 1 1
v 0 0.447826 -0.1322517 1 1 1
v 0.09351607 0.447826 -0.09351607 1 1 1
v -0.09351607 0.402826 -0.09351607 1 1 1
v -0.09351607 0.447826 -0.09351607 1 1 1
v 0.1322517 0.447826 1.804779E-15 1 1 1
v 0.1322517 0.402826 1.804779E-15 1 1 1
v -0.1322517 0.402826 1.804779E-15 1 1 1
v -0.1322517 0.447826 1.804779E-15 1 1 1
v -0.09351607 0.402826 0.09351607 1 1 1
v -0.09351607 0.447826 0.09351607 1 1 1
v 0.09351607 0.402826 0.09351607 1 1 1
v 0 0.402826 0.1322517 1 1 1
v 0.09351607 0.447826 0.09351607 1 1 1
v 0 0.447826 0.1322517 1 1 1
v 0.0225 0.447826 0.0225 1 1 1
v -0.0225 0.447826 0.0225 1 1 1
v 0.027 0.5378259 0.027 1 1 1
v -0.027 0.5378259 0.027 1 1 1
v -0.0225 0.447826 -0.0225 1 1 1
v 0.0225 0.447826 -0.0225 1 1 1
v -0.027 0.5378259 -0.027 1 1 1
v 0.027 0.5378259 -0.027 1 1 1
v -9.619469E-16 0.1788992 -0.2465909 1 1 1
v 0.1743661 0.1788992 -0.1743661 1 1 1
v -9.619469E-16 0.262695 -0.2465909 1 1 1
v 0.1743661 0.262695 -0.1743661 1 1 1
v -0.2465909 0.1788992 -9.144813E-15 1 1 1
v -0.2465909 0.262695 -9.144813E-15 1 1 1
v -0.1743661 0.1788992 0.1743661 1 1 1
v -0.1743661 0.262695 0.1743661 1 1 1
v -9.619469E-16 0.1788992 0.2465909 1 1 1
v -9.619469E-16 0.262695 0.2465909 1 1 1
v 0.2465909 0.262695 -9.144813E-15 1 1 1
v 0.2465909 0.1788992 -9.144813E-15 1 1 1
v 0.1743661 0.262695 0.1743661 1 1 1
v 0.1743661 0.1788992 0.1743661 1 1 1
v -0.1743661 0.1788992 -0.1743661 1 1 1
v -0.1743661 0.262695 -0.1743661 1 1 1
v 0.2195311 0.295945 -9.144813E-15 1 1 1
v 0.1552319 0.295945 0.1552319 1 1 1
v 0.1552319 0.295945 -0.1552319 1 1 1
v -2.887646E-15 0.295945 -0.2195311 1 1 1
v -9.619469E-16 0.295945 0.2195311 1 1 1
v -0.1552319 0.295945 0.1552319 1 1 1
v -0.1552319 0.295945 -0.1552319 1 1 1
v -0.2195311 0.295945 -9.144813E-15 1 1 1
v 0.2195311 0.1456492 -9.144813E-15 1 1 1
v 0.1552319 0.1456492 -0.1552319 1 1 1
v 0.1552319 0.1456492 0.1552319 1 1 1
v -9.619469E-16 0.1456492 -0.2195311 1 1 1
v -9.619469E-16 0.1456492 0.2195311 1 1 1
v -0.1552319 0.1456492 0.1552319 1 1 1
v -0.1552319 0.1456492 -0.1552319 1 1 1
v -0.2195311 0.1456492 -9.144813E-15 1 1 1

vn -0.4480222 -0.7736616 0.4480222
vn 0 -1 0
vn -0.6335991 -0.7736616 0
vn 0.4480222 -0.7736616 0.4480222
vn 0.6335991 -0.7736616 0
vn 0.4480222 -0.7736616 -0.4480222
vn 0 -0.7736616 -0.6335991
vn -0.4480222 -0.7736616 -0.4480222
vn 0 -0.7736616 0.6335991
vn -0.6769574 -0.2888899 -0.6769574
vn 0 -0.2888899 -0.9573624
vn 0.6769574 0.2888899 -0.6769574
vn 0.9573624 0.2888899 0
vn 0.5720614 0.5877852 -0.5720614
vn 0.809017 0.5877852 0
vn -0.6769574 0.2888899 -0.6769574
vn 0 0.2888899 -0.9573624
vn -0.5720614 0.5877852 -0.5720614
vn 0 0.5877852 -0.809017
vn -0.9573624 0.2888899 0
vn -0.809017 0.5877852 0
vn -0.6769574 0.2888899 0.6769574
vn -0.5720614 0.5877852 0.5720614
vn 0.6769574 -0.2888899 -0.6769574
vn 0.9573624 -0.2888899 0
vn 0 -0.2888899 0.9573624
vn -0.6769574 -0.2888899 0.6769574
vn -0.9573624 -0.2888899 0
vn 0.6769574 -0.2888899 0.6769574
vn 0.6769574 0.2888899 0.6769574
vn 0 0.2888899 0.9573624
vn 0.5720614 0.5877852 0.5720614
vn 0 0.5877852 0.809017
vn 0 0 -1
vn 0.7071068 0 -0.7071068
vn -0.7071068 0 -0.7071068
vn 1 0 0
vn -1 0 0
vn -0.7071068 0 0.7071068
vn 0.7071068 0 0.7071068
vn 0 0 1
vn 0 1 0
vn 0.7053456 -0.07053456 0.7053456
vn -0.7053456 -0.07053456 0.7053456
vn -0.7053456 -0.07053456 -0.7053456
vn 0.7053456 -0.07053456 -0.7053456
vn 0 -0.3002823 -0.9538504
vn 0.6744741 -0.3002823 -0.6744741
vn 0 0.3002823 -0.9538504
vn 0.6744741 0.3002823 -0.6744741
vn -0.9538504 -0.3002823 0
vn -0.9538504 0.3002823 0
vn -0.6744741 -0.3002823 0.6744741
vn -0.6744741 0.3002823 0.6744741
vn 0 -0.3002823 0.9538504
vn 0 0.3002823 0.9538504
vn 0.9538504 0.3002823 0
vn 0.9538504 -0.3002823 0
vn 0.6744741 0.3002823 0.6744741
vn 0.6744741 -0.3002823 0.6744741
vn -0.6744741 -0.3002823 -0.6744741
vn -0.6744741 0.3002823 -0.6744741
vn 0.5263683 0.8502567 0
vn 0.3721986 0.8502567 0.3721986
vn 0.3721986 0.8502567 -0.3721986
vn 0 0.8502567 -0.5263683
vn 0 0.8502567 0.5263683
vn -0.3721986 0.8502567 0.3721986
vn -0.3721986 0.8502567 -0.3721986
vn -0.5263683 0.8502567 0
vn 0.5263683 -0.8502567 0
vn 0.3721986 -0.8502567 -0.3721986
vn 0.3721986 -0.8502567 0.3721986
vn 0 -0.8502567 -0.5263683
vn 0 -0.8502567 0.5263683
vn -0.3721986 -0.8502567 0.3721986
vn -0.3721986 -0.8502567 -0.3721986
vn -0.5263683 -0.8502567 0

vt 0.46875 0.5461146
vt 0.46875 0.525
vt 0.46875 0.6013932
vt 0.46875 0.6697214
vt 0.46875 0.725
vt 0.96875 0.075
vt 0.96875 0.175
vt 0.46875 0.325
vt 0.46875 0.425
vt 0.21875 0.3548251
vt 0.21875 0.4050649
vt 0.21875 0.425
vt 0.21875 0.3348901

usemtl colormap

f 3/1/3 2/2/2 1/1/1
f 2/2/2 5/1/5 4/1/4
f 7/1/7 6/1/6 2/2/2
f 2/2/2 6/1/6 5/1/5
f 8/1/8 7/1/7 2/2/2
f 2/2/2 4/1/4 9/1/9
f 3/1/3 8/1/8 2/2/2
f 1/1/1 2/2/2 9/1/9
f 10/3/10 7/1/7 8/1/8
f 7/1/7 10/3/10 11/3/11
f 14/5/14 13/4/13 12/4/12
f 13/4/13 14/5/14 15/5/15
f 18/5/18 17/4/17 16/4/16
f 17/4/17 18/5/18 19/5/19
f 22/4/22 21/5/21 20/4/20
f 21/5/21 22/4/22 23/5/23
f 13/4/13 24/3/24 12/4/12
f 24/3/24 13/4/13 25/3/25
f 19/5/19 12/4/12 17/4/17
f 12/4/12 19/5/19 14/5/14
f 20/4/20 18/5/18 16/4/16
f 18/5/18 20/4/20 21/5/21
f 26/3/26 1/1/1 9/1/9
f 1/1/1 26/3/26 27/3/27
f 28/3/28 16/4/16 10/3/10
f 16/4/16 28/3/28 20/4/20
f 27/3/27 20/4/20 28/3/28
f 20/4/20 27/3/27 22/4/22
f 16/4/16 11/3/11 10/3/10
f 11/3/11 16/4/16 17/4/17
f 29/3/29 9/1/9 4/1/4
f 9/1/9 29/3/29 26/3/26
f 11/3/11 6/1/6 7/1/7
f 6/1/6 11/3/11 24/3/24
f 30/4/30 26/3/26 29/3/29
f 26/3/26 30/4/30 31/4/31
f 32/5/32 31/4/31 30/4/30
f 31/4/31 32/5/32 33/5/33
f 17/4/17 24/3/24 11/3/11
f 24/3/24 17/4/17 12/4/12
f 30/4/30 25/3/25 13/4/13
f 25/3/25 30/4/30 29/3/29
f 31/4/31 27/3/27 26/3/26
f 27/3/27 31/4/31 22/4/22
f 25/3/25 6/1/6 24/3/24
f 6/1/6 25/3/25 5/1/5
f 33/5/33 22/4/22 31/4/31
f 22/4/22 33/5/33 23/5/23
f 8/1/8 28/3/28 10/3/10
f 28/3/28 8/1/8 3/1/3
f 29/3/29 5/1/5 25/3/25
f 5/1/5 29/3/29 4/1/4
f 32/5/32 13/4/13 15/5/15
f 13/4/13 32/5/32 30/4/30
f 1/1/1 28/3/28 3/1/3
f 28/3/28 1/1/1 27/3/27
f 36/7/34 35/6/35 34/6/34
f 35/6/35 36/7/34 37/7/35
f 39/7/36 34/6/34 38/6/36
f 34/6/34 39/7/36 36/7/34
f 40/7/37 35/6/35 37/7/35
f 35/6/35 40/7/37 41/6/37
f 44/6/39 43/7/38 42/6/38
f 43/7/38 44/6/39 45/7/39
f 48/7/40 47/6/41 46/6/40
f 47/6/41 48/7/40 49/7/41
f 49/7/41 44/6/39 47/6/41
f 44/6/39 49/7/41 45/7/39
f 37/7/42 48/7/42 40/7/42
f 48/7/42 37/7/42 36/7/42
f 48/7/42 36/7/42 49/7/42
f 49/7/42 36/7/42 39/7/42
f 49/7/42 39/7/42 45/7/42
f 45/7/42 39/7/42 43/7/42
f 42/6/38 39/7/36 38/6/36
f 39/7/36 42/6/38 43/7/38
f 48/7/40 41/6/37 40/7/37
f 41/6/37 48/7/40 46/6/40
f 52/9/43 51/8/44 50/8/43
f 51/8/44 52/9/43 53/9/44
f 56/9/45 55/8/46 54/8/45
f 55/8/46 56/9/45 57/9/46
f 52/9/43 55/8/46 57/9/46
f 55/8/46 52/9/43 50/8/43
f 54/8/45 53/9/44 56/9/45
f 53/9/44 54/8/45 51/8/44
f 56/9/42 52/9/42 57/9/42
f 52/9/42 56/9/42 53/9/42
f 60/11/49 59/10/48 58/10/47
f 59/10/48 60/11/49 61/11/50
f 64/10/53 63/11/52 62/10/51
f 63/11/52 64/10/53 65/11/54
f 67/11/56 64/10/53 66/10/55
f 64/10/53 67/11/56 65/11/54
f 70/11/59 69/10/58 68/11/57
f 69/10/58 70/11/59 71/10/60
f 73/11/62 58/10/47 72/10/61
f 58/10/47 73/11/62 60/11/49
f 68/11/57 59/10/48 61/11/50
f 59/10/48 68/11/57 69/10/58
f 62/10/51 73/11/62 72/10/61
f 73/11/62 62/10/51 63/11/52
f 70/11/59 66/10/55 71/10/60
f 66/10/55 70/11/59 67/11/56
f 76/12/65 75/12/64 74/12/63
f 75/12/64 76/12/65 77/12/66
f 75/12/64 77/12/66 78/12/67
f 78/12/67 77/12/66 79/12/68
f 79/12/68 77/12/66 80/12/69
f 79/12/68 80/12/69 81/12/70
f 84/13/73 83/13/72 82/13/71
f 83/13/72 84/13/73 85/13/74
f 85/13/74 84/13/73 86/13/75
f 85/13/74 86/13/75 87/13/76
f 85/13/74 87/13/76 88/13/77
f 88/13/77 87/13/76 89/13/78
f 77/12/66 61/11/50 60/11/49
f 61/11/50 77/12/66 76/12/65
f 88/13/77 62/10/51 72/10/61
f 62/10/51 88/13/77 89/13/78
f 72/10/61 85/13/74 88/13/77
f 85/13/74 72/10/61 58/10/47
f 65/11/54 81/12/70 63/11/52
f 81/12/70 65/11/54 79/12/68
f 78/12/67 65/11/54 67/11/56
f 65/11/54 78/12/67 79/12/68
f 75/12/64 68/11/57 74/12/63
f 68/11/57 75/12/64 70/11/59
f 80/12/69 60/11/49 73/11/62
f 60/11/49 80/12/69 77/12/66
f 76/12/65 68/11/57 61/11/50
f 68/11/57 76/12/65 74/12/63
f 63/11/52 80/12/69 73/11/62
f 80/12/69 63/11/52 81/12/70
f 66/10/55 87/13/76 86/13/75
f 87/13/76 66/10/55 64/10/53
f 71/10/60 82/13/71 69/10/58
f 82/13/71 71/10/60 84/13/73
f 87/13/76 62/10/51 89/13/78
f 62/10/51 87/13/76 64/10/53
f 69/10/58 83/13/72 59/10/48
f 83/13/72 69/10/58 82/13/71
f 75/12/64 67/11/56 70/11/59
f 67/11/56 75/12/64 78/12/67
f 71/10/60 86/13/75 84/13/73
f 86/13/75 71/10/60 66/10/55
f 58/10/47 83/13/72 85/13/74
f 83/13/72 58/10/47 59/10/48

g bomb




usemtl colormap

f 3/1/3 2/2/2 1/1/1
f 2/2/2 5/1/5 4/1/4
f 7/1/7 6/1/6 2/2/2
f 2/2/2 6/1/6 5/1/5
f 8/1/8 7/1/7 2/2/2
f 2/2/2 4/1/4 9/1/9
f 3/1/3 8/1/8 2/2/2
f 1/1/1 2/2/2 9/1/9
f 10/3/10 7/1/7 8/1/8
f 7/1/7 10/3/10 11/3/11
f 14/5/14 13/4/13 12/4/12
f 13/4/13 14/5/14 15/5/15
f 18/5/18 17/4/17 16/4/16
f 17/4/17 18/5/18 19/5/19
f 22/4/22 21/5/21 20/4/20
f 21/5/21 22/4/22 23/5/23
f 13/4/13 24/3/24 12/4/12
f 24/3/24 13/4/13 25/3/25
f 19/5/19 12/4/12 17/4/17
f 12/4/12 19/5/19 14/5/14
f 20/4/20 18/5/18 16/4/16
f 18/5/18 20/4/20 21/5/21
f 26/3/26 1/1/1 9/1/9
f 1/1/1 26/3/26 27/3/27
f 28/3/28 16/4/16 10/3/10
f 16/4/16 28/3/28 20/4/20
f 27/3/27 20/4/20 28/3/28
f 20/4/20 27/3/27 22/4/22
f 16/4/16 11/3/11 10/3/10
f 11/3/11 16/4/16 17/4/17
f 29/3/29 9/1/9 4/1/4
f 9/1/9 29/3/29 26/3/26
f 11/3/11 6/1/6 7/1/7
f 6/1/6 11/3/11 24/3/24
f 30/4/30 26/3/26 29/3/29
f 26/3/26 30/4/30 31/4/31
f 32/5/32 31/4/31 30/4/30
f 31/4/31 32/5/32 33/5/33
f 17/4/17 24/3/24 11/3/11
f 24/3/24 17/4/17 12/4/12
f 30/4/30 25/3/25 13/4/13
f 25/3/25 30/4/30 29/3/29
f 31/4/31 27/3/27 26/3/26
f 27/3/27 31/4/31 22/4/22
f 25/3/25 6/1/6 24/3/24
f 6/1/6 25/3/25 5/1/5
f 33/5/33 22/4/22 31/4/31
f 22/4/22 33/5/33 23/5/23
f 8/1/8 28/3/28 10/3/10
f 28/3/28 8/1/8 3/1/3
f 29/3/29 5/1/5 25/3/25
f 5/1/5 29/3/29 4/1/4
f 32/5/32 13/4/13 15/5/15
f 13/4/13 32/5/32 30/4/30
f 1/1/1 28/3/28 3/1/3
f 28/3/28 1/1/1 27/3/27
f 36/7/34 35/6/35 34/6/34
f 35/6/35 36/7/34 37/7/35
f 39/7/36 34/6/34 38/6/36
f 34/6/34 39/7/36 36/7/34
f 40/7/37 35/6/35 37/7/35
f 35/6/35 40/7/37 41/6/37
f 44/6/39 43/7/38 42/6/38
f 43/7/38 44/6/39 45/7/39
f 48/7/40 47/6/41 46/6/40
f 47/6/41 48/7/40 49/7/41
f 49/7/41 44/6/39 47/6/41
f 44/6/39 49/7/41 45/7/39
f 37/7/42 48/7/42 40/7/42
f 48/7/42 37/7/42 36/7/42
f 48/7/42 36/7/42 49/7/42
f 49/7/42 36/7/42 39/7/42
f 49/7/42 39/7/42 45/7/42
f 45/7/42 39/7/42 43/7/42
f 42/6/38 39/7/36 38/6/36
f 39/7/36 42/6/38 43/7/38
f 48/7/40 41/6/37 40/7/37
f 41/6/37 48/7/40 46/6/40
f 52/9/43 51/8/44 50/8/43
f 51/8/44 52/9/43 53/9/44
f 56/9/45 55/8/46 54/8/45
f 55/8/46 56/9/45 57/9/46
f 52/9/43 55/8/46 57/9/46
f 55/8/46 52/9/43 50/8/43
f 54/8/45 53/9/44 56/9/45
f 53/9/44 54/8/45 51/8/44
f 56/9/42 52/9/42 57/9/42
f 52/9/42 56/9/42 53/9/42
f 60/11/49 59/10/48 58/10/47
f 59/10/48 60/11/49 61/11/50
f 64/10/53 63/11/52 62/10/51
f 63/11/52 64/10/53 65/11/54
f 67/11/56 64/10/53 66/10/55
f 64/10/53 67/11/56 65/11/54
f 70/11/59 69/10/58 68/11/57
f 69/10/58 70/11/59 71/10/60
f 73/11/62 58/10/47 72/10/61
f 58/10/47 73/11/62 60/11/49
f 68/11/57 59/10/48 61/11/50
f 59/10/48 68/11/57 69/10/58
f 62/10/51 73/11/62 72/10/61
f 73/11/62 62/10/51 63/11/52
f 70/11/59 66/10/55 71/10/60
f 66/10/55 70/11/59 67/11/56
f 76/12/65 75/12/64 74/12/63
f 75/12/64 76/12/65 77/12/66
f 75/12/64 77/12/66 78/12/67
f 78/12/67 77/12/66 79/12/68
f 79/12/68 77/12/66 80/12/69
f 79/12/68 80/12/69 81/12/70
f 84/13/73 83/13/72 82/13/71
f 83/13/72 84/13/73 85/13/74
f 85/13/74 84/13/73 86/13/75
f 85/13/74 86/13/75 87/13/76
f 85/13/74 87/13/76 88/13/77
f 88/13/77 87/13/76 89/13/78
f 77/12/66 61/11/50 60/11/49
f 61/11/50 77/12/66 76/12/65
f 88/13/77 62/10/51 72/10/61
f 62/10/51 88/13/77 89/13/78
f 72/10/61 85/13/74 88/13/77
f 85/13/74 72/10/61 58/10/47
f 65/11/54 81/12/70 63/11/52
f 81/12/70 65/11/54 79/12/68
f 78/12/67 65/11/54 67/11/56
f 65/11/54 78/12/67 79/12/68
f 75/12/64 68/11/57 74/12/63
f 68/11/57 75/12/64 70/11/59
f 80/12/69 60/11/49 73/11/62
f 60/11/49 80/12/69 77/12/66
f 76/12/65 68/11/57 61/11/50
f 68/11/57 76/12/65 74/12/63
f 63/11/52 80/12/69 73/11/62
f 80/12/69 63/11/52 81/12/70
f 66/10/55 87/13/76 86/13/75
f 87/13/76 66/10/55 64/10/53
f 71/10/60 82/13/71 69/10/58
f 82/13/71 71/10/60 84/13/73
f 87/13/76 62/10/51 89/13/78
f 62/10/51 87/13/76 64/10/53
f 69/10/58 83/13/72 59/10/48
f 83/13/72 69/10/58 82/13/71
f 75/12/64 67/11/56 70/11/59
f 67/11/56 75/12/64 78/12/67
f 71/10/60 86/13/75 84/13/73
f 86/13/75 71/10/60 66/10/55
f 58/10/47 83/13/72 85/13/74
f 83/13/72 58/10/47 59/10/48

