# Created by Kenney (www.kenney.nl)

mtllib brick.mtl

g brick

v 0.225 0.025 0.225 1 1 1
v 0.225 0.025 -0.225 1 1 1
v -0.225 0.025 0.225 1 1 1
v -0.225 0.025 -0.225 1 1 1
v 0.225 0.475 -0.225 1 1 1
v 0.225 0.475 0.225 1 1 1
v -0.225 0.475 -0.225 1 1 1
v -0.225 0.475 0.225 1 1 1
v -0.25 0.2875 -0.03749999 1 1 1
v -0.225 0.2875 -0.01249999 1 1 1
v -0.225 0.2625 -0.03749999 1 1 1
v 0.225 0.2625 -0.2249999 1 1 1
v 0.2500001 0.2875 -0.2249999 1 1 1
v 0.225 0.2875 -0.25 1 1 1
v -0.225 0.5 -0.225 1 1 1
v -0.25 0.475 -0.225 1 1 1
v -0.225 0.475 -0.25 1 1 1
v -0.225 0.5 -0.03749999 1 1 1
v -0.225 0.475 -0.01249999 1 1 1
v -0.25 0.475 -0.03749999 1 1 1
v 0.2500001 0.475 -0.2249999 1 1 1
v 0.225 0.5 -0.2249999 1 1 1
v 0.225 0.475 -0.25 1 1 1
v -0.25 0.2875 -0.225 1 1 1
v -0.225 0.2625 -0.225 1 1 1
v -0.225 0.2875 -0.25 1 1 1
v 0.225 0.2625 -0.03749993 1 1 1
v 0.225 0.2875 -0.01249993 1 1 1
v 0.2500001 0.2875 -0.03749993 1 1 1
v 0.2500001 0.475 -0.03749993 1 1 1
v 0.225 0.475 -0.01249993 1 1 1
v 0.225 0.5 -0.03749993 1 1 1
v -0.0375 0.2375 0.225 1 1 1
v -0.0125 0.2125 0.225 1 1 1
v -0.0375 0.2125 0.25 1 1 1
v -0.0375 0.025 0.25 1 1 1
v -0.0125 0.025 0.225 1 1 1
v -0.0375 0 0.225 1 1 1
v -0.225 0.2375 0.225 1 1 1
v -0.225 0.2125 0.25 1 1 1
v -0.25 0.2125 0.225 1 1 1
v -0.0375 0.2125 -0.25 1 1 1
v -0.0125 0.2125 -0.225 1 1 1
v -0.0375 0.2375 -0.225 1 1 1
v -0.0375 0 -0.225 1 1 1
v -0.0125 0.025 -0.225 1 1 1
v -0.0375 0.025 -0.25 1 1 1
v -0.225 0.2125 -0.25 1 1 1
v -0.225 0.2375 -0.225 1 1 1
v -0.25 0.2125 -0.225 1 1 1
v -0.225 0.025 0.25 1 1 1
v -0.225 0 0.225 1 1 1
v -0.25 0.025 0.225 1 1 1
v -0.225 0 -0.225 1 1 1
v -0.225 0.025 -0.25 1 1 1
v -0.25 0.025 -0.225 1 1 1
v 0.225 0.2125 -0.25 1 1 1
v 0.25 0.2125 -0.225 1 1 1
v 0.225 0.2375 -0.225 1 1 1
v 0.0375 0.2375 0.225 1 1 1
v 0.0375 0.2125 0.25 1 1 1
v 0.0125 0.2125 0.225 1 1 1
v 0.0375 0.025 0.25 1 1 1
v 0.0375 0 0.225 1 1 1
v 0.0125 0.025 0.225 1 1 1
v 0.0375 0.2125 -0.25 1 1 1
v 0.0375 0.2375 -0.225 1 1 1
v 0.0125 0.2125 -0.225 1 1 1
v 0.225 0.2375 0.225 1 1 1
v 0.25 0.2125 0.225 1 1 1
v 0.225 0.2125 0.25 1 1 1
v 0.225 0 -0.225 1 1 1
v 0.25 0.025 -0.225 1 1 1
v 0.225 0.025 -0.25 1 1 1
v 0.225 0.025 0.25 1 1 1
v 0.25 0.025 0.225 1 1 1
v 0.225 0 0.225 1 1 1
v 0.0375 0 -0.225 1 1 1
v 0.0375 0.025 -0.25 1 1 1
v 0.0125 0.025 -0.225 1 1 1
v -0.25 0.2875 0.225 1 1 1
v -0.225 0.2875 0.25 1 1 1
v -0.225 0.2625 0.225 1 1 1
v 0.2500001 0.2875 0.2250001 1 1 1
v 0.225 0.2625 0.2250001 1 1 1
v 0.225 0.2875 0.2500001 1 1 1
v 0.2500001 0.475 0.03750005 1 1 1
v 0.225 0.5 0.03750005 1 1 1
v 0.225 0.475 0.01250005 1 1 1
v 0.2500001 0.475 0.2250001 1 1 1
v 0.225 0.475 0.2500001 1 1 1
v 0.225 0.5 0.2250001 1 1 1
v -0.25 0.2875 0.03749999 1 1 1
v -0.225 0.2625 0.03749999 1 1 1
v -0.225 0.2875 0.01249999 1 1 1
v -0.225 0.475 0.25 1 1 1
v -0.25 0.475 0.225 1 1 1
v -0.225 0.5 0.225 1 1 1
v 0.225 0.2625 0.03750005 1 1 1
v 0.2500001 0.2875 0.03750005 1 1 1
v 0.225 0.2875 0.01250005 1 1 1
v -0.225 0.5 0.03749999 1 1 1
v -0.25 0.475 0.03749999 1 1 1
v -0.225 0.475 0.01249999 1 1 1

vn 0 -1 0
vn 0 1 0
vn 0 0 -1
vn 1 0 0
vn 0 0 1
vn -1 0 0
vn -0.8565486 -0.3383964 0.389631
vn -0.2662737 -0.2662737 0.926389
vn -0.3383964 -0.8565487 0.3896311
vn 0.3383964 -0.8565487 -0.3896311
vn 0.8565486 -0.3383964 -0.389631
vn 0.2662737 -0.2662737 -0.926389
vn -0.3383963 0.8565487 -0.3896311
vn -0.8565485 0.3383964 -0.3896312
vn -0.2662735 0.2662737 -0.926389
vn -0.3383964 0.8565487 0.3896311
vn -0.2662737 0.2662737 0.926389
vn -0.8565486 0.3383964 0.389631
vn 0.8565486 0.3383964 -0.389631
vn 0.3383964 0.8565487 -0.3896311
vn 0.2662737 0.2662737 -0.926389
vn -0.8565485 -0.3383964 -0.3896312
vn -0.3383963 -0.8565487 -0.3896311
vn -0.2662735 -0.2662737 -0.926389
vn 0.3383963 -0.8565487 0.3896311
vn 0.2662735 -0.2662737 0.926389
vn 0.8565485 -0.3383964 0.3896312
vn 0.8565485 0.3383964 0.3896312
vn 0.2662735 0.2662737 0.926389
vn 0.3383963 0.8565487 0.3896311
vn 0.3896312 0.8565487 0.3383964
vn 0.9263892 0.2662736 0.2662736
vn 0.3896311 0.3383964 0.8565485
vn 0.3896311 -0.3383964 0.8565485
vn 0.9263892 -0.2662736 0.2662736
vn 0.3896312 -0.8565487 0.3383964
vn -0.3896312 0.8565487 0.3383964
vn -0.3896311 0.3383964 0.8565485
vn -0.9263892 0.2662736 0.2662736
vn 0.3896311 0.3383964 -0.8565485
vn 0.9263892 0.2662736 -0.2662736
vn 0.3896312 0.8565487 -0.3383964
vn 0.3896312 -0.8565487 -0.3383964
vn 0.9263892 -0.2662736 -0.2662736
vn 0.3896311 -0.3383964 -0.8565485
vn -0.3896311 0.3383964 -0.8565485
vn -0.3896312 0.8565487 -0.3383964
vn -0.9263892 0.2662736 -0.2662736
vn -0.3896311 -0.3383964 0.8565485
vn -0.3896312 -0.8565487 0.3383964
vn -0.9263892 -0.2662736 0.2662736
vn -0.3896312 -0.8565487 -0.3383964
vn -0.3896311 -0.3383964 -0.8565485
vn -0.9263892 -0.2662736 -0.2662736

vt 0.21875 0.2855263
vt 0.21875 0.475
vt 0.46875 0.3305556
vt 0.46875 0.325
vt 0.46875 0.425
vt 0.46875 0.4138889

usemtl colormap

f 3/1/1 2/1/1 1/1/1
f 2/1/1 3/1/1 4/1/1
f 7/2/2 6/2/2 5/2/2
f 6/2/2 7/2/2 8/2/2
f 7/2/3 2/1/3 4/1/3
f 2/1/3 7/2/3 5/2/3
f 6/2/4 2/1/4 5/2/4
f 2/1/4 6/2/4 1/1/4
f 6/2/5 3/1/5 1/1/5
f 3/1/5 6/2/5 8/2/5
f 3/1/6 7/2/6 4/1/6
f 7/2/6 3/1/6 8/2/6
f 11/4/9 10/3/8 9/3/7
f 14/3/12 13/3/11 12/4/10
f 17/6/15 16/6/14 15/5/13
f 20/6/18 19/6/17 18/5/16
f 23/6/21 22/5/20 21/6/19
f 26/3/24 25/4/23 24/3/22
f 29/3/27 28/3/26 27/4/25
f 32/5/30 31/6/29 30/6/28
f 20/6/18 24/3/22 9/3/7
f 24/3/22 20/6/18 16/6/14
f 21/6/19 29/3/27 13/3/11
f 29/3/27 21/6/19 30/6/28
f 25/4/23 27/4/25 11/4/9
f 27/4/25 25/4/23 12/4/10
f 19/6/17 28/3/26 31/6/29
f 28/3/26 19/6/17 10/3/8
f 26/3/24 23/6/21 14/3/12
f 23/6/21 26/3/24 17/6/15
f 22/5/20 18/5/16 32/5/30
f 18/5/16 22/5/20 15/5/13
f 11/4/9 28/3/26 10/3/8
f 28/3/26 11/4/9 27/4/25
f 23/6/21 15/5/13 22/5/20
f 15/5/13 23/6/21 17/6/15
f 32/5/30 19/6/17 31/6/29
f 19/6/17 32/5/30 18/5/16
f 21/6/19 32/5/30 30/6/28
f 32/5/30 21/6/19 22/5/20
f 23/6/21 13/3/11 14/3/12
f 13/3/11 23/6/21 21/6/19
f 26/3/24 12/4/10 25/4/23
f 12/4/10 26/3/24 14/3/12
f 19/6/17 9/3/7 10/3/8
f 9/3/7 19/6/17 20/6/18
f 18/5/16 16/6/14 20/6/18
f 16/6/14 18/5/16 15/5/13
f 16/6/14 26/3/24 24/3/22
f 26/3/24 16/6/14 17/6/15
f 24/3/22 11/4/9 9/3/7
f 11/4/9 24/3/22 25/4/23
f 30/6/28 28/3/26 29/3/27
f 28/3/26 30/6/28 31/6/29
f 12/4/10 29/3/27 27/4/25
f 29/3/27 12/4/10 13/3/11
f 35/6/33 34/6/32 33/5/31
f 38/4/36 37/3/35 36/3/34
f 41/6/39 40/6/38 39/5/37
f 44/5/42 43/6/41 42/6/40
f 47/3/45 46/3/44 45/4/43
f 50/6/48 49/5/47 48/6/46
f 53/3/51 52/4/50 51/3/49
f 56/3/54 55/3/53 54/4/52
f 34/6/32 46/3/44 43/6/41
f 46/3/44 34/6/32 37/3/35
f 53/3/51 50/6/48 56/3/54
f 50/6/48 53/3/51 41/6/39
f 49/5/47 33/5/31 44/5/42
f 33/5/31 49/5/47 39/5/37
f 48/6/46 47/3/45 55/3/53
f 47/3/45 48/6/46 42/6/40
f 35/6/33 51/3/49 36/3/34
f 51/3/49 35/6/33 40/6/38
f 52/4/50 45/4/43 38/4/36
f 45/4/43 52/4/50 54/4/52
f 34/6/32 36/3/34 37/3/35
f 36/3/34 34/6/32 35/6/33
f 42/6/40 46/3/44 47/3/45
f 46/3/44 42/6/40 43/6/41
f 44/5/42 34/6/32 43/6/41
f 34/6/32 44/5/42 33/5/31
f 40/6/38 53/3/51 51/3/49
f 53/3/51 40/6/38 41/6/39
f 38/4/36 46/3/44 37/3/35
f 46/3/44 38/4/36 45/4/43
f 50/6/48 39/5/37 49/5/47
f 39/5/37 50/6/48 41/6/39
f 50/6/48 55/3/53 56/3/54
f 55/3/53 50/6/48 48/6/46
f 53/3/51 54/4/52 52/4/50
f 54/4/52 53/3/51 56/3/54
f 39/5/37 35/6/33 33/5/31
f 35/6/33 39/5/37 40/6/38
f 48/6/46 44/5/42 42/6/40
f 44/5/42 48/6/46 49/5/47
f 54/4/52 47/3/45 45/4/43
f 47/3/45 54/4/52 55/3/53
f 51/3/49 38/4/36 36/3/34
f 38/4/36 51/3/49 52/4/50
f 59/5/42 58/6/41 57/6/40
f 62/6/39 61/6/38 60/5/37
f 65/3/51 64/4/50 63/3/49
f 68/6/48 67/5/47 66/6/46
f 71/6/33 70/6/32 69/5/31
f 74/3/45 73/3/44 72/4/43
f 77/4/36 76/3/35 75/3/34
f 80/3/54 79/3/53 78/4/52
f 67/5/47 69/5/31 59/5/42
f 69/5/31 67/5/47 60/5/37
f 64/4/50 72/4/43 77/4/36
f 72/4/43 64/4/50 78/4/52
f 71/6/33 63/3/49 75/3/34
f 63/3/49 71/6/33 61/6/38
f 70/6/32 73/3/44 58/6/41
f 73/3/44 70/6/32 76/3/35
f 66/6/46 74/3/45 79/3/53
f 74/3/45 66/6/46 57/6/40
f 65/3/51 68/6/48 80/3/54
f 68/6/48 65/3/51 62/6/39
f 68/6/48 79/3/53 80/3/54
f 79/3/53 68/6/48 66/6/46
f 77/4/36 73/3/44 76/3/35
f 73/3/44 77/4/36 72/4/43
f 57/6/40 73/3/44 74/3/45
f 73/3/44 57/6/40 58/6/41
f 70/6/32 75/3/34 76/3/35
f 75/3/34 70/6/32 71/6/33
f 61/6/38 65/3/51 63/3/49
f 65/3/51 61/6/38 62/6/39
f 78/4/52 74/3/45 72/4/43
f 74/3/45 78/4/52 79/3/53
f 60/5/37 71/6/33 69/5/31
f 71/6/33 60/5/37 61/6/38
f 59/5/42 70/6/32 58/6/41
f 70/6/32 59/5/42 69/5/31
f 66/6/46 59/5/42 57/6/40
f 59/5/42 66/6/46 67/5/47
f 68/6/48 60/5/37 67/5/47
f 60/5/37 68/6/48 62/6/39
f 63/3/49 77/4/36 75/3/34
f 77/4/36 63/3/49 64/4/50
f 65/3/51 78/4/52 64/4/50
f 78/4/52 65/3/51 80/3/54
f 83/4/9 82/3/8 81/3/7
f 86/3/26 85/4/25 84/3/27
f 89/6/21 88/5/20 87/6/19
f 92/5/30 91/6/29 90/6/28
f 95/3/24 94/4/23 93/3/22
f 98/5/16 97/6/18 96/6/17
f 101/3/12 100/3/11 99/4/10
f 104/6/15 103/6/14 102/5/13
f 87/6/19 84/3/27 100/3/11
f 84/3/27 87/6/19 90/6/28
f 96/6/17 86/3/26 91/6/29
f 86/3/26 96/6/17 82/3/8
f 94/4/23 85/4/25 83/4/9
f 85/4/25 94/4/23 99/4/10
f 95/3/24 89/6/21 101/3/12
f 89/6/21 95/3/24 104/6/15
f 97/6/18 93/3/22 81/3/7
f 93/3/22 97/6/18 103/6/14
f 88/5/20 98/5/16 92/5/30
f 98/5/16 88/5/20 102/5/13
f 96/6/17 81/3/7 82/3/8
f 81/3/7 96/6/17 97/6/18
f 93/3/22 83/4/9 81/3/7
f 83/4/9 93/3/22 94/4/23
f 83/4/9 86/3/26 82/3/8
f 86/3/26 83/4/9 85/4/25
f 88/5/20 90/6/28 87/6/19
f 90/6/28 88/5/20 92/5/30
f 90/6/28 86/3/26 84/3/27
f 86/3/26 90/6/28 91/6/29
f 100/3/11 85/4/25 99/4/10
f 85/4/25 100/3/11 84/3/27
f 95/3/24 99/4/10 94/4/23
f 99/4/10 95/3/24 101/3/12
f 103/6/14 95/3/24 93/3/22
f 95/3/24 103/6/14 104/6/15
f 89/6/21 100/3/11 101/3/12
f 100/3/11 89/6/21 87/6/19
f 98/5/16 103/6/14 97/6/18
f 103/6/14 98/5/16 102/5/13
f 92/5/30 96/6/17 91/6/29
f 96/6/17 92/5/30 98/5/16
f 89/6/21 102/5/13 88/5/20
f 102/5/13 89/6/21 104/6/15

g brick




usemtl colormap

f 3/1/1 2/1/1 1/1/1
f 2/1/1 3/1/1 4/1/1
f 7/2/2 6/2/2 5/2/2
f 6/2/2 7/2/2 8/2/2
f 7/2/3 2/1/3 4/1/3
f 2/1/3 7/2/3 5/2/3
f 6/2/4 2/1/4 5/2/4
f 2/1/4 6/2/4 1/1/4
f 6/2/5 3/1/5 1/1/5
f 3/1/5 6/2/5 8/2/5
f 3/1/6 7/2/6 4/1/6
f 7/2/6 3/1/6 8/2/6
f 11/4/9 10/3/8 9/3/7
f 14/3/12 13/3/11 12/4/10
f 17/6/15 16/6/14 15/5/13
f 20/6/18 19/6/17 18/5/16
f 23/6/21 22/5/20 21/6/19
f 26/3/24 25/4/23 24/3/22
f 29/3/27 28/3/26 27/4/25
f 32/5/30 31/6/29 30/6/28
f 20/6/18 24/3/22 9/3/7
f 24/3/22 20/6/18 16/6/14
f 21/6/19 29/3/27 13/3/11
f 29/3/27 21/6/19 30/6/28
f 25/4/23 27/4/25 11/4/9
f 27/4/25 25/4/23 12/4/10
f 19/6/17 28/3/26 31/6/29
f 28/3/26 19/6/17 10/3/8
f 26/3/24 23/6/21 14/3/12
f 23/6/21 26/3/24 17/6/15
f 22/5/20 18/5/16 32/5/30
f 18/5/16 22/5/20 15/5/13
f 11/4/9 28/3/26 10/3/8
f 28/3/26 11/4/9 27/4/25
f 23/6/21 15/5/13 22/5/20
f 15/5/13 23/6/21 17/6/15
f 32/5/30 19/6/17 31/6/29
f 19/6/17 32/5/30 18/5/16
f 21/6/19 32/5/30 30/6/28
f 32/5/30 21/6/19 22/5/20
f 23/6/21 13/3/11 14/3/12
f 13/3/11 23/6/21 21/6/19
f 26/3/24 12/4/10 25/4/23
f 12/4/10 26/3/24 14/3/12
f 19/6/17 9/3/7 10/3/8
f 9/3/7 19/6/17 20/6/18
f 18/5/16 16/6/14 20/6/18
f 16/6/14 18/5/16 15/5/13
f 16/6/14 26/3/24 24/3/22
f 26/3/24 16/6/14 17/6/15
f 24/3/22 11/4/9 9/3/7
f 11/4/9 24/3/22 25/4/23
f 30/6/28 28/3/26 29/3/27
f 28/3/26 30/6/28 31/6/29
f 12/4/10 29/3/27 27/4/25
f 29/3/27 12/4/10 13/3/11
f 35/6/33 34/6/32 33/5/31
f 38/4/36 37/3/35 36/3/34
f 41/6/39 40/6/38 39/5/37
f 44/5/42 43/6/41 42/6/40
f 47/3/45 46/3/44 45/4/43
f 50/6/48 49/5/47 48/6/46
f 53/3/51 52/4/50 51/3/49
f 56/3/54 55/3/53 54/4/52
f 34/6/32 46/3/44 43/6/41
f 46/3/44 34/6/32 37/3/35
f 53/3/51 50/6/48 56/3/54
f 50/6/48 53/3/51 41/6/39
f 49/5/47 33/5/31 44/5/42
f 33/5/31 49/5/47 39/5/37
f 48/6/46 47/3/45 55/3/53
f 47/3/45 48/6/46 42/6/40
f 35/6/33 51/3/49 36/3/34
f 51/3/49 35/6/33 40/6/38
f 52/4/50 45/4/43 38/4/36
f 45/4/43 52/4/50 54/4/52
f 34/6/32 36/3/34 37/3/35
f 36/3/34 34/6/32 35/6/33
f 42/6/40 46/3/44 47/3/45
f 46/3/44 42/6/40 43/6/41
f 44/5/42 34/6/32 43/6/41
f 34/6/32 44/5/42 33/5/31
f 40/6/38 53/3/51 51/3/49
f 53/3/51 40/6/38 41/6/39
f 38/4/36 46/3/44 37/3/35
f 46/3/44 38/4/36 45/4/43
f 50/6/48 39/5/37 49/5/47
f 39/5/37 50/6/48 41/6/39
f 50/6/48 55/3/53 56/3/54
f 55/3/53 50/6/48 48/6/46
f 53/3/51 54/4/52 52/4/50
f 54/4/52 53/3/51 56/3/54
f 39/5/37 35/6/33 33/5/31
f 35/6/33 39/5/37 40/6/38
f 48/6/46 44/5/42 42/6/40
f 44/5/42 48/6/46 49/5/47
f 54/4/52 47/3/45 45/4/43
f 47/3/45 54/4/52 55/3/53
f 51/3/49 38/4/36 36/3/34
f 38/4/36 51/3/49 52/4/50
f 59/5/42 58/6/41 57/6/40
f 62/6/39 61/6/38 60/5/37
f 65/3/51 64/4/50 63/3/49
f 68/6/48 67/5/47 66/6/46
f 71/6/33 70/6/32 69/5/31
f 74/3/45 73/3/44 72/4/43
f 77/4/36 76/3/35 75/3/34
f 80/3/54 79/3/53 78/4/52
f 67/5/47 69/5/31 59/5/42
f 69/5/31 67/5/47 60/5/37
f 64/4/50 72/4/43 77/4/36
f 72/4/43 64/4/50 78/4/52
f 71/6/33 63/3/49 75/3/34
f 63/3/49 71/6/33 61/6/38
f 70/6/32 73/3/44 58/6/41
f 73/3/44 70/6/32 76/3/35
f 66/6/46 74/3/45 79/3/53
f 74/3/45 66/6/46 57/6/40
f 65/3/51 68/6/48 80/3/54
f 68/6/48 65/3/51 62/6/39
f 68/6/48 79/3/53 80/3/54
f 79/3/53 68/6/48 66/6/46
f 77/4/36 73/3/44 76/3/35
f 73/3/44 77/4/36 72/4/43
f 57/6/40 73/3/44 74/3/45
f 73/3/44 57/6/40 58/6/41
f 70/6/32 75/3/34 76/3/35
f 75/3/34 70/6/32 71/6/33
f 61/6/38 65/3/51 63/3/49
f 65/3/51 61/6/38 62/6/39
f 78/4/52 74/3/45 72/4/43
f 74/3/45 78/4/52 79/3/53
f 60/5/37 71/6/33 69/5/31
f 71/6/33 60/5/37 61/6/38
f 59/5/42 70/6/32 58/6/41
f 70/6/32 59/5/42 69/5/31
f 66/6/46 59/5/42 57/6/40
f 59/5/42 66/6/46 67/5/47
f 68/6/48 60/5/37 67/5/47
f 60/5/37 68/6/48 62/6/39
f 63/3/49 77/4/36 75/3/34
f 77/4/36 63/3/49 64/4/50
f 65/3/51 78/4/52 64/4/50
f 78/4/52 65/3/51 80/3/54
f 83/4/9 82/3/8 81/3/7
f 86/3/26 85/4/25 84/3/27
f 89/6/21 88/5/20 87/6/19
f 92/5/30 91/6/29 90/6/28
f 95/3/24 94/4/23 93/3/22
f 98/5/16 97/6/18 96/6/17
f 101/3/12 100/3/11 99/4/10
f 104/6/15 103/6/14 102/5/13
f 87/6/19 84/3/27 100/3/11
f 84/3/27 87/6/19 90/6/28
f 96/6/17 86/3/26 91/6/29
f 86/3/26 96/6/17 82/3/8
f 94/4/23 85/4/25 83/4/9
f 85/4/25 94/4/23 99/4/10
f 95/3/24 89/6/21 101/3/12
f 89/6/21 95/3/24 104/6/15
f 97/6/18 93/3/22 81/3/7
f 93/3/22 97/6/18 103/6/14
f 88/5/20 98/5/16 92/5/30
f 98/5/16 88/5/20 102/5/13
f 96/6/17 81/3/7 82/3/8
f 81/3/7 96/6/17 97/6/18
f 93/3/22 83/4/9 81/3/7
f 83/4/9 93/3/22 94/4/23
f 83/4/9 86/3/26 82/3/8
f 86/3/26 83/4/9 85/4/25
f 88/5/20 90/6/28 87/6/19
f 90/6/28 88/5/20 92/5/30
f 90/6/28 86/3/26 84/3/27
f 86/3/26 90/6/28 91/6/29
f 100/3/11 85/4/25 99/4/10
f 85/4/25 100/3/11 84/3/27
f 95/3/24 99/4/10 94/4/23
f 99/4/10 95/3/24 101/3/12
f 103/6/14 95/3/24 93/3/22
f 95/3/24 103/6/14 104/6/15
f 89/6/21 100/3/11 101/3/12
f 100/3/11 89/6/21 87/6/19
f 98/5/16 103/6/14 97/6/18
f 103/6/14 98/5/16 102/5/13
f 92/5/30 96/6/17 91/6/29
f 96/6/17 92/5/30 98/5/16
f 89/6/21 102/5/13 88/5/20
f 102/5/13 89/6/21 104/6/15

