# Created by Kenney (www.kenney.nl)

mtllib coin-silver.mtl

g coin-silver

v 0 0 -0.0875 1 1 1
v 0.15 0.05 -0.0875 1 1 1
v -0.15 0.05 -0.0875 1 1 1
v 0 0.06324555 -0.0875 1 1 1
v -0.1025658 0.09743416 -0.0875 1 1 1
v 0.1025658 0.09743416 -0.0875 1 1 1
v -0.2 0.2 -0.0875 1 1 1
v -0.1367544 0.2 -0.0875 1 1 1
v 0.2 0.2 -0.0875 1 1 1
v 0.1367544 0.2 -0.0875 1 1 1
v 0.1025658 0.3025658 -0.0875 1 1 1
v -0.15 0.35 -0.0875 1 1 1
v 0.15 0.35 -0.0875 1 1 1
v -0.1025658 0.3025658 -0.0875 1 1 1
v 0 0.3367544 -0.0875 1 1 1
v 0 0.4 -0.0875 1 1 1
v 0.15 0.35 0.0875 1 1 1
v 0.2 0.2 0.0875 1 1 1
v 0.15 0.05 0.0875 1 1 1
v -0.15 0.05 0.0875 1 1 1
v -0.2 0.2 0.0875 1 1 1
v 0.1025658 0.3025658 0.0875 1 1 1
v 0.08820662 0.2882066 0.0375 1 1 1
v -7.219114E-16 0.3367544 0.0875 1 1 1
v -2.887646E-15 0.3176088 0.0375 1 1 1
v 0 0 0.0875 1 1 1
v 0 0.06324555 0.0875 1 1 1
v 0.1025658 0.09743416 0.0875 1 1 1
v -0.1025658 0.09743416 0.0875 1 1 1
v 0.1367544 0.2 0.0875 1 1 1
v -0.1367544 0.2 0.0875 1 1 1
v -0.1025658 0.3025658 0.0875 1 1 1
v -0.15 0.35 0.0875 1 1 1
v 0 0.4 0.0875 1 1 1
v 0.08820662 0.1117934 0.0375 1 1 1
v -2.887646E-15 0.08239117 0.0375 1 1 1
v -0.1176088 0.2 0.0375 1 1 1
v -0.08820662 0.1117934 0.0375 1 1 1
v -0.08820662 0.2882066 0.0375 1 1 1
v 0.1176088 0.2 0.0375 1 1 1
v -3.609557E-15 0.1299782 0.0375 1 1 1
v -0.05251637 0.1474836 0.0375 1 1 1
v 0.05251637 0.1474836 0.0375 1 1 1
v -0.07002183 0.2 0.0375 1 1 1
v 0.07002183 0.2 0.0375 1 1 1
v -0.05251637 0.2525164 0.0375 1 1 1
v 0.05251637 0.2525164 0.0375 1 1 1
v -2.887646E-15 0.2700218 0.0375 1 1 1
v -0.08820662 0.2882066 -0.0375 1 1 1
v -0.1176088 0.2 -0.0375 1 1 1
v 3.609557E-15 0.1299782 -0.0375 1 1 1
v 0.05251637 0.1474836 -0.0375 1 1 1
v -0.05251637 0.1474836 -0.0375 1 1 1
v 0.07002183 0.2 -0.0375 1 1 1
v -0.07002183 0.2 -0.0375 1 1 1
v -0.05251637 0.2525164 -0.0375 1 1 1
v 0.05251637 0.2525164 -0.0375 1 1 1
v 2.887646E-15 0.2700218 -0.0375 1 1 1
v 2.887646E-15 0.08239117 -0.0375 1 1 1
v -0.08820662 0.1117934 -0.0375 1 1 1
v 2.887646E-15 0.3176088 -0.0375 1 1 1
v 0.1176088 0.2 -0.0375 1 1 1
v 0.08820662 0.2882066 -0.0375 1 1 1
v 0.08820662 0.1117934 -0.0375 1 1 1
v -2.887646E-15 0.08239117 0.0375 1 1 1
v -0.08820662 0.1117934 0.0375 1 1 1
v 0.08820662 0.1117934 0.0375 1 1 1
v -3.609557E-15 0.1299782 0.0375 1 1 1
v 0.05251637 0.1474836 0.0375 1 1 1
v -0.05251637 0.1474836 0.0375 1 1 1
v 0.1176088 0.2 0.0375 1 1 1
v 0.07002183 0.2 0.0375 1 1 1
v 0.05251637 0.2525164 0.0375 1 1 1
v -0.1176088 0.2 0.0375 1 1 1
v -0.07002183 0.2 0.0375 1 1 1
v -0.05251637 0.2525164 0.0375 1 1 1
v 0.08820662 0.2882066 0.0375 1 1 1
v -0.08820662 0.2882066 0.0375 1 1 1
v -2.887646E-15 0.2700218 0.0375 1 1 1
v -2.887646E-15 0.3176088 0.0375 1 1 1
v 0.08820662 0.1117934 -0.03750001 1 1 1
v -0.08820662 0.1117934 -0.03750001 1 1 1
v 3.609557E-15 0.1299782 -0.03750001 1 1 1
v -0.05251637 0.1474836 -0.03750001 1 1 1
v 0.05251637 0.1474836 -0.03750001 1 1 1
v -0.1176088 0.2 -0.03750001 1 1 1
v -0.07002183 0.2 -0.03750001 1 1 1
v 0.1176088 0.2 -0.03750001 1 1 1
v 0.07002183 0.2 -0.03750001 1 1 1
v 0.05251637 0.2525164 -0.03750001 1 1 1
v -0.08820662 0.2882066 -0.03750001 1 1 1
v 0.08820662 0.2882066 -0.03750001 1 1 1
v -0.05251637 0.2525164 -0.03750001 1 1 1
v 2.887646E-15 0.2700218 -0.03750001 1 1 1
v 2.887646E-15 0.3176088 -0.03750001 1 1 1

vn 0 0 -1
vn 0.7071068 0.7071068 0
vn 1 0 0
vn 0.7071068 -0.7071068 0
vn -0.7071068 -0.7071068 0
vn -1 0 0
vn -0.6551359 -0.6551359 0.3762895
vn 0 -0.9338774 0.3575933
vn 0 0 1
vn -0.6551359 0.6551359 0.3762895
vn 0 0.9338774 0.3575933
vn 0.9338774 0 0.3575933
vn 0.6551359 0.6551359 0.3762895
vn 0.6551359 -0.6551359 0.3762895
vn -0.9338774 0 0.3575933
vn 0 1 0
vn -0.7071068 0.7071068 0
vn 0 -1 0
vn 0.6551359 -0.6551359 -0.3762896
vn 0.9338774 0 -0.3575933
vn 0 0.9338774 -0.3575933
vn 0.6551359 0.6551359 -0.3762896
vn 0 -0.9338774 -0.3575933
vn -0.9338774 0 -0.3575933
vn -0.6551359 -0.6551359 -0.3762896
vn -0.6551359 0.6551359 -0.3762896

vt 0.21875 0.275
vt 0.21875 0.3
vt 0.21875 0.3066228
vt 0.21875 0.3237171
vt 0.21875 0.375
vt 0.21875 0.4262829
vt 0.21875 0.45
vt 0.21875 0.4433772
vt 0.21875 0.475
vt 0.21875 0.4191033
vt 0.21875 0.4338044
vt 0.21875 0.3308967
vt 0.21875 0.3161956
vt 0.21875 0.3399891
vt 0.21875 0.3487418
vt 0.21875 0.4012582
vt 0.21875 0.4100109
vt 0.96875 0.225
vt 0.96875 0.2
vt 0.96875 0.1845379
vt 0.96875 0.1696534
vt 0.96875 0.125
vt 0.96875 0.08034657
vt 0.96875 0.05
vt 0.96875 0.0654621
vt 0.96875 0.025

usemtl colormap

f 3/2/1 2/2/1 1/1/1
f 2/2/1 3/2/1 4/3/1
f 4/3/1 3/2/1 5/4/1
f 6/4/1 2/2/1 4/3/1
f 5/4/1 3/2/1 7/5/1
f 5/4/1 7/5/1 8/5/1
f 2/2/1 6/4/1 9/5/1
f 9/5/1 6/4/1 10/5/1
f 9/5/1 10/5/1 11/6/1
f 8/5/1 7/5/1 12/7/1
f 9/5/1 11/6/1 13/7/1
f 8/5/1 12/7/1 14/6/1
f 13/7/1 11/6/1 15/8/1
f 14/6/1 12/7/1 15/8/1
f 13/7/1 15/8/1 12/7/1
f 13/7/1 12/7/1 16/9/1
f 17/7/2 9/5/3 13/7/2
f 9/5/3 17/7/2 18/5/3
f 18/5/3 2/2/4 9/5/3
f 2/2/4 18/5/3 19/2/4
f 20/2/5 7/5/6 3/2/5
f 7/5/6 20/2/5 21/5/6
f 24/8/8 23/10/7 22/6/7
f 23/10/7 24/8/8 25/11/8
f 19/2/9 20/2/9 26/1/9
f 20/2/9 19/2/9 27/3/9
f 27/3/9 19/2/9 28/4/9
f 29/4/9 20/2/9 27/3/9
f 28/4/9 19/2/9 18/5/9
f 28/4/9 18/5/9 30/5/9
f 20/2/9 29/4/9 21/5/9
f 21/5/9 29/4/9 31/5/9
f 21/5/9 31/5/9 32/6/9
f 30/5/9 18/5/9 17/7/9
f 21/5/9 32/6/9 33/7/9
f 30/5/9 17/7/9 22/6/9
f 33/7/9 32/6/9 24/8/9
f 22/6/9 17/7/9 24/8/9
f 33/7/9 24/8/9 17/7/9
f 33/7/9 17/7/9 34/9/9
f 35/12/10 27/3/11 28/4/10
f 27/3/11 35/12/10 36/13/11
f 31/5/12 38/12/13 37/5/12
f 38/12/13 31/5/12 29/4/13
f 32/6/14 25/11/8 24/8/8
f 25/11/8 32/6/14 39/10/14
f 30/5/15 23/10/7 40/5/15
f 23/10/7 30/5/15 22/6/7
f 36/13/11 29/4/13 27/3/11
f 29/4/13 36/13/11 38/12/13
f 32/6/14 37/5/12 39/10/14
f 37/5/12 32/6/14 31/5/12
f 43/15/9 42/15/9 41/14/9
f 42/15/9 43/15/9 44/5/9
f 44/5/9 43/15/9 45/5/9
f 44/5/9 45/5/9 46/16/9
f 46/16/9 45/5/9 47/16/9
f 46/16/9 47/16/9 48/17/9
f 28/4/10 40/5/15 35/12/10
f 40/5/15 28/4/10 30/5/15
f 12/7/17 34/9/16 16/9/16
f 34/9/16 12/7/17 33/7/17
f 16/9/16 17/7/2 13/7/2
f 17/7/2 16/9/16 34/9/16
f 20/2/5 1/1/18 26/1/18
f 1/1/18 20/2/5 3/2/5
f 21/5/6 12/7/17 7/5/6
f 12/7/17 21/5/6 33/7/17
f 26/1/18 2/2/4 19/2/4
f 2/2/4 26/1/18 1/1/18
f 49/10/19 8/5/20 14/6/19
f 8/5/20 49/10/19 50/5/20
f 53/15/1 52/15/1 51/14/1
f 52/15/1 53/15/1 54/5/1
f 54/5/1 53/15/1 55/5/1
f 54/5/1 55/5/1 56/16/1
f 54/5/1 56/16/1 57/16/1
f 57/16/1 56/16/1 58/17/1
f 4/3/21 60/12/22 59/13/21
f 60/12/22 4/3/21 5/4/22
f 50/5/20 5/4/22 8/5/20
f 5/4/22 50/5/20 60/12/22
f 49/10/19 15/8/23 61/11/23
f 15/8/23 49/10/19 14/6/19
f 62/5/24 11/6/25 10/5/24
f 11/6/25 62/5/24 63/10/25
f 64/12/26 10/5/24 6/4/26
f 10/5/24 64/12/26 62/5/24
f 4/3/21 64/12/26 6/4/26
f 64/12/26 4/3/21 59/13/21
f 63/10/25 15/8/23 11/6/25
f 15/8/23 63/10/25 61/11/23
f 67/19/9 66/19/9 65/18/9
f 66/19/9 67/19/9 68/20/9
f 67/19/9 69/21/9 68/20/9
f 66/19/9 68/20/9 70/21/9
f 69/21/9 67/19/9 71/22/9
f 69/21/9 71/22/9 72/22/9
f 72/22/9 71/22/9 73/23/9
f 66/19/9 70/21/9 74/22/9
f 74/22/9 70/21/9 75/22/9
f 74/22/9 75/22/9 76/23/9
f 73/23/9 71/22/9 77/24/9
f 74/22/9 76/23/9 78/24/9
f 73/23/9 77/24/9 79/25/9
f 78/24/9 76/23/9 79/25/9
f 78/24/9 79/25/9 77/24/9
f 78/24/9 77/24/9 80/26/9
f 82/19/1 81/19/1 59/18/1
f 81/19/1 82/19/1 83/20/1
f 83/20/1 82/19/1 84/21/1
f 85/21/1 81/19/1 83/20/1
f 84/21/1 82/19/1 86/22/1
f 84/21/1 86/22/1 87/22/1
f 81/19/1 85/21/1 88/22/1
f 88/22/1 85/21/1 89/22/1
f 88/22/1 89/22/1 90/23/1
f 87/22/1 86/22/1 91/24/1
f 88/22/1 90/23/1 92/24/1
f 87/22/1 91/24/1 93/23/1
f 92/24/1 90/23/1 94/25/1
f 93/23/1 91/24/1 94/25/1
f 92/24/1 94/25/1 91/24/1
f 92/24/1 91/24/1 95/26/1

g coin-silver




usemtl colormap

f 3/2/1 2/2/1 1/1/1
f 2/2/1 3/2/1 4/3/1
f 4/3/1 3/2/1 5/4/1
f 6/4/1 2/2/1 4/3/1
f 5/4/1 3/2/1 7/5/1
f 5/4/1 7/5/1 8/5/1
f 2/2/1 6/4/1 9/5/1
f 9/5/1 6/4/1 10/5/1
f 9/5/1 10/5/1 11/6/1
f 8/5/1 7/5/1 12/7/1
f 9/5/1 11/6/1 13/7/1
f 8/5/1 12/7/1 14/6/1
f 13/7/1 11/6/1 15/8/1
f 14/6/1 12/7/1 15/8/1
f 13/7/1 15/8/1 12/7/1
f 13/7/1 12/7/1 16/9/1
f 17/7/2 9/5/3 13/7/2
f 9/5/3 17/7/2 18/5/3
f 18/5/3 2/2/4 9/5/3
f 2/2/4 18/5/3 19/2/4
f 20/2/5 7/5/6 3/2/5
f 7/5/6 20/2/5 21/5/6
f 24/8/8 23/10/7 22/6/7
f 23/10/7 24/8/8 25/11/8
f 19/2/9 20/2/9 26/1/9
f 20/2/9 19/2/9 27/3/9
f 27/3/9 19/2/9 28/4/9
f 29/4/9 20/2/9 27/3/9
f 28/4/9 19/2/9 18/5/9
f 28/4/9 18/5/9 30/5/9
f 20/2/9 29/4/9 21/5/9
f 21/5/9 29/4/9 31/5/9
f 21/5/9 31/5/9 32/6/9
f 30/5/9 18/5/9 17/7/9
f 21/5/9 32/6/9 33/7/9
f 30/5/9 17/7/9 22/6/9
f 33/7/9 32/6/9 24/8/9
f 22/6/9 17/7/9 24/8/9
f 33/7/9 24/8/9 17/7/9
f 33/7/9 17/7/9 34/9/9
f 35/12/10 27/3/11 28/4/10
f 27/3/11 35/12/10 36/13/11
f 31/5/12 38/12/13 37/5/12
f 38/12/13 31/5/12 29/4/13
f 32/6/14 25/11/8 24/8/8
f 25/11/8 32/6/14 39/10/14
f 30/5/15 23/10/7 40/5/15
f 23/10/7 30/5/15 22/6/7
f 36/13/11 29/4/13 27/3/11
f 29/4/13 36/13/11 38/12/13
f 32/6/14 37/5/12 39/10/14
f 37/5/12 32/6/14 31/5/12
f 43/15/9 42/15/9 41/14/9
f 42/15/9 43/15/9 44/5/9
f 44/5/9 43/15/9 45/5/9
f 44/5/9 45/5/9 46/16/9
f 46/16/9 45/5/9 47/16/9
f 46/16/9 47/16/9 48/17/9
f 28/4/10 40/5/15 35/12/10
f 40/5/15 28/4/10 30/5/15
f 12/7/17 34/9/16 16/9/16
f 34/9/16 12/7/17 33/7/17
f 16/9/16 17/7/2 13/7/2
f 17/7/2 16/9/16 34/9/16
f 20/2/5 1/1/18 26/1/18
f 1/1/18 20/2/5 3/2/5
f 21/5/6 12/7/17 7/5/6
f 12/7/17 21/5/6 33/7/17
f 26/1/18 2/2/4 19/2/4
f 2/2/4 26/1/18 1/1/18
f 49/10/19 8/5/20 14/6/19
f 8/5/20 49/10/19 50/5/20
f 53/15/1 52/15/1 51/14/1
f 52/15/1 53/15/1 54/5/1
f 54/5/1 53/15/1 55/5/1
f 54/5/1 55/5/1 56/16/1
f 54/5/1 56/16/1 57/16/1
f 57/16/1 56/16/1 58/17/1
f 4/3/21 60/12/22 59/13/21
f 60/12/22 4/3/21 5/4/22
f 50/5/20 5/4/22 8/5/20
f 5/4/22 50/5/20 60/12/22
f 49/10/19 15/8/23 61/11/23
f 15/8/23 49/10/19 14/6/19
f 62/5/24 11/6/25 10/5/24
f 11/6/25 62/5/24 63/10/25
f 64/12/26 10/5/24 6/4/26
f 10/5/24 64/12/26 62/5/24
f 4/3/21 64/12/26 6/4/26
f 64/12/26 4/3/21 59/13/21
f 63/10/25 15/8/23 11/6/25
f 15/8/23 63/10/25 61/11/23
f 67/19/9 66/19/9 65/18/9
f 66/19/9 67/19/9 68/20/9
f 67/19/9 69/21/9 68/20/9
f 66/19/9 68/20/9 70/21/9
f 69/21/9 67/19/9 71/22/9
f 69/21/9 71/22/9 72/22/9
f 72/22/9 71/22/9 73/23/9
f 66/19/9 70/21/9 74/22/9
f 74/22/9 70/21/9 75/22/9
f 74/22/9 75/22/9 76/23/9
f 73/23/9 71/22/9 77/24/9
f 74/22/9 76/23/9 78/24/9
f 73/23/9 77/24/9 79/25/9
f 78/24/9 76/23/9 79/25/9
f 78/24/9 79/25/9 77/24/9
f 78/24/9 77/24/9 80/26/9
f 82/19/1 81/19/1 59/18/1
f 81/19/1 82/19/1 83/20/1
f 83/20/1 82/19/1 84/21/1
f 85/21/1 81/19/1 83/20/1
f 84/21/1 82/19/1 86/22/1
f 84/21/1 86/22/1 87/22/1
f 81/19/1 85/21/1 88/22/1
f 88/22/1 85/21/1 89/22/1
f 88/22/1 89/22/1 90/23/1
f 87/22/1 86/22/1 91/24/1
f 88/22/1 90/23/1 92/24/1
f 87/22/1 91/24/1 93/23/1
f 92/24/1 90/23/1 94/25/1
f 93/23/1 91/24/1 94/25/1
f 92/24/1 94/25/1 91/24/1
f 92/24/1 91/24/1 95/26/1

