# Created by Kenney (www.kenney.nl)

mtllib coin-gold.mtl

g coin-gold

v 0 0 -0.0875 1 1 1
v 0.15 0.05 -0.0875 1 1 1
v -0.15 0.05 -0.0875 1 1 1
v 0 0.06324555 -0.0875 1 1 1
v -0.1025658 0.09743416 -0.0875 1 1 1
v 0.1025658 0.09743416 -0.0875 1 1 1
v -0.2 0.2 -0.0875 1 1 1
v -0.1367544 0.2 -0.0875 1 1 1
v 0.2 0.2 -0.0875 1 1 1
v 0.1367544 0.2 -0.0875 1 1 1
v 0.1025658 0.3025658 -0.0875 1 1 1
v -0.15 0.35 -0.0875 1 1 1
v 0.15 0.35 -0.0875 1 1 1
v -0.1025658 0.3025658 -0.0875 1 1 1
v 0 0.3367544 -0.0875 1 1 1
v 0 0.4 -0.0875 1 1 1
v 0.15 0.35 0.0875 1 1 1
v 0.2 0.2 0.0875 1 1 1
v 0.15 0.05 0.0875 1 1 1
v -0.15 0.05 0.0875 1 1 1
v -0.2 0.2 0.0875 1 1 1
v 0.1025658 0.3025658 0.0875 1 1 1
v 0.08820662 0.2882066 0.0375 1 1 1
v -7.219114E-16 0.3367544 0.0875 1 1 1
v -2.887646E-15 0.3176088 0.0375 1 1 1
v 0 0 0.0875 1 1 1
v 0 0.06324555 0.0875 1 1 1
v 0.1025658 0.09743416 0.0875 1 1 1
v -0.1025658 0.09743416 0.0875 1 1 1
v 0.1367544 0.2 0.0875 1 1 1
v -0.1367544 0.2 0.0875 1 1 1
v -0.1025658 0.3025658 0.0875 1 1 1
v -0.15 0.35 0.0875 1 1 1
v 0 0.4 0.0875 1 1 1
v 0.08820662 0.1117934 0.0375 1 1 1
v -2.887646E-15 0.08239117 0.0375 1 1 1
v -0.1176088 0.2 0.0375 1 1 1
v -0.08820662 0.1117934 0.0375 1 1 1
v -0.08820662 0.2882066 0.0375 1 1 1
v 0.1176088 0.2 0.0375 1 1 1
v -3.609557E-15 0.1299782 0.0375 1 1 1
v -0.05251637 0.1474836 0.0375 1 1 1
v 0.05251637 0.1474836 0.0375 1 1 1
v -0.07002183 0.2 0.0375 1 1 1
v 0.07002183 0.2 0.0375 1 1 1
v -0.05251637 0.2525164 0.0375 1 1 1
v 0.05251637 0.2525164 0.0375 1 1 1
v -2.887646E-15 0.2700218 0.0375 1 1 1
v -0.08820662 0.2882066 -0.0375 1 1 1
v -0.1176088 0.2 -0.0375 1 1 1
v 3.609557E-15 0.1299782 -0.0375 1 1 1
v 0.05251637 0.1474836 -0.0375 1 1 1
v -0.05251637 0.1474836 -0.0375 1 1 1
v 0.07002183 0.2 -0.0375 1 1 1
v -0.07002183 0.2 -0.0375 1 1 1
v -0.05251637 0.2525164 -0.0375 1 1 1
v 0.05251637 0.2525164 -0.0375 1 1 1
v 2.887646E-15 0.2700218 -0.0375 1 1 1
v 2.887646E-15 0.08239117 -0.0375 1 1 1
v -0.08820662 0.1117934 -0.0375 1 1 1
v 2.887646E-15 0.3176088 -0.0375 1 1 1
v 0.1176088 0.2 -0.0375 1 1 1
v 0.08820662 0.2882066 -0.0375 1 1 1
v 0.08820662 0.1117934 -0.0375 1 1 1
v -2.887646E-15 0.08239117 0.0375 1 1 1
v -0.08820662 0.1117934 0.0375 1 1 1
v 0.08820662 0.1117934 0.0375 1 1 1
v -3.609557E-15 0.1299782 0.0375 1 1 1
v 0.05251637 0.1474836 0.0375 1 1 1
v -0.05251637 0.1474836 0.0375 1 1 1
v 0.1176088 0.2 0.0375 1 1 1
v 0.07002183 0.2 0.0375 1 1 1
v 0.05251637 0.2525164 0.0375 1 1 1
v -0.1176088 0.2 0.0375 1 1 1
v -0.07002183 0.2 0.0375 1 1 1
v -0.05251637 0.2525164 0.0375 1 1 1
v 0.08820662 0.2882066 0.0375 1 1 1
v -0.08820662 0.2882066 0.0375 1 1 1
v -2.887646E-15 0.2700218 0.0375 1 1 1
v -2.887646E-15 0.3176088 0.0375 1 1 1
v 0.08820662 0.1117934 -0.03750001 1 1 1
v -0.08820662 0.1117934 -0.03750001 1 1 1
v 3.609557E-15 0.1299782 -0.03750001 1 1 1
v -0.05251637 0.1474836 -0.03750001 1 1 1
v 0.05251637 0.1474836 -0.03750001 1 1 1
v -0.1176088 0.2 -0.03750001 1 1 1
v -0.07002183 0.2 -0.03750001 1 1 1
v 0.1176088 0.2 -0.03750001 1 1 1
v 0.07002183 0.2 -0.03750001 1 1 1
v 0.05251637 0.2525164 -0.03750001 1 1 1
v -0.08820662 0.2882066 -0.03750001 1 1 1
v 0.08820662 0.2882066 -0.03750001 1 1 1
v -0.05251637 0.2525164 -0.03750001 1 1 1
v 2.887646E-15 0.2700218 -0.03750001 1 1 1
v 2.887646E-15 0.3176088 -0.03750001 1 1 1

vn 0 0 -1
vn 0.9486833 0.3162278 0
vn 0.9486833 -0.3162278 0
vn -0.9486833 -0.3162278 0
vn -0.2972244 -0.8916733 0.3414328
vn 0 0 1
vn -0.2972244 0.8916733 0.3414328
vn 0.8916733 0.2972244 0.3414328
vn 0.2972244 -0.8916733 0.3414328
vn -0.8916733 -0.2972244 0.3414328
vn 0.2972244 0.8916733 0.3414328
vn 0.8916733 -0.2972244 0.3414328
vn -0.8916733 0.2972244 0.3414328
vn -0.3162278 0.9486833 0
vn 0.3162278 0.9486833 0
vn -0.3162278 -0.9486833 0
vn -0.9486833 0.3162278 0
vn 0.3162278 -0.9486833 0
vn 0.8916733 -0.2972245 -0.3414328
vn 0.2972245 0.8916733 -0.3414328
vn 0.8916733 0.2972245 -0.3414328
vn 0.2972245 -0.8916733 -0.3414328
vn -0.8916733 -0.2972245 -0.3414328
vn -0.8916733 0.2972245 -0.3414328
vn -0.2972245 0.8916733 -0.3414328
vn -0.2972245 -0.8916733 -0.3414328

vt 0.09375 0.525
vt 0.09375 0.55
vt 0.09375 0.5566227
vt 0.09375 0.5737171
vt 0.09375 0.625
vt 0.09375 0.6762829
vt 0.09375 0.7
vt 0.09375 0.6933772
vt 0.09375 0.725
vt 0.09375 0.6691033
vt 0.09375 0.6838044
vt 0.09375 0.5808967
vt 0.09375 0.5661956
vt 0.09375 0.5899891
vt 0.09375 0.5987418
vt 0.09375 0.6512582
vt 0.09375 0.6600109
vt 0.46875 0.475
vt 0.46875 0.45
vt 0.46875 0.4345379
vt 0.46875 0.4196534
vt 0.46875 0.375
vt 0.46875 0.3303466
vt 0.46875 0.3
vt 0.46875 0.3154621
vt 0.46875 0.275

usemtl colormap

f 3/2/1 2/2/1 1/1/1
f 2/2/1 3/2/1 4/3/1
f 4/3/1 3/2/1 5/4/1
f 6/4/1 2/2/1 4/3/1
f 5/4/1 3/2/1 7/5/1
f 5/4/1 7/5/1 8/5/1
f 2/2/1 6/4/1 9/5/1
f 9/5/1 6/4/1 10/5/1
f 9/5/1 10/5/1 11/6/1
f 8/5/1 7/5/1 12/7/1
f 9/5/1 11/6/1 13/7/1
f 8/5/1 12/7/1 14/6/1
f 13/7/1 11/6/1 15/8/1
f 14/6/1 12/7/1 15/8/1
f 13/7/1 15/8/1 12/7/1
f 13/7/1 12/7/1 16/9/1
f 17/7/2 9/5/2 13/7/2
f 9/5/2 17/7/2 18/5/2
f 18/5/3 2/2/3 9/5/3
f 2/2/3 18/5/3 19/2/3
f 20/2/4 7/5/4 3/2/4
f 7/5/4 20/2/4 21/5/4
f 24/8/5 23/10/5 22/6/5
f 23/10/5 24/8/5 25/11/5
f 19/2/6 20/2/6 26/1/6
f 20/2/6 19/2/6 27/3/6
f 27/3/6 19/2/6 28/4/6
f 29/4/6 20/2/6 27/3/6
f 28/4/6 19/2/6 18/5/6
f 28/4/6 18/5/6 30/5/6
f 20/2/6 29/4/6 21/5/6
f 21/5/6 29/4/6 31/5/6
f 21/5/6 31/5/6 32/6/6
f 30/5/6 18/5/6 17/7/6
f 21/5/6 32/6/6 33/7/6
f 30/5/6 17/7/6 22/6/6
f 33/7/6 32/6/6 24/8/6
f 22/6/6 17/7/6 24/8/6
f 33/7/6 24/8/6 17/7/6
f 33/7/6 17/7/6 34/9/6
f 35/12/7 27/3/7 28/4/7
f 27/3/7 35/12/7 36/13/7
f 31/5/8 38/12/8 37/5/8
f 38/12/8 31/5/8 29/4/8
f 32/6/9 25/11/9 24/8/9
f 25/11/9 32/6/9 39/10/9
f 30/5/10 23/10/10 40/5/10
f 23/10/10 30/5/10 22/6/10
f 36/13/11 29/4/11 27/3/11
f 29/4/11 36/13/11 38/12/11
f 32/6/12 37/5/12 39/10/12
f 37/5/12 32/6/12 31/5/12
f 43/15/6 42/15/6 41/14/6
f 42/15/6 43/15/6 44/5/6
f 44/5/6 43/15/6 45/5/6
f 44/5/6 45/5/6 46/16/6
f 46/16/6 45/5/6 47/16/6
f 46/16/6 47/16/6 48/17/6
f 28/4/13 40/5/13 35/12/13
f 40/5/13 28/4/13 30/5/13
f 12/7/14 34/9/14 16/9/14
f 34/9/14 12/7/14 33/7/14
f 16/9/15 17/7/15 13/7/15
f 17/7/15 16/9/15 34/9/15
f 20/2/16 1/1/16 26/1/16
f 1/1/16 20/2/16 3/2/16
f 21/5/17 12/7/17 7/5/17
f 12/7/17 21/5/17 33/7/17
f 26/1/18 2/2/18 19/2/18
f 2/2/18 26/1/18 1/1/18
f 49/10/19 8/5/19 14/6/19
f 8/5/19 49/10/19 50/5/19
f 53/15/1 52/15/1 51/14/1
f 52/15/1 53/15/1 54/5/1
f 54/5/1 53/15/1 55/5/1
f 54/5/1 55/5/1 56/16/1
f 54/5/1 56/16/1 57/16/1
f 57/16/1 56/16/1 58/17/1
f 4/3/20 60/12/20 59/13/20
f 60/12/20 4/3/20 5/4/20
f 50/5/21 5/4/21 8/5/21
f 5/4/21 50/5/21 60/12/21
f 49/10/22 15/8/22 61/11/22
f 15/8/22 49/10/22 14/6/22
f 62/5/23 11/6/23 10/5/23
f 11/6/23 62/5/23 63/10/23
f 64/12/24 10/5/24 6/4/24
f 10/5/24 64/12/24 62/5/24
f 4/3/25 64/12/25 6/4/25
f 64/12/25 4/3/25 59/13/25
f 63/10/26 15/8/26 11/6/26
f 15/8/26 63/10/26 61/11/26
f 67/19/6 66/19/6 65/18/6
f 66/19/6 67/19/6 68/20/6
f 67/19/6 69/21/6 68/20/6
f 66/19/6 68/20/6 70/21/6
f 69/21/6 67/19/6 71/22/6
f 69/21/6 71/22/6 72/22/6
f 72/22/6 71/22/6 73/23/6
f 66/19/6 70/21/6 74/22/6
f 74/22/6 70/21/6 75/22/6
f 74/22/6 75/22/6 76/23/6
f 73/23/6 71/22/6 77/24/6
f 74/22/6 76/23/6 78/24/6
f 73/23/6 77/24/6 79/25/6
f 78/24/6 76/23/6 79/25/6
f 78/24/6 79/25/6 77/24/6
f 78/24/6 77/24/6 80/26/6
f 82/19/1 81/19/1 59/18/1
f 81/19/1 82/19/1 83/20/1
f 83/20/1 82/19/1 84/21/1
f 85/21/1 81/19/1 83/20/1
f 84/21/1 82/19/1 86/22/1
f 84/21/1 86/22/1 87/22/1
f 81/19/1 85/21/1 88/22/1
f 88/22/1 85/21/1 89/22/1
f 88/22/1 89/22/1 90/23/1
f 87/22/1 86/22/1 91/24/1
f 88/22/1 90/23/1 92/24/1
f 87/22/1 91/24/1 93/23/1
f 92/24/1 90/23/1 94/25/1
f 93/23/1 91/24/1 94/25/1
f 92/24/1 94/25/1 91/24/1
f 92/24/1 91/24/1 95/26/1

g coin-gold




usemtl colormap

f 3/2/1 2/2/1 1/1/1
f 2/2/1 3/2/1 4/3/1
f 4/3/1 3/2/1 5/4/1
f 6/4/1 2/2/1 4/3/1
f 5/4/1 3/2/1 7/5/1
f 5/4/1 7/5/1 8/5/1
f 2/2/1 6/4/1 9/5/1
f 9/5/1 6/4/1 10/5/1
f 9/5/1 10/5/1 11/6/1
f 8/5/1 7/5/1 12/7/1
f 9/5/1 11/6/1 13/7/1
f 8/5/1 12/7/1 14/6/1
f 13/7/1 11/6/1 15/8/1
f 14/6/1 12/7/1 15/8/1
f 13/7/1 15/8/1 12/7/1
f 13/7/1 12/7/1 16/9/1
f 17/7/2 9/5/2 13/7/2
f 9/5/2 17/7/2 18/5/2
f 18/5/3 2/2/3 9/5/3
f 2/2/3 18/5/3 19/2/3
f 20/2/4 7/5/4 3/2/4
f 7/5/4 20/2/4 21/5/4
f 24/8/5 23/10/5 22/6/5
f 23/10/5 24/8/5 25/11/5
f 19/2/6 20/2/6 26/1/6
f 20/2/6 19/2/6 27/3/6
f 27/3/6 19/2/6 28/4/6
f 29/4/6 20/2/6 27/3/6
f 28/4/6 19/2/6 18/5/6
f 28/4/6 18/5/6 30/5/6
f 20/2/6 29/4/6 21/5/6
f 21/5/6 29/4/6 31/5/6
f 21/5/6 31/5/6 32/6/6
f 30/5/6 18/5/6 17/7/6
f 21/5/6 32/6/6 33/7/6
f 30/5/6 17/7/6 22/6/6
f 33/7/6 32/6/6 24/8/6
f 22/6/6 17/7/6 24/8/6
f 33/7/6 24/8/6 17/7/6
f 33/7/6 17/7/6 34/9/6
f 35/12/7 27/3/7 28/4/7
f 27/3/7 35/12/7 36/13/7
f 31/5/8 38/12/8 37/5/8
f 38/12/8 31/5/8 29/4/8
f 32/6/9 25/11/9 24/8/9
f 25/11/9 32/6/9 39/10/9
f 30/5/10 23/10/10 40/5/10
f 23/10/10 30/5/10 22/6/10
f 36/13/11 29/4/11 27/3/11
f 29/4/11 36/13/11 38/12/11
f 32/6/12 37/5/12 39/10/12
f 37/5/12 32/6/12 31/5/12
f 43/15/6 42/15/6 41/14/6
f 42/15/6 43/15/6 44/5/6
f 44/5/6 43/15/6 45/5/6
f 44/5/6 45/5/6 46/16/6
f 46/16/6 45/5/6 47/16/6
f 46/16/6 47/16/6 48/17/6
f 28/4/13 40/5/13 35/12/13
f 40/5/13 28/4/13 30/5/13
f 12/7/14 34/9/14 16/9/14
f 34/9/14 12/7/14 33/7/14
f 16/9/15 17/7/15 13/7/15
f 17/7/15 16/9/15 34/9/15
f 20/2/16 1/1/16 26/1/16
f 1/1/16 20/2/16 3/2/16
f 21/5/17 12/7/17 7/5/17
f 12/7/17 21/5/17 33/7/17
f 26/1/18 2/2/18 19/2/18
f 2/2/18 26/1/18 1/1/18
f 49/10/19 8/5/19 14/6/19
f 8/5/19 49/10/19 50/5/19
f 53/15/1 52/15/1 51/14/1
f 52/15/1 53/15/1 54/5/1
f 54/5/1 53/15/1 55/5/1
f 54/5/1 55/5/1 56/16/1
f 54/5/1 56/16/1 57/16/1
f 57/16/1 56/16/1 58/17/1
f 4/3/20 60/12/20 59/13/20
f 60/12/20 4/3/20 5/4/20
f 50/5/21 5/4/21 8/5/21
f 5/4/21 50/5/21 60/12/21
f 49/10/22 15/8/22 61/11/22
f 15/8/22 49/10/22 14/6/22
f 62/5/23 11/6/23 10/5/23
f 11/6/23 62/5/23 63/10/23
f 64/12/24 10/5/24 6/4/24
f 10/5/24 64/12/24 62/5/24
f 4/3/25 64/12/25 6/4/25
f 64/12/25 4/3/25 59/13/25
f 63/10/26 15/8/26 11/6/26
f 15/8/26 63/10/26 61/11/26
f 67/19/6 66/19/6 65/18/6
f 66/19/6 67/19/6 68/20/6
f 67/19/6 69/21/6 68/20/6
f 66/19/6 68/20/6 70/21/6
f 69/21/6 67/19/6 71/22/6
f 69/21/6 71/22/6 72/22/6
f 72/22/6 71/22/6 73/23/6
f 66/19/6 70/21/6 74/22/6
f 74/22/6 70/21/6 75/22/6
f 74/22/6 75/22/6 76/23/6
f 73/23/6 71/22/6 77/24/6
f 74/22/6 76/23/6 78/24/6
f 73/23/6 77/24/6 79/25/6
f 78/24/6 76/23/6 79/25/6
f 78/24/6 79/25/6 77/24/6
f 78/24/6 77/24/6 80/26/6
f 82/19/1 81/19/1 59/18/1
f 81/19/1 82/19/1 83/20/1
f 83/20/1 82/19/1 84/21/1
f 85/21/1 81/19/1 83/20/1
f 84/21/1 82/19/1 86/22/1
f 84/21/1 86/22/1 87/22/1
f 81/19/1 85/21/1 88/22/1
f 88/22/1 85/21/1 89/22/1
f 88/22/1 89/22/1 90/23/1
f 87/22/1 86/22/1 91/24/1
f 88/22/1 90/23/1 92/24/1
f 87/22/1 91/24/1 93/23/1
f 92/24/1 90/23/1 94/25/1
f 93/23/1 91/24/1 94/25/1
f 92/24/1 94/25/1 91/24/1
f 92/24/1 91/24/1 95/26/1

