# Created by Kenney (www.kenney.nl)

mtllib flowers.mtl

g flowers

v -0.08131666 0.04806441 -0.1847098 1 1 1
v -0.1030877 0.1130163 -0.1541767 1 1 1
v -0.1100356 0.07209662 -0.2563101 1 1 1
v -0.1318067 0.1370485 -0.225777 1 1 1
v -0.2050657 0.08660254 -0.01115655 1 1 1
v -0.2050657 8.4599E-18 -0.01115655 1 1 1
v -0.2316264 0.1130163 0.02609383 1 1 1
v -0.2533975 0.04806441 0.05662692 1 1 1
v -0.1296485 8.4599E-18 -0.1169263 1 1 1
v -0.1296485 0.08660254 -0.1169263 1 1 1
v -0.3086772 0.1370485 0.02227695 1 1 1
v -0.3304483 0.07209662 0.05281005 1 1 1
v -0.2138277 0.0649519 -0.06346072 1 1 1
v -0.3373961 0.1130163 -0.0493234 1 1 1
v -0.2585313 0.0649519 -0.0953358 1 1 1
v -0.3108354 0.08660254 -0.08657378 1 1 1
v -0.2266562 0.0649519 -0.1400394 1 1 1
v -0.3480858 0.1130163 -0.1131345 1 1 1
v -0.2354182 0.08660254 -0.1923435 1 1 1
v -0.3442689 0.1370485 -0.1901853 1 1 1
v -0.2726686 0.1130163 -0.2189042 1 1 1
v -0.1819526 0.0649519 -0.1081643 1 1 1
v -0.2088575 0.1130163 -0.2295939 1 1 1
v -0.3108354 8.4599E-18 -0.08657378 1 1 1
v -0.2354182 0 -0.1923435 1 1 1
v -0.09621496 0.1370485 -0.01331481 1 1 1
v -0.1678153 0.1130163 0.01540416 1 1 1
v -0.09239808 0.1130163 -0.09036559 1 1 1
v -0.06186499 0.04806441 -0.06859451 1 1 1
v -0.3591672 0.04806441 -0.0187903 1 1 1
v -0.3032017 0.04806441 -0.2406753 1 1 1
v -0.3748021 0.07209662 -0.2119564 1 1 1
v -0.3786189 0.04806441 -0.1349056 1 1 1
v -0.06568186 0.07209662 0.008456267 1 1 1
v -0.1372822 0.04806441 0.03717525 1 1 1
v -0.1870864 0.04806441 -0.260127 1 1 1
v 0.2155536 0.04806441 0.1115792 1 1 1
v 0.1986047 0.1130163 0.1450304 1 1 1
v 0.1764278 0.07209662 0.04509191 1 1 1
v 0.1594788 0.1370485 0.07854311 1 1 1
v 0.1192141 0.08660254 0.3017192 1 1 1
v 0.1192141 8.4599E-18 0.3017192 1 1 1
v 0.09853639 0.1130163 0.3425297 1 1 1
v 0.08158744 0.04806441 0.3759809 1 1 1
v 0.177927 8.4599E-18 0.1858409 1 1 1
v 0.177927 0.08660254 0.1858409 1 1 1
v 0.02178387 0.1370485 0.3503041 1 1 1
v 0.004834928 0.07209662 0.3837553 1 1 1
v 0.1027118 0.0649519 0.2513191 1 1 1
v -0.01734198 0.1130163 0.2838168 1 1 1
v 0.05373589 0.0649519 0.2265041 1 1 1
v 0.003335737 0.08660254 0.2430063 1 1 1
v 0.07855087 0.0649519 0.1775281 1 1 1
v -0.03747474 0.1130163 0.2223286 1 1 1
v 0.06204861 0.08660254 0.127128 1 1 1
v -0.04524914 0.1370485 0.1455761 1 1 1
v 0.02123814 0.1130163 0.1064503 1 1 1
v 0.1275268 0.0649519 0.2023431 1 1 1
v 0.08272633 0.1130163 0.08631751 1 1 1
v 0.003335737 8.4599E-18 0.2430063 1 1 1
v 0.06204861 0 0.127128 1 1 1
v 0.2265119 0.1370485 0.2832711 1 1 1
v 0.1600246 0.1130163 0.3223969 1 1 1
v 0.2187375 0.1130163 0.2065186 1 1 1
v 0.2521887 0.04806441 0.2234675 1 1 1
v -0.03429092 0.04806441 0.317268 1 1 1
v -0.01221306 0.04806441 0.08950133 1 1 1
v -0.07870034 0.07209662 0.1286272 1 1 1
v -0.07092594 0.04806441 0.2053797 1 1 1
v 0.2599631 0.07209662 0.30022 1 1 1
v 0.1934758 0.04806441 0.3393459 1 1 1
v 0.09967528 0.04806441 0.05286631 1 1 1
v 0.3505505 0.04806441 -0.1344746 1 1 1
v 0.3132121 0.1130163 -0.1379514 1 1 1
v 0.3980184 0.07209662 -0.1952874 1 1 1
v 0.3606799 0.1370485 -0.1987643 1 1 1
v 0.1383149 8.4599E-18 -0.1542374 1 1 1
v 0.05542347 0.04806441 -0.161956 1 1 1
v 0.1383149 0.08660254 -0.1542374 1 1 1
v 0.09276196 0.1130163 -0.1584792 1 1 1
v 0.2676591 8.4599E-18 -0.1421932 1 1 1
v 0.2676591 0.08660254 -0.1421932 1 1 1
v 0.05733834 0.1370485 -0.2270106 1 1 1
v 0.01999988 0.07209662 -0.2304874 1 1 1
v 0.1791302 0.0649519 -0.188099 1 1 1
v 0.1048061 0.1130163 -0.2878234 1 1 1
v 0.1842207 0.0649519 -0.2427663 1 1 1
v 0.1503591 0.08660254 -0.2835816 1 1 1
v 0.238888 0.0649519 -0.2376758 1 1 1
v 0.1546008 0.1130163 -0.3291346 1 1 1
v 0.2797033 0.08660254 -0.2715375 1 1 1
v 0.2231323 0.1370485 -0.3645582 1 1 1
v 0.2839451 0.1130163 -0.3170904 1 1 1
v 0.2337975 0.0649519 -0.1830085 1 1 1
v 0.3252563 0.1130163 -0.2672957 1 1 1
v 0.1503591 8.4599E-18 -0.2835816 1 1 1
v 0.2797033 0 -0.2715375 1 1 1
v 0.194886 0.1370485 -0.06121665 1 1 1
v 0.1340731 0.1130163 -0.1086845 1 1 1
v 0.2634174 0.1130163 -0.09664027 1 1 1
v 0.2599405 0.04806441 -0.05930178 1 1 1
v 0.06746767 0.04806441 -0.2913003 1 1 1
v 0.2874219 0.04806441 -0.3544289 1 1 1
v 0.2266091 0.07209662 -0.4018967 1 1 1
v 0.1580777 0.04806441 -0.3664731 1 1 1
v 0.1914091 0.07209662 -0.02387819 1 1 1
v 0.1305963 0.04806441 -0.07134598 1 1 1
v 0.3625948 0.04806441 -0.2638188 1 1 1
v -0.1591758 0.0375 -0.05820788 1 1 1
v -0.1520002 0.0375 -0.1328638 1 1 1
v -0.2274175 0.0375 -0.02709408 1 1 1
v -0.2884837 0.0375 -0.07063624 1 1 1
v -0.2130664 0.0375 -0.176406 1 1 1
v -0.2813081 0.0375 -0.1452922 1 1 1
v -0.171389 0.09450001 -0.06691632 1 1 1
v -0.2259824 0.09450001 -0.04202528 1 1 1
v -0.1656486 0.09450001 -0.1266411 1 1 1
v -0.2145015 0.09450001 -0.1614748 1 1 1
v -0.2748353 0.09450001 -0.076859 1 1 1
v -0.2690949 0.09450001 -0.1365838 1 1 1
v 0.1575338 0.0375 0.2483215 1 1 1
v 0.153439 0.0375 0.1734334 1 1 1
v 0.09472612 0.0375 0.2893118 1 1 1
v 0.02782371 0.0375 0.2554138 1 1 1
v 0.08653659 0.0375 0.1395355 1 1 1
v 0.02372894 0.0375 0.1805257 1 1 1
v 0.1441533 0.09450001 0.2415419 1 1 1
v 0.09390717 0.09450001 0.2743341 1 1 1
v 0.1408775 0.09450001 0.1816314 1 1 1
v 0.08735555 0.09450001 0.1545131 1 1 1
v 0.04038524 0.09450001 0.2472158 1 1 1
v 0.03710943 0.09450001 0.1873053 1 1 1
v 0.2020554 0.0375 -0.1382105 1 1 1
v 0.2702044 0.0375 -0.1695269 1 1 1
v 0.1408601 0.0375 -0.181571 1 1 1
v 0.1478138 0.0375 -0.256248 1 1 1
v 0.2771581 0.0375 -0.2442038 1 1 1
v 0.2159628 0.0375 -0.2875644 1 1 1
v 0.2034461 0.09450001 -0.1531459 1 1 1
v 0.1544899 0.09450001 -0.1878343 1 1 1
v 0.2579653 0.09450001 -0.178199 1 1 1
v 0.2635283 0.09450001 -0.2379405 1 1 1
v 0.1600529 0.09450001 -0.2475759 1 1 1
v 0.2145721 0.09450001 -0.272629 1 1 1

vn 0.9533779 0.2250436 0.2010623
vn 0.5027816 0.5 -0.7051318
vn 0.814216 0 0.5805621
vn 0.5007868 0.2250436 0.8358038
vn -0.5027816 0.5 0.7051318
vn 0.290281 0.8660254 -0.407108
vn 0.407108 0.8660254 0.290281
vn -0.290281 0.8660254 0.407108
vn 0 -1 0
vn 0 1 0
vn -0.407108 0.8660254 -0.290281
vn 0.5805621 0 -0.814216
vn 0.8358038 0.2250436 -0.5007868
vn -0.9533779 0.2250436 -0.2010623
vn 0.2010623 0.2250436 -0.9533779
vn -0.7051318 0.5 -0.5027816
vn -0.5805621 0 0.814216
vn -0.8358038 0.2250436 0.5007868
vn 0.407108 -0.8660254 0.290281
vn 0.7051318 0.5 0.5027816
vn -0.2010623 0.2250436 0.9533779
vn -0.5007868 0.2250436 -0.8358038
vn -0.814216 0 -0.5805621
vn -0.407108 -0.8660254 -0.290281
vn 0.290281 -0.8660254 -0.407108
vn -0.290281 -0.8660254 0.407108
vn 0.9727437 0.2250436 0.05590153
vn 0.3914192 0.5 -0.7725226
vn 0.8920321 0 0.4519719
vn 0.6203982 0.2250436 0.7513065
vn -0.3914192 0.5 0.7725226
vn 0.225986 0.8660254 -0.4460161
vn 0.4460161 0.8660254 0.225986
vn -0.225986 0.8660254 0.4460161
vn -0.4460161 0.8660254 -0.225986
vn 0.4519719 0 -0.8920321
vn 0.7513065 0.2250436 -0.6203982
vn -0.9727437 0.2250436 -0.05590153
vn 0.05590153 0.2250436 -0.9727437
vn -0.7725226 0.5 -0.3914192
vn -0.4519719 0 0.8920321
vn -0.7513065 0.2250436 0.6203982
vn 0.4460161 -0.8660254 0.225986
vn 0.7725226 0.5 0.3914192
vn -0.05590153 0.2250436 0.9727437
vn -0.6203982 0.2250436 -0.7513065
vn -0.8920321 0 -0.4519719
vn -0.4460161 -0.8660254 -0.225986
vn 0.225986 -0.8660254 -0.4460161
vn -0.225986 -0.8660254 0.4460161
vn 0.3053139 0.2250436 0.9252777
vn 0.8622952 0.5 0.08029458
vn -0.0927161 0 0.9956926
vn -0.4709021 0.2250436 0.8529986
vn -0.8622952 0.5 -0.08029458
vn 0.4978463 0.8660254 0.04635806
vn -0.04635806 0.8660254 0.4978463
vn -0.4978463 0.8660254 -0.04635806
vn 0.04635806 0.8660254 -0.4978463
vn 0.9956926 0 0.0927161
vn 0.8529986 0.2250436 0.4709021
vn -0.3053139 0.2250436 -0.9252777
vn 0.9252777 0.2250436 -0.3053139
vn 0.08029458 0.5 -0.8622952
vn -0.9956926 0 -0.0927161
vn -0.8529986 0.2250436 -0.4709021
vn -0.04635806 -0.8660254 0.4978463
vn -0.08029458 0.5 0.8622952
vn -0.9252777 0.2250436 0.3053139
vn 0.4709021 0.2250436 -0.8529986
vn 0.0927161 0 -0.9956926
vn 0.04635806 -0.8660254 -0.4978463
vn 0.4978463 -0.8660254 0.04635806
vn -0.4978463 -0.8660254 -0.04635806
vn 0.7874076 0.2544933 0.5614468
vn -0.09252345 0.2544933 0.9626384
vn 0.09252345 0.2544933 -0.9626384
vn -0.7874076 0.2544933 -0.5614468
vn -0.879931 0.2544933 0.4011915
vn 0.879931 0.2544933 -0.4011915
vn 0.8626615 0.2544933 0.4370906
vn 0.05279918 0.2544933 0.9656321
vn -0.05279918 0.2544933 -0.9656321
vn -0.8626615 0.2544933 -0.4370906
vn -0.8098623 0.2544933 0.5285416
vn 0.8098623 0.2544933 -0.5285416
vn -0.08966346 0.2544933 0.962909
vn -0.8787353 0.2544933 0.4038036
vn 0.8787353 0.2544933 -0.4038036
vn 0.08966346 0.2544933 -0.962909
vn -0.7890719 0.2544933 -0.5591053
vn 0.7890719 0.2544933 0.5591053

vt 0.46875 0.5951422
vt 0.46875 0.6899289
vt 0.46875 0.6302133
vt 0.46875 0.725
vt 0.46875 0.6513823
vt 0.46875 0.525
vt 0.46875 0.6197867
vt 0.09375 0.525
vt 0.09375 0.725

usemtl colormap

f 3/3/2 2/2/1 1/1/1
f 2/2/1 3/3/2 4/4/2
f 7/2/4 6/6/3 5/5/3
f 6/6/3 7/2/4 8/1/4
f 2/2/1 9/6/3 1/1/1
f 9/6/3 2/2/1 10/5/3
f 11/4/5 8/1/4 7/2/4
f 8/1/4 11/4/5 12/3/5
f 5/5/6 11/4/6 7/2/6
f 11/4/6 5/5/6 13/7/6
f 11/4/6 13/7/6 14/2/6
f 14/2/6 13/7/6 15/7/6
f 14/2/6 15/7/6 16/5/6
f 17/7/7 16/5/7 15/7/7
f 16/5/7 17/7/7 18/2/7
f 18/2/7 17/7/7 19/5/7
f 18/2/7 19/5/7 20/4/7
f 20/4/7 19/5/7 21/2/7
f 2/2/8 22/7/8 10/5/8
f 22/7/8 2/2/8 17/7/8
f 17/7/8 2/2/8 4/4/8
f 17/7/8 4/4/8 19/5/8
f 19/5/8 4/4/8 23/2/8
f 24/6/9 9/6/9 6/6/9
f 25/6/9 9/6/9 24/6/9
f 22/7/10 15/7/10 13/7/10
f 15/7/10 22/7/10 17/7/10
f 28/2/11 27/2/11 26/4/11
f 27/2/11 28/2/11 5/5/11
f 5/5/11 28/2/11 13/7/11
f 13/7/11 28/2/11 10/5/11
f 13/7/11 10/5/11 22/7/11
f 10/5/12 29/1/13 9/6/12
f 29/1/13 10/5/12 28/2/13
f 12/3/5 14/2/14 30/1/14
f 14/2/14 12/3/5 11/4/5
f 31/1/15 20/4/16 21/2/15
f 20/4/16 31/1/15 32/3/16
f 16/5/17 33/1/18 24/6/17
f 33/1/18 16/5/17 18/2/18
f 35/1/19 29/1/19 34/3/19
f 29/1/19 35/1/19 6/6/19
f 29/1/19 6/6/19 9/6/19
f 26/4/20 35/1/21 34/3/20
f 35/1/21 26/4/20 27/2/21
f 25/6/23 23/2/22 36/1/22
f 23/2/22 25/6/23 19/5/23
f 35/1/21 5/5/17 6/6/17
f 5/5/17 35/1/21 27/2/21
f 33/1/24 25/6/24 24/6/24
f 25/6/24 33/1/24 31/1/24
f 31/1/24 33/1/24 32/3/24
f 18/2/18 32/3/16 33/1/18
f 32/3/16 18/2/18 20/4/16
f 24/6/23 14/2/14 16/5/23
f 14/2/14 24/6/23 30/1/14
f 31/1/15 19/5/12 25/6/12
f 19/5/12 31/1/15 21/2/15
f 25/6/25 1/1/25 9/6/25
f 1/1/25 25/6/25 3/3/25
f 3/3/25 25/6/25 36/1/25
f 28/2/13 34/3/20 29/1/13
f 34/3/20 28/2/13 26/4/20
f 36/1/22 4/4/2 3/3/2
f 4/4/2 36/1/22 23/2/22
f 12/3/26 6/6/26 8/1/26
f 6/6/26 12/3/26 30/1/26
f 6/6/26 30/1/26 24/6/26
f 39/3/28 38/2/27 37/1/27
f 38/2/27 39/3/28 40/4/28
f 43/2/30 42/6/29 41/5/29
f 42/6/29 43/2/30 44/1/30
f 38/2/27 45/6/29 37/1/27
f 45/6/29 38/2/27 46/5/29
f 47/4/31 44/1/30 43/2/30
f 44/1/30 47/4/31 48/3/31
f 41/5/32 47/4/32 43/2/32
f 47/4/32 41/5/32 49/7/32
f 47/4/32 49/7/32 50/2/32
f 50/2/32 49/7/32 51/7/32
f 50/2/32 51/7/32 52/5/32
f 53/7/33 52/5/33 51/7/33
f 52/5/33 53/7/33 54/2/33
f 54/2/33 53/7/33 55/5/33
f 54/2/33 55/5/33 56/4/33
f 56/4/33 55/5/33 57/2/33
f 38/2/34 58/7/34 46/5/34
f 58/7/34 38/2/34 53/7/34
f 53/7/34 38/2/34 40/4/34
f 53/7/34 40/4/34 55/5/34
f 55/5/34 40/4/34 59/2/34
f 60/6/9 45/6/9 42/6/9
f 61/6/9 45/6/9 60/6/9
f 58/7/10 51/7/10 49/7/10
f 51/7/10 58/7/10 53/7/10
f 64/2/35 63/2/35 62/4/35
f 63/2/35 64/2/35 41/5/35
f 41/5/35 64/2/35 49/7/35
f 49/7/35 64/2/35 46/5/35
f 49/7/35 46/5/35 58/7/35
f 46/5/36 65/1/37 45/6/36
f 65/1/37 46/5/36 64/2/37
f 48/3/31 50/2/38 66/1/38
f 50/2/38 48/3/31 47/4/31
f 67/1/39 56/4/40 57/2/39
f 56/4/40 67/1/39 68/3/40
f 52/5/41 69/1/42 60/6/41
f 69/1/42 52/5/41 54/2/42
f 71/1/43 65/1/43 70/3/43
f 65/1/43 71/1/43 42/6/43
f 65/1/43 42/6/43 45/6/43
f 62/4/44 71/1/45 70/3/44
f 71/1/45 62/4/44 63/2/45
f 61/6/47 59/2/46 72/1/46
f 59/2/46 61/6/47 55/5/47
f 71/1/45 41/5/41 42/6/41
f 41/5/41 71/1/45 63/2/45
f 69/1/48 61/6/48 60/6/48
f 61/6/48 69/1/48 67/1/48
f 67/1/48 69/1/48 68/3/48
f 54/2/42 68/3/40 69/1/42
f 68/3/40 54/2/42 56/4/40
f 60/6/47 50/2/38 52/5/47
f 50/2/38 60/6/47 66/1/38
f 67/1/39 55/5/36 61/6/36
f 55/5/36 67/1/39 57/2/39
f 61/6/49 37/1/49 45/6/49
f 37/1/49 61/6/49 39/3/49
f 39/3/49 61/6/49 72/1/49
f 64/2/37 70/3/44 65/1/37
f 70/3/44 64/2/37 62/4/44
f 72/1/46 40/4/28 39/3/28
f 40/4/28 72/1/46 59/2/46
f 48/3/50 42/6/50 44/1/50
f 42/6/50 48/3/50 66/1/50
f 42/6/50 66/1/50 60/6/50
f 75/3/52 74/2/51 73/1/51
f 74/2/51 75/3/52 76/4/52
f 79/5/53 78/1/54 77/6/53
f 78/1/54 79/5/53 80/2/54
f 74/2/51 81/6/53 73/1/51
f 81/6/53 74/2/51 82/5/53
f 83/4/55 78/1/54 80/2/54
f 78/1/54 83/4/55 84/3/55
f 79/5/56 83/4/56 80/2/56
f 83/4/56 79/5/56 85/7/56
f 83/4/56 85/7/56 86/2/56
f 86/2/56 85/7/56 87/7/56
f 86/2/56 87/7/56 88/5/56
f 89/7/57 88/5/57 87/7/57
f 88/5/57 89/7/57 90/2/57
f 90/2/57 89/7/57 91/5/57
f 90/2/57 91/5/57 92/4/57
f 92/4/57 91/5/57 93/2/57
f 74/2/58 94/7/58 82/5/58
f 94/7/58 74/2/58 89/7/58
f 89/7/58 74/2/58 76/4/58
f 89/7/58 76/4/58 91/5/58
f 91/5/58 76/4/58 95/2/58
f 96/6/9 81/6/9 77/6/9
f 97/6/9 81/6/9 96/6/9
f 94/7/10 87/7/10 85/7/10
f 87/7/10 94/7/10 89/7/10
f 100/2/59 99/2/59 98/4/59
f 99/2/59 100/2/59 79/5/59
f 79/5/59 100/2/59 85/7/59
f 85/7/59 100/2/59 82/5/59
f 85/7/59 82/5/59 94/7/59
f 82/5/60 101/1/61 81/6/60
f 101/1/61 82/5/60 100/2/61
f 84/3/55 86/2/62 102/1/62
f 86/2/62 84/3/55 83/4/55
f 103/1/63 92/4/64 93/2/63
f 92/4/64 103/1/63 104/3/64
f 88/5/65 105/1/66 96/6/65
f 105/1/66 88/5/65 90/2/66
f 107/1/67 101/1/67 106/3/67
f 101/1/67 107/1/67 77/6/67
f 101/1/67 77/6/67 81/6/67
f 98/4/68 107/1/69 106/3/68
f 107/1/69 98/4/68 99/2/69
f 97/6/71 95/2/70 108/1/70
f 95/2/70 97/6/71 91/5/71
f 107/1/69 79/5/65 77/6/65
f 79/5/65 107/1/69 99/2/69
f 105/1/72 97/6/72 96/6/72
f 97/6/72 105/1/72 103/1/72
f 103/1/72 105/1/72 104/3/72
f 90/2/66 104/3/64 105/1/66
f 104/3/64 90/2/66 92/4/64
f 96/6/71 86/2/62 88/5/71
f 86/2/62 96/6/71 102/1/62
f 103/1/63 91/5/60 97/6/60
f 91/5/60 103/1/63 93/2/63
f 97/6/73 73/1/73 81/6/73
f 73/1/73 97/6/73 75/3/73
f 75/3/73 97/6/73 108/1/73
f 100/2/61 106/3/68 101/1/61
f 106/3/68 100/2/61 98/4/68
f 108/1/70 76/4/52 75/3/52
f 76/4/52 108/1/70 95/2/70
f 84/3/74 77/6/74 78/1/74
f 77/6/74 84/3/74 102/1/74
f 77/6/74 102/1/74 96/6/74
f 111/8/9 110/8/9 109/8/9
f 110/8/9 111/8/9 112/8/9
f 110/8/9 112/8/9 113/8/9
f 113/8/9 112/8/9 114/8/9
f 117/9/10 116/9/10 115/9/10
f 116/9/10 117/9/10 118/9/10
f 116/9/10 118/9/10 119/9/10
f 119/9/10 118/9/10 120/9/10
f 116/9/76 109/8/75 115/9/75
f 109/8/75 116/9/76 111/8/76
f 114/8/78 118/9/77 113/8/77
f 118/9/77 114/8/78 120/9/78
f 112/8/79 120/9/78 114/8/78
f 120/9/78 112/8/79 119/9/79
f 116/9/76 112/8/79 111/8/76
f 112/8/79 116/9/76 119/9/79
f 117/9/80 109/8/75 110/8/80
f 109/8/75 117/9/80 115/9/75
f 118/9/77 110/8/80 113/8/77
f 110/8/80 118/9/77 117/9/80
f 123/8/9 122/8/9 121/8/9
f 122/8/9 123/8/9 124/8/9
f 122/8/9 124/8/9 125/8/9
f 125/8/9 124/8/9 126/8/9
f 129/9/10 128/9/10 127/9/10
f 128/9/10 129/9/10 130/9/10
f 128/9/10 130/9/10 131/9/10
f 131/9/10 130/9/10 132/9/10
f 128/9/82 121/8/81 127/9/81
f 121/8/81 128/9/82 123/8/82
f 126/8/84 130/9/83 125/8/83
f 130/9/83 126/8/84 132/9/84
f 124/8/85 132/9/84 126/8/84
f 132/9/84 124/8/85 131/9/85
f 128/9/82 124/8/85 123/8/82
f 124/8/85 128/9/82 131/9/85
f 129/9/86 121/8/81 122/8/86
f 121/8/81 129/9/86 127/9/81
f 130/9/83 122/8/86 125/8/83
f 122/8/86 130/9/83 129/9/86
f 135/8/9 134/8/9 133/8/9
f 134/8/9 135/8/9 136/8/9
f 134/8/9 136/8/9 137/8/9
f 137/8/9 136/8/9 138/8/9
f 141/9/10 140/9/10 139/9/10
f 140/9/10 141/9/10 142/9/10
f 140/9/10 142/9/10 143/9/10
f 143/9/10 142/9/10 144/9/10
f 140/9/88 133/8/87 139/9/87
f 133/8/87 140/9/88 135/8/88
f 138/8/90 142/9/89 137/8/89
f 142/9/89 138/8/90 144/9/90
f 136/8/91 144/9/90 138/8/90
f 144/9/90 136/8/91 143/9/91
f 140/9/88 136/8/91 135/8/88
f 136/8/91 140/9/88 143/9/91
f 141/9/92 133/8/87 134/8/92
f 133/8/87 141/9/92 139/9/87
f 142/9/89 134/8/92 137/8/89
f 134/8/92 142/9/89 141/9/92

g flowers




usemtl colormap

f 3/3/2 2/2/1 1/1/1
f 2/2/1 3/3/2 4/4/2
f 7/2/4 6/6/3 5/5/3
f 6/6/3 7/2/4 8/1/4
f 2/2/1 9/6/3 1/1/1
f 9/6/3 2/2/1 10/5/3
f 11/4/5 8/1/4 7/2/4
f 8/1/4 11/4/5 12/3/5
f 5/5/6 11/4/6 7/2/6
f 11/4/6 5/5/6 13/7/6
f 11/4/6 13/7/6 14/2/6
f 14/2/6 13/7/6 15/7/6
f 14/2/6 15/7/6 16/5/6
f 17/7/7 16/5/7 15/7/7
f 16/5/7 17/7/7 18/2/7
f 18/2/7 17/7/7 19/5/7
f 18/2/7 19/5/7 20/4/7
f 20/4/7 19/5/7 21/2/7
f 2/2/8 22/7/8 10/5/8
f 22/7/8 2/2/8 17/7/8
f 17/7/8 2/2/8 4/4/8
f 17/7/8 4/4/8 19/5/8
f 19/5/8 4/4/8 23/2/8
f 24/6/9 9/6/9 6/6/9
f 25/6/9 9/6/9 24/6/9
f 22/7/10 15/7/10 13/7/10
f 15/7/10 22/7/10 17/7/10
f 28/2/11 27/2/11 26/4/11
f 27/2/11 28/2/11 5/5/11
f 5/5/11 28/2/11 13/7/11
f 13/7/11 28/2/11 10/5/11
f 13/7/11 10/5/11 22/7/11
f 10/5/12 29/1/13 9/6/12
f 29/1/13 10/5/12 28/2/13
f 12/3/5 14/2/14 30/1/14
f 14/2/14 12/3/5 11/4/5
f 31/1/15 20/4/16 21/2/15
f 20/4/16 31/1/15 32/3/16
f 16/5/17 33/1/18 24/6/17
f 33/1/18 16/5/17 18/2/18
f 35/1/19 29/1/19 34/3/19
f 29/1/19 35/1/19 6/6/19
f 29/1/19 6/6/19 9/6/19
f 26/4/20 35/1/21 34/3/20
f 35/1/21 26/4/20 27/2/21
f 25/6/23 23/2/22 36/1/22
f 23/2/22 25/6/23 19/5/23
f 35/1/21 5/5/17 6/6/17
f 5/5/17 35/1/21 27/2/21
f 33/1/24 25/6/24 24/6/24
f 25/6/24 33/1/24 31/1/24
f 31/1/24 33/1/24 32/3/24
f 18/2/18 32/3/16 33/1/18
f 32/3/16 18/2/18 20/4/16
f 24/6/23 14/2/14 16/5/23
f 14/2/14 24/6/23 30/1/14
f 31/1/15 19/5/12 25/6/12
f 19/5/12 31/1/15 21/2/15
f 25/6/25 1/1/25 9/6/25
f 1/1/25 25/6/25 3/3/25
f 3/3/25 25/6/25 36/1/25
f 28/2/13 34/3/20 29/1/13
f 34/3/20 28/2/13 26/4/20
f 36/1/22 4/4/2 3/3/2
f 4/4/2 36/1/22 23/2/22
f 12/3/26 6/6/26 8/1/26
f 6/6/26 12/3/26 30/1/26
f 6/6/26 30/1/26 24/6/26
f 39/3/28 38/2/27 37/1/27
f 38/2/27 39/3/28 40/4/28
f 43/2/30 42/6/29 41/5/29
f 42/6/29 43/2/30 44/1/30
f 38/2/27 45/6/29 37/1/27
f 45/6/29 38/2/27 46/5/29
f 47/4/31 44/1/30 43/2/30
f 44/1/30 47/4/31 48/3/31
f 41/5/32 47/4/32 43/2/32
f 47/4/32 41/5/32 49/7/32
f 47/4/32 49/7/32 50/2/32
f 50/2/32 49/7/32 51/7/32
f 50/2/32 51/7/32 52/5/32
f 53/7/33 52/5/33 51/7/33
f 52/5/33 53/7/33 54/2/33
f 54/2/33 53/7/33 55/5/33
f 54/2/33 55/5/33 56/4/33
f 56/4/33 55/5/33 57/2/33
f 38/2/34 58/7/34 46/5/34
f 58/7/34 38/2/34 53/7/34
f 53/7/34 38/2/34 40/4/34
f 53/7/34 40/4/34 55/5/34
f 55/5/34 40/4/34 59/2/34
f 60/6/9 45/6/9 42/6/9
f 61/6/9 45/6/9 60/6/9
f 58/7/10 51/7/10 49/7/10
f 51/7/10 58/7/10 53/7/10
f 64/2/35 63/2/35 62/4/35
f 63/2/35 64/2/35 41/5/35
f 41/5/35 64/2/35 49/7/35
f 49/7/35 64/2/35 46/5/35
f 49/7/35 46/5/35 58/7/35
f 46/5/36 65/1/37 45/6/36
f 65/1/37 46/5/36 64/2/37
f 48/3/31 50/2/38 66/1/38
f 50/2/38 48/3/31 47/4/31
f 67/1/39 56/4/40 57/2/39
f 56/4/40 67/1/39 68/3/40
f 52/5/41 69/1/42 60/6/41
f 69/1/42 52/5/41 54/2/42
f 71/1/43 65/1/43 70/3/43
f 65/1/43 71/1/43 42/6/43
f 65/1/43 42/6/43 45/6/43
f 62/4/44 71/1/45 70/3/44
f 71/1/45 62/4/44 63/2/45
f 61/6/47 59/2/46 72/1/46
f 59/2/46 61/6/47 55/5/47
f 71/1/45 41/5/41 42/6/41
f 41/5/41 71/1/45 63/2/45
f 69/1/48 61/6/48 60/6/48
f 61/6/48 69/1/48 67/1/48
f 67/1/48 69/1/48 68/3/48
f 54/2/42 68/3/40 69/1/42
f 68/3/40 54/2/42 56/4/40
f 60/6/47 50/2/38 52/5/47
f 50/2/38 60/6/47 66/1/38
f 67/1/39 55/5/36 61/6/36
f 55/5/36 67/1/39 57/2/39
f 61/6/49 37/1/49 45/6/49
f 37/1/49 61/6/49 39/3/49
f 39/3/49 61/6/49 72/1/49
f 64/2/37 70/3/44 65/1/37
f 70/3/44 64/2/37 62/4/44
f 72/1/46 40/4/28 39/3/28
f 40/4/28 72/1/46 59/2/46
f 48/3/50 42/6/50 44/1/50
f 42/6/50 48/3/50 66/1/50
f 42/6/50 66/1/50 60/6/50
f 75/3/52 74/2/51 73/1/51
f 74/2/51 75/3/52 76/4/52
f 79/5/53 78/1/54 77/6/53
f 78/1/54 79/5/53 80/2/54
f 74/2/51 81/6/53 73/1/51
f 81/6/53 74/2/51 82/5/53
f 83/4/55 78/1/54 80/2/54
f 78/1/54 83/4/55 84/3/55
f 79/5/56 83/4/56 80/2/56
f 83/4/56 79/5/56 85/7/56
f 83/4/56 85/7/56 86/2/56
f 86/2/56 85/7/56 87/7/56
f 86/2/56 87/7/56 88/5/56
f 89/7/57 88/5/57 87/7/57
f 88/5/57 89/7/57 90/2/57
f 90/2/57 89/7/57 91/5/57
f 90/2/57 91/5/57 92/4/57
f 92/4/57 91/5/57 93/2/57
f 74/2/58 94/7/58 82/5/58
f 94/7/58 74/2/58 89/7/58
f 89/7/58 74/2/58 76/4/58
f 89/7/58 76/4/58 91/5/58
f 91/5/58 76/4/58 95/2/58
f 96/6/9 81/6/9 77/6/9
f 97/6/9 81/6/9 96/6/9
f 94/7/10 87/7/10 85/7/10
f 87/7/10 94/7/10 89/7/10
f 100/2/59 99/2/59 98/4/59
f 99/2/59 100/2/59 79/5/59
f 79/5/59 100/2/59 85/7/59
f 85/7/59 100/2/59 82/5/59
f 85/7/59 82/5/59 94/7/59
f 82/5/60 101/1/61 81/6/60
f 101/1/61 82/5/60 100/2/61
f 84/3/55 86/2/62 102/1/62
f 86/2/62 84/3/55 83/4/55
f 103/1/63 92/4/64 93/2/63
f 92/4/64 103/1/63 104/3/64
f 88/5/65 105/1/66 96/6/65
f 105/1/66 88/5/65 90/2/66
f 107/1/67 101/1/67 106/3/67
f 101/1/67 107/1/67 77/6/67
f 101/1/67 77/6/67 81/6/67
f 98/4/68 107/1/69 106/3/68
f 107/1/69 98/4/68 99/2/69
f 97/6/71 95/2/70 108/1/70
f 95/2/70 97/6/71 91/5/71
f 107/1/69 79/5/65 77/6/65
f 79/5/65 107/1/69 99/2/69
f 105/1/72 97/6/72 96/6/72
f 97/6/72 105/1/72 103/1/72
f 103/1/72 105/1/72 104/3/72
f 90/2/66 104/3/64 105/1/66
f 104/3/64 90/2/66 92/4/64
f 96/6/71 86/2/62 88/5/71
f 86/2/62 96/6/71 102/1/62
f 103/1/63 91/5/60 97/6/60
f 91/5/60 103/1/63 93/2/63
f 97/6/73 73/1/73 81/6/73
f 73/1/73 97/6/73 75/3/73
f 75/3/73 97/6/73 108/1/73
f 100/2/61 106/3/68 101/1/61
f 106/3/68 100/2/61 98/4/68
f 108/1/70 76/4/52 75/3/52
f 76/4/52 108/1/70 95/2/70
f 84/3/74 77/6/74 78/1/74
f 77/6/74 84/3/74 102/1/74
f 77/6/74 102/1/74 96/6/74
f 111/8/9 110/8/9 109/8/9
f 110/8/9 111/8/9 112/8/9
f 110/8/9 112/8/9 113/8/9
f 113/8/9 112/8/9 114/8/9
f 117/9/10 116/9/10 115/9/10
f 116/9/10 117/9/10 118/9/10
f 116/9/10 118/9/10 119/9/10
f 119/9/10 118/9/10 120/9/10
f 116/9/76 109/8/75 115/9/75
f 109/8/75 116/9/76 111/8/76
f 114/8/78 118/9/77 113/8/77
f 118/9/77 114/8/78 120/9/78
f 112/8/79 120/9/78 114/8/78
f 120/9/78 112/8/79 119/9/79
f 116/9/76 112/8/79 111/8/76
f 112/8/79 116/9/76 119/9/79
f 117/9/80 109/8/75 110/8/80
f 109/8/75 117/9/80 115/9/75
f 118/9/77 110/8/80 113/8/77
f 110/8/80 118/9/77 117/9/80
f 123/8/9 122/8/9 121/8/9
f 122/8/9 123/8/9 124/8/9
f 122/8/9 124/8/9 125/8/9
f 125/8/9 124/8/9 126/8/9
f 129/9/10 128/9/10 127/9/10
f 128/9/10 129/9/10 130/9/10
f 128/9/10 130/9/10 131/9/10
f 131/9/10 130/9/10 132/9/10
f 128/9/82 121/8/81 127/9/81
f 121/8/81 128/9/82 123/8/82
f 126/8/84 130/9/83 125/8/83
f 130/9/83 126/8/84 132/9/84
f 124/8/85 132/9/84 126/8/84
f 132/9/84 124/8/85 131/9/85
f 128/9/82 124/8/85 123/8/82
f 124/8/85 128/9/82 131/9/85
f 129/9/86 121/8/81 122/8/86
f 121/8/81 129/9/86 127/9/81
f 130/9/83 122/8/86 125/8/83
f 122/8/86 130/9/83 129/9/86
f 135/8/9 134/8/9 133/8/9
f 134/8/9 135/8/9 136/8/9
f 134/8/9 136/8/9 137/8/9
f 137/8/9 136/8/9 138/8/9
f 141/9/10 140/9/10 139/9/10
f 140/9/10 141/9/10 142/9/10
f 140/9/10 142/9/10 143/9/10
f 143/9/10 142/9/10 144/9/10
f 140/9/88 133/8/87 139/9/87
f 133/8/87 140/9/88 135/8/88
f 138/8/90 142/9/89 137/8/89
f 142/9/89 138/8/90 144/9/90
f 136/8/91 144/9/90 138/8/90
f 144/9/90 136/8/91 143/9/91
f 140/9/88 136/8/91 135/8/88
f 136/8/91 140/9/88 143/9/91
f 141/9/92 133/8/87 134/8/92
f 133/8/87 141/9/92 139/9/87
f 142/9/89 134/8/92 137/8/89
f 134/8/92 142/9/89 141/9/92

