# Created by Kenney (www.kenney.nl)

mtllib key.mtl

g key

v -0.0815091 0.0040109 -0.0339293 1 1 1
v -0.005605218 0.03545132 -0.0339293 1 1 1
v -0.157413 0.03545132 -0.0339293 1 1 1
v -0.0815091 0.04597761 -0.0339293 1 1 1
v 0.01368068 0.0820116 -0.0339293 1 1 1
v -0.127738 0.06512626 -0.0339293 1 1 1
v -0.1888534 0.1113552 -0.0339293 1 1 1
v -0.1468867 0.1113552 -0.0339293 1 1 1
v -0.03528016 0.06512626 -0.0339293 1 1 1
v -0.157413 0.1872591 -0.0339293 1 1 1
v -0.127738 0.1575841 -0.0339293 1 1 1
v -0.02214015 0.09684907 -0.0339293 1 1 1
v -0.0815091 0.1767328 -0.0339293 1 1 1
v -0.005605218 0.1872591 -0.0339293 1 1 1
v -0.0815091 0.2186995 -0.0339293 1 1 1
v 0.004851844 0.1620135 -0.0339293 1 1 1
v -0.03528016 0.1575841 -0.0339293 1 1 1
v 0.01368068 0.1406988 -0.0339293 1 1 1
v -0.02214015 0.1258613 -0.0339293 1 1 1
v 0.1928643 0.1406988 -0.0339293 1 1 1
v -0.01613151 0.1113552 -0.0339293 1 1 1
v 0.1928643 0.0820116 -0.0339293 1 1 1
v 0.1758997 0.0820116 -0.0339293 1 1 1
v 0.0608906 0.0820116 -0.0339293 1 1 1
v 0.0945929 0.001544394 0.0169646 1 1 1
v 0.0945929 0.001544394 -0.0169646 1 1 1
v 0.0608906 0.001544394 0.0169646 1 1 1
v 0.0608906 0.001544394 -0.0169646 1 1 1
v -0.0815091 0.08368875 2.887646E-15 1 1 1
v -0.1010722 0.09179206 1.443823E-15 1 1 1
v -0.06194596 0.1309183 2.887646E-15 1 1 1
v -0.0815091 0.1390216 2.887646E-15 1 1 1
v -0.03528016 0.1575841 0.0339293 1 1 1
v -0.0815091 0.1767328 0.0339293 1 1 1
v 0.0608906 0.02850933 -0.0169646 1 1 1
v 0.0945929 0.02850933 -0.0169646 1 1 1
v 0.1421974 0.02850933 -0.0169646 1 1 1
v 0.1758997 0.02850933 -0.0169646 1 1 1
v -0.005605218 0.03545132 0.0339293 1 1 1
v -0.0815091 0.0040109 0.0339293 1 1 1
v -0.1888534 0.1113552 0.0339293 1 1 1
v -0.157413 0.1872591 0.0339293 1 1 1
v -0.05384265 0.1113552 2.887646E-15 1 1 1
v -0.05432862 0.1125284 2.887646E-15 1 1 1
v -0.1091755 0.1113552 1.443823E-15 1 1 1
v -0.1468867 0.1113552 0.0339293 1 1 1
v -0.1010722 0.1309183 1.443823E-15 1 1 1
v -0.127738 0.1575841 0.0339293 1 1 1
v -0.005605218 0.1872591 0.0339293 1 1 1
v -0.0815091 0.2186995 0.0339293 1 1 1
v -0.01613151 0.1113552 0.0339293 1 1 1
v -0.02214015 0.1258613 0.0339293 1 1 1
v -0.0815091 0.04597761 0.0339293 1 1 1
v -0.127738 0.06512626 0.0339293 1 1 1
v -0.03528016 0.06512626 0.0339293 1 1 1
v -0.06194596 0.09179206 2.887646E-15 1 1 1
v -0.02214015 0.09684907 0.0339293 1 1 1
v -0.05432862 0.110182 2.887646E-15 1 1 1
v 0.0608906 0.02850933 0.0169646 1 1 1
v 0.0608906 0.0820116 0.0339293 1 1 1
v 0.1758997 0.0820116 0.0339293 1 1 1
v 0.1758997 0.001544394 -0.0169646 1 1 1
v 0.1758997 0.02850933 0.0169646 1 1 1
v 0.1758997 0.001544394 0.0169646 1 1 1
v 0.01368068 0.1406988 0.0339293 1 1 1
v 0.004851844 0.1620135 0.0339293 1 1 1
v 0.0945929 0.02850933 0.0169646 1 1 1
v 0.1928643 0.1406988 0.0339293 1 1 1
v 0.1928643 0.0820116 0.0339293 1 1 1
v 0.1421974 0.001544394 -0.0169646 1 1 1
v 0.1421974 0.02850933 0.0169646 1 1 1
v 0.1421974 0.001544394 0.0169646 1 1 1
v 0.01368068 0.0820116 0.0339293 1 1 1
v -0.157413 0.03545132 0.0339293 1 1 1

vn 0 0 -1
vn 0 -1 0
vn 0 0.668848 -0.7433993
vn 0.4729469 0.4729469 -0.7433993
vn -0.4729469 -0.4729469 0.7433993
vn 0 -0.668848 0.7433993
vn 0 -0.1529253 -0.9882378
vn 0 -0.2036296 -0.979048
vn 0 -0.302253 -0.9532277
vn 0.7071068 -0.7071068 0
vn -0.9238795 0.3826834 0
vn -0.7071068 0.7071068 0
vn -0.668848 0 -0.7433993
vn -0.6445684 -0.266989 -0.7164136
vn -0.4729469 -0.4729469 -0.7433993
vn 0.668848 0 0.7433993
vn 0.4729469 -0.4729469 0.7433993
vn 0.7071068 0.7071068 0
vn 0 1 0
vn -0.668848 0 0.7433993
vn -0.6445684 -0.266989 0.7164136
vn 0 0.668848 0.7433993
vn 0.4729469 0.4729469 0.7433993
vn -0.4729469 0.4729469 0.7433993
vn -0.6445684 0.266989 0.7164136
vn -1 0 0
vn 0 -0.668848 -0.7433993
vn 0.668848 0 -0.7433993
vn 1 0 0
vn 0.9238795 0.3826834 0
vn 0 0 1
vn 0 -0.2036296 0.979048
vn 0 -0.1529253 0.9882378
vn -0.4729469 0.4729469 -0.7433993
vn -0.7071068 -0.7071068 0
vn -0.6445684 0.266989 -0.7164136
vn 0.9238795 -0.3826834 0
vn 0.4729469 -0.4729469 -0.7433993
vn -0.9238795 -0.3826834 0
vn 0 -0.302253 0.9532277

vt 0.09375 0.5286679
vt 0.09375 0.5574201
vt 0.09375 0.5670464
vt 0.09375 0.5999994
vt 0.09375 0.5845578
vt 0.09375 0.626834
vt 0.09375 0.6962479
vt 0.09375 0.6691102
vt 0.09375 0.6135682
vt 0.09375 0.6866216
vt 0.09375 0.725
vt 0.09375 0.6731609
vt 0.09375 0.6536686
vt 0.09375 0.6400998
vt 0.09375 0.5264124
vt 0.09375 0.6015331
vt 0.09375 0.6089436
vt 0.09375 0.6447244
vt 0.09375 0.6521348
vt 0.09375 0.5510717
vt 0.09375 0.6279069
vt 0.09375 0.625761

usemtl colormap

f 3/2/1 2/2/1 1/1/1
f 2/2/1 3/2/1 4/3/1
f 2/2/1 4/3/1 5/4/1
f 3/2/1 6/5/1 4/3/1
f 6/5/1 3/2/1 7/6/1
f 6/5/1 7/6/1 8/6/1
f 5/4/1 4/3/1 9/5/1
f 8/6/1 7/6/1 10/7/1
f 8/6/1 10/7/1 11/8/1
f 5/4/1 9/5/1 12/9/1
f 11/8/1 10/7/1 13/10/1
f 13/10/1 10/7/1 14/7/1
f 14/7/1 10/7/1 15/11/1
f 16/12/1 13/10/1 14/7/1
f 16/12/1 17/8/1 13/10/1
f 18/13/1 17/8/1 16/12/1
f 18/13/1 19/14/1 17/8/1
f 20/13/1 19/14/1 18/13/1
f 20/13/1 5/4/1 12/9/1
f 20/13/1 21/6/1 19/14/1
f 20/13/1 12/9/1 21/6/1
f 22/4/1 5/4/1 20/13/1
f 23/4/1 5/4/1 22/4/1
f 5/4/1 23/4/1 24/4/1
f 27/15/2 26/15/2 25/15/2
f 26/15/2 27/15/2 28/15/2
f 6/5/4 29/16/3 4/3/3
f 29/16/3 6/5/4 30/17/4
f 33/8/5 32/19/6 31/18/5
f 32/19/6 33/8/5 34/10/6
f 24/4/9 36/20/8 35/20/7
f 36/20/8 24/4/9 37/20/8
f 37/20/8 24/4/9 38/20/7
f 38/20/7 24/4/9 23/4/9
f 39/2/10 1/1/2 2/2/10
f 1/1/2 39/2/10 40/1/2
f 41/6/11 10/7/12 7/6/11
f 10/7/12 41/6/11 42/7/12
f 44/21/14 21/6/13 43/6/13
f 21/6/13 44/21/14 19/14/14
f 19/14/14 44/21/14 31/18/15
f 19/14/14 31/18/15 17/8/15
f 47/18/17 46/6/16 45/6/16
f 46/6/16 47/18/17 48/8/17
f 15/11/19 49/7/18 14/7/18
f 49/7/18 15/11/19 50/11/19
f 51/6/20 44/21/21 43/6/20
f 44/21/21 51/6/20 52/14/21
f 44/21/21 52/14/21 31/18/5
f 31/18/5 52/14/21 33/8/5
f 29/16/22 54/5/23 53/3/22
f 54/5/23 29/16/22 30/17/23
f 57/9/25 56/17/24 55/5/24
f 56/17/24 57/9/25 58/22/25
f 58/22/25 57/9/25 51/6/20
f 58/22/25 51/6/20 43/6/20
f 27/15/26 35/20/26 28/15/26
f 59/20/26 35/20/26 27/15/26
f 60/4/26 35/20/26 59/20/26
f 35/20/26 60/4/26 24/4/26
f 32/19/6 48/8/17 47/18/17
f 48/8/17 32/19/6 34/10/6
f 35/20/7 26/15/1 28/15/1
f 26/15/1 35/20/7 36/20/8
f 55/5/24 29/16/22 53/3/22
f 29/16/22 55/5/24 56/17/24
f 32/19/27 17/8/15 31/18/15
f 17/8/15 32/19/27 13/10/27
f 8/6/28 30/17/4 6/5/4
f 30/17/4 8/6/28 45/6/28
f 61/4/29 38/20/29 23/4/29
f 38/20/29 61/4/29 62/15/29
f 62/15/29 61/4/29 63/20/29
f 64/15/29 62/15/29 63/20/29
f 30/17/23 46/6/16 54/5/23
f 46/6/16 30/17/23 45/6/16
f 14/7/18 18/13/30 16/12/30
f 18/13/30 14/7/18 65/13/30
f 65/13/30 14/7/18 49/7/18
f 65/13/30 49/7/18 66/12/30
f 67/20/32 27/15/31 25/15/31
f 27/15/31 67/20/32 59/20/33
f 68/13/29 22/4/29 20/13/29
f 22/4/29 68/13/29 69/4/29
f 29/16/3 9/5/34 4/3/3
f 9/5/34 29/16/3 56/17/34
f 37/20/8 62/15/1 70/15/1
f 62/15/1 37/20/8 38/20/7
f 67/20/10 37/20/35 71/20/35
f 37/20/35 67/20/10 36/20/10
f 63/20/33 72/15/31 64/15/31
f 72/15/31 63/20/33 71/20/32
f 56/17/34 12/9/36 9/5/34
f 12/9/36 56/17/34 58/22/36
f 12/9/36 58/22/36 21/6/13
f 21/6/13 58/22/36 43/6/13
f 68/13/31 61/4/31 69/4/31
f 61/4/31 68/13/31 60/4/31
f 60/4/31 68/13/31 73/4/31
f 73/4/31 68/13/31 57/9/31
f 57/9/31 68/13/31 51/6/31
f 55/5/31 73/4/31 57/9/31
f 51/6/31 68/13/31 52/14/31
f 52/14/31 68/13/31 65/13/31
f 52/14/31 65/13/31 33/8/31
f 33/8/31 65/13/31 66/12/31
f 53/3/31 73/4/31 55/5/31
f 33/8/31 66/12/31 34/10/31
f 53/3/31 39/2/31 73/4/31
f 34/10/31 66/12/31 49/7/31
f 74/2/31 39/2/31 53/3/31
f 39/2/31 74/2/31 40/1/31
f 54/5/31 74/2/31 53/3/31
f 74/2/31 54/5/31 41/6/31
f 41/6/31 54/5/31 46/6/31
f 41/6/31 46/6/31 48/8/31
f 41/6/31 48/8/31 42/7/31
f 42/7/31 48/8/31 34/10/31
f 42/7/31 34/10/31 49/7/31
f 42/7/31 49/7/31 50/11/31
f 73/4/37 2/2/10 5/4/37
f 2/2/10 73/4/37 39/2/10
f 11/8/38 32/19/27 47/18/38
f 32/19/27 11/8/38 13/10/27
f 8/6/28 47/18/38 45/6/28
f 47/18/38 8/6/28 11/8/38
f 40/1/2 3/2/35 1/1/2
f 3/2/35 40/1/2 74/2/35
f 67/20/10 26/15/29 36/20/10
f 26/15/29 67/20/10 25/15/29
f 73/4/2 24/4/2 60/4/2
f 24/4/2 73/4/2 5/4/2
f 18/13/19 68/13/19 20/13/19
f 68/13/19 18/13/19 65/13/19
f 74/2/35 7/6/39 3/2/35
f 7/6/39 74/2/35 41/6/39
f 10/7/12 50/11/19 15/11/19
f 50/11/19 10/7/12 42/7/12
f 72/15/26 37/20/35 70/15/26
f 37/20/35 72/15/26 71/20/35
f 61/4/40 71/20/32 63/20/33
f 71/20/32 61/4/40 67/20/32
f 67/20/32 61/4/40 59/20/33
f 59/20/33 61/4/40 60/4/40
f 72/15/2 62/15/2 64/15/2
f 62/15/2 72/15/2 70/15/2
f 61/4/2 22/4/2 69/4/2
f 22/4/2 61/4/2 23/4/2

g key




usemtl colormap

f 3/2/1 2/2/1 1/1/1
f 2/2/1 3/2/1 4/3/1
f 2/2/1 4/3/1 5/4/1
f 3/2/1 6/5/1 4/3/1
f 6/5/1 3/2/1 7/6/1
f 6/5/1 7/6/1 8/6/1
f 5/4/1 4/3/1 9/5/1
f 8/6/1 7/6/1 10/7/1
f 8/6/1 10/7/1 11/8/1
f 5/4/1 9/5/1 12/9/1
f 11/8/1 10/7/1 13/10/1
f 13/10/1 10/7/1 14/7/1
f 14/7/1 10/7/1 15/11/1
f 16/12/1 13/10/1 14/7/1
f 16/12/1 17/8/1 13/10/1
f 18/13/1 17/8/1 16/12/1
f 18/13/1 19/14/1 17/8/1
f 20/13/1 19/14/1 18/13/1
f 20/13/1 5/4/1 12/9/1
f 20/13/1 21/6/1 19/14/1
f 20/13/1 12/9/1 21/6/1
f 22/4/1 5/4/1 20/13/1
f 23/4/1 5/4/1 22/4/1
f 5/4/1 23/4/1 24/4/1
f 27/15/2 26/15/2 25/15/2
f 26/15/2 27/15/2 28/15/2
f 6/5/4 29/16/3 4/3/3
f 29/16/3 6/5/4 30/17/4
f 33/8/5 32/19/6 31/18/5
f 32/19/6 33/8/5 34/10/6
f 24/4/9 36/20/8 35/20/7
f 36/20/8 24/4/9 37/20/8
f 37/20/8 24/4/9 38/20/7
f 38/20/7 24/4/9 23/4/9
f 39/2/10 1/1/2 2/2/10
f 1/1/2 39/2/10 40/1/2
f 41/6/11 10/7/12 7/6/11
f 10/7/12 41/6/11 42/7/12
f 44/21/14 21/6/13 43/6/13
f 21/6/13 44/21/14 19/14/14
f 19/14/14 44/21/14 31/18/15
f 19/14/14 31/18/15 17/8/15
f 47/18/17 46/6/16 45/6/16
f 46/6/16 47/18/17 48/8/17
f 15/11/19 49/7/18 14/7/18
f 49/7/18 15/11/19 50/11/19
f 51/6/20 44/21/21 43/6/20
f 44/21/21 51/6/20 52/14/21
f 44/21/21 52/14/21 31/18/5
f 31/18/5 52/14/21 33/8/5
f 29/16/22 54/5/23 53/3/22
f 54/5/23 29/16/22 30/17/23
f 57/9/25 56/17/24 55/5/24
f 56/17/24 57/9/25 58/22/25
f 58/22/25 57/9/25 51/6/20
f 58/22/25 51/6/20 43/6/20
f 27/15/26 35/20/26 28/15/26
f 59/20/26 35/20/26 27/15/26
f 60/4/26 35/20/26 59/20/26
f 35/20/26 60/4/26 24/4/26
f 32/19/6 48/8/17 47/18/17
f 48/8/17 32/19/6 34/10/6
f 35/20/7 26/15/1 28/15/1
f 26/15/1 35/20/7 36/20/8
f 55/5/24 29/16/22 53/3/22
f 29/16/22 55/5/24 56/17/24
f 32/19/27 17/8/15 31/18/15
f 17/8/15 32/19/27 13/10/27
f 8/6/28 30/17/4 6/5/4
f 30/17/4 8/6/28 45/6/28
f 61/4/29 38/20/29 23/4/29
f 38/20/29 61/4/29 62/15/29
f 62/15/29 61/4/29 63/20/29
f 64/15/29 62/15/29 63/20/29
f 30/17/23 46/6/16 54/5/23
f 46/6/16 30/17/23 45/6/16
f 14/7/18 18/13/30 16/12/30
f 18/13/30 14/7/18 65/13/30
f 65/13/30 14/7/18 49/7/18
f 65/13/30 49/7/18 66/12/30
f 67/20/32 27/15/31 25/15/31
f 27/15/31 67/20/32 59/20/33
f 68/13/29 22/4/29 20/13/29
f 22/4/29 68/13/29 69/4/29
f 29/16/3 9/5/34 4/3/3
f 9/5/34 29/16/3 56/17/34
f 37/20/8 62/15/1 70/15/1
f 62/15/1 37/20/8 38/20/7
f 67/20/10 37/20/35 71/20/35
f 37/20/35 67/20/10 36/20/10
f 63/20/33 72/15/31 64/15/31
f 72/15/31 63/20/33 71/20/32
f 56/17/34 12/9/36 9/5/34
f 12/9/36 56/17/34 58/22/36
f 12/9/36 58/22/36 21/6/13
f 21/6/13 58/22/36 43/6/13
f 68/13/31 61/4/31 69/4/31
f 61/4/31 68/13/31 60/4/31
f 60/4/31 68/13/31 73/4/31
f 73/4/31 68/13/31 57/9/31
f 57/9/31 68/13/31 51/6/31
f 55/5/31 73/4/31 57/9/31
f 51/6/31 68/13/31 52/14/31
f 52/14/31 68/13/31 65/13/31
f 52/14/31 65/13/31 33/8/31
f 33/8/31 65/13/31 66/12/31
f 53/3/31 73/4/31 55/5/31
f 33/8/31 66/12/31 34/10/31
f 53/3/31 39/2/31 73/4/31
f 34/10/31 66/12/31 49/7/31
f 74/2/31 39/2/31 53/3/31
f 39/2/31 74/2/31 40/1/31
f 54/5/31 74/2/31 53/3/31
f 74/2/31 54/5/31 41/6/31
f 41/6/31 54/5/31 46/6/31
f 41/6/31 46/6/31 48/8/31
f 41/6/31 48/8/31 42/7/31
f 42/7/31 48/8/31 34/10/31
f 42/7/31 34/10/31 49/7/31
f 42/7/31 49/7/31 50/11/31
f 73/4/37 2/2/10 5/4/37
f 2/2/10 73/4/37 39/2/10
f 11/8/38 32/19/27 47/18/38
f 32/19/27 11/8/38 13/10/27
f 8/6/28 47/18/38 45/6/28
f 47/18/38 8/6/28 11/8/38
f 40/1/2 3/2/35 1/1/2
f 3/2/35 40/1/2 74/2/35
f 67/20/10 26/15/29 36/20/10
f 26/15/29 67/20/10 25/15/29
f 73/4/2 24/4/2 60/4/2
f 24/4/2 73/4/2 5/4/2
f 18/13/19 68/13/19 20/13/19
f 68/13/19 18/13/19 65/13/19
f 74/2/35 7/6/39 3/2/35
f 7/6/39 74/2/35 41/6/39
f 10/7/12 50/11/19 15/11/19
f 50/11/19 10/7/12 42/7/12
f 72/15/26 37/20/35 70/15/26
f 37/20/35 72/15/26 71/20/35
f 61/4/40 71/20/32 63/20/33
f 71/20/32 61/4/40 67/20/32
f 67/20/32 61/4/40 59/20/33
f 59/20/33 61/4/40 60/4/40
f 72/15/2 62/15/2 64/15/2
f 62/15/2 72/15/2 70/15/2
f 61/4/2 22/4/2 69/4/2
f 22/4/2 61/4/2 23/4/2

