# Created by Kenney (www.kenney.nl)

mtllib mushrooms.mtl

g mushrooms

v 0.0252858 3.609558E-16 0.193733 1 1 1
v -0.0512142 3.609558E-16 0.193733 1 1 1
v 0.0180183 0.1 0.1864655 1 1 1
v -0.0439467 0.1 0.1864655 1 1 1
v 0.103873 7.219114E-16 -0.1211143 1 1 1
v 0.180373 7.219114E-16 -0.1211143 1 1 1
v 0.1111405 0.18 -0.1138468 1 1 1
v 0.1731054 0.18 -0.1138468 1 1 1
v 0.0252858 3.609558E-16 0.117233 1 1 1
v 0.0180183 0.1 0.1245005 1 1 1
v -0.0512142 3.609558E-16 0.117233 1 1 1
v -0.0439467 0.1 0.1245005 1 1 1
v -0.180373 0 -0.193733 1 1 1
v -0.1038729 0 -0.193733 1 1 1
v -0.1731054 0.06 -0.1864655 1 1 1
v -0.1111404 0.06 -0.1864655 1 1 1
v 0.180373 7.219114E-16 -0.0446143 1 1 1
v 0.103873 7.219114E-16 -0.0446143 1 1 1
v 0.1731054 0.18 -0.0518818 1 1 1
v 0.1111405 0.18 -0.0518818 1 1 1
v -0.1038729 0 -0.117233 1 1 1
v -0.1111404 0.06 -0.1245005 1 1 1
v -0.180373 0 -0.117233 1 1 1
v -0.1731054 0.06 -0.1245005 1 1 1
v 0.1070358 0.1276968 0.1528662 1 1 1
v 0.09975175 0.0881465 0.1468848 1 1 1
v 0.04703575 0.1121566 0.2556207 1 1 1
v 0.04339375 0.07354964 0.2434021 1 1 1
v 0.04703575 0.1432369 0.05011161 1 1 1
v 0.04339375 0.1027434 0.05036738 1 1 1
v -0.06932224 0.07354964 0.2434021 1 1 1
v -0.07296425 0.1121566 0.2556207 1 1 1
v 0.06503575 0.2018535 0.1640814 1 1 1
v 0.02603575 0.1917524 0.2308718 1 1 1
v 0.02603575 0.2119546 0.0972909 1 1 1
v -0.05196425 0.2119546 0.0972909 1 1 1
v -0.05196425 0.1917524 0.2308718 1 1 1
v -0.09096425 0.2018535 0.1640814 1 1 1
v -0.07296425 0.1432369 0.05011161 1 1 1
v -0.1329643 0.1276968 0.1528662 1 1 1
v -0.06932224 0.1027434 0.05036738 1 1 1
v -0.1256802 0.0881465 0.1468848 1 1 1
v 0.2249256 0.2753386 -0.0828643 1 1 1
v 0.2600922 0.1969019 -0.0828643 1 1 1
v 0.18608 0.2788055 -0.0153143 1 1 1
v 0.2003297 0.2022356 0.0210587 1 1 1
v 0.08087663 0.1727375 -0.1804792 1 1 1
v 0.1931464 0.1627177 -0.1804792 1 1 1
v 0.08080482 0.2129029 -0.1867873 1 1 1
v 0.2003297 0.2022356 -0.1867873 1 1 1
v 0.1083887 0.2857392 -0.1504143 1 1 1
v 0.02104226 0.2182366 -0.0828643 1 1 1
v 0.06954306 0.2892061 -0.0828643 1 1 1
v 0.08080482 0.2129029 0.0210587 1 1 1
v 0.1083887 0.2857392 -0.0153143 1 1 1
v 0.2492812 0.1577078 -0.0828643 1 1 1
v 0.1931464 0.1627177 0.0147507 1 1 1
v 0.18608 0.2788055 -0.1504143 1 1 1
v 0.08087663 0.1727375 0.0147507 1 1 1
v 0.02474166 0.1777474 -0.0828643 1 1 1
v -0.202123 0.07426092 -0.2562866 1 1 1
v -0.181123 0.153321 -0.2298761 1 1 1
v -0.262123 0.08764576 -0.1532291 1 1 1
v -0.220123 0.1620211 -0.1628887 1 1 1
v -0.06412295 0.1620211 -0.1628887 1 1 1
v -0.1031229 0.1707212 -0.09590145 1 1 1
v -0.1031229 0.153321 -0.2298761 1 1 1
v -0.181123 0.1707212 -0.09590145 1 1 1
v -0.2548389 0.04797892 -0.1480772 1 1 1
v -0.1984811 0.06055128 -0.05127537 1 1 1
v -0.202123 0.1010306 -0.05017163 1 1 1
v -0.08212295 0.07426092 -0.2562866 1 1 1
v -0.02212295 0.08764576 -0.1532291 1 1 1
v -0.02940696 0.04797892 -0.1480772 1 1 1
v -0.08576496 0.03540653 -0.2448792 1 1 1
v -0.08576496 0.06055128 -0.05127537 1 1 1
v -0.1984811 0.03540653 -0.2448792 1 1 1
v -0.08212295 0.1010306 -0.05017163 1 1 1

vn 0 0.07248384 0.9973695
vn 0 0.04034213 -0.9991859
vn 0.9973695 0.07248384 0
vn -0.9973695 0.07248384 0
vn 0 0.1202461 -0.9927442
vn 0 0.04034213 0.9991859
vn 0 0.07248384 -0.9973695
vn 0.9991859 0.04034268 0
vn 0.9927442 0.1202461 0
vn -0.992744 0.1202478 0
vn 0 0.1202461 0.9927442
vn -0.9991859 0.04034213 0
vn 0 -1 0
vn 0.988796 0.1475952 0.02232168
vn 0.983821 -0.1771396 -0.02678954
vn 0.4943978 0.01954427 0.8690159
vn 0.4919105 -0.3045468 0.815644
vn 0.4943981 0.275646 -0.8243724
vn 0.4919106 -0.04973276 -0.8692241
vn -0.4919105 -0.3045468 0.815644
vn -0.4943978 0.01954427 0.8690159
vn 0.6098926 0.7835735 0.1185044
vn 0.3049462 0.7045918 0.6407482
vn 0.3049464 0.8625556 -0.4037393
vn -0.3049464 0.8625556 -0.4037393
vn -0.3049462 0.7045918 0.6407482
vn -0.6098926 0.7835735 0.1185044
vn -0.4943981 0.275646 -0.8243724
vn -0.988796 0.1475952 0.02232168
vn -0.4919106 -0.04973276 -0.8692241
vn -0.983821 -0.1771396 -0.02678954
vn 0 -0.9887563 -0.1495353
vn 0.6779256 0.7351304 0
vn 0.998151 0.0607844 0
vn 0.3741865 0.7622383 0.5281829
vn 0.5057099 0.1047342 0.8563224
vn -0.5058884 -0.134716 -0.8520145
vn 0.4740379 -0.2221722 -0.8520139
vn -0.4791707 0.1926317 -0.8563226
vn 0.5057097 0.1047334 -0.8563226
vn -0.2332919 0.8164543 -0.5281829
vn -0.9716119 0.236581 0
vn -0.5370311 0.8435625 0
vn -0.4791709 0.1926325 0.8563224
vn -0.2332919 0.8164543 0.5281829
vn 0.9640006 -0.2659001 0
vn 0.4740378 -0.2221704 0.8520144
vn 0.3741865 0.7622383 -0.5281829
vn -0.505888 -0.1347143 0.8520149
vn -0.0888943 -0.9960411 0
vn -0.995852 -0.09098803 0
vn -0.4943978 0.0377403 -0.8684161
vn -0.3049468 0.7178559 -0.6258516
vn -0.9887959 0.1480309 -0.01922585
vn -0.6098927 0.7858835 -0.1020684
vn 0.6098926 0.7858835 -0.1020684
vn 0.3049462 0.8539112 0.4217148
vn 0.3049464 0.717856 -0.6258517
vn -0.3049466 0.853911 0.4217148
vn -0.9838214 -0.1776603 0.02307404
vn -0.4919112 -0.06792495 0.8679916
vn -0.4943976 0.2583214 0.8299645
vn 0.4943981 0.03774013 -0.868416
vn 0.9887959 0.1480305 -0.01922581
vn 0 -0.9916711 0.1287956
vn 0.4943978 0.2583212 0.8299644
vn 0.4919104 -0.06792549 0.8679922
vn -0.4919114 -0.2873962 -0.8218434
vn 0.4919106 -0.2873968 -0.8218437
vn 0.9838212 -0.1776615 0.0230742

vt 0.71875 0.475
vt 0.71875 0.3638889
vt 0.71875 0.275
vt 0.71875 0.4083333
vt 0.34375 0.6097826
vt 0.34375 0.575
vt 0.34375 0.675

usemtl colormap

f 3/2/1 2/1/1 1/1/1
f 2/1/1 3/2/1 4/2/1
f 7/3/2 6/1/2 5/1/2
f 6/1/2 7/3/2 8/3/2
f 10/2/3 1/1/3 9/1/3
f 1/1/3 10/2/3 3/2/3
f 2/1/4 12/2/4 11/1/4
f 12/2/4 2/1/4 4/2/4
f 15/4/5 14/1/5 13/1/5
f 14/1/5 15/4/5 16/4/5
f 19/3/6 18/1/6 17/1/6
f 18/1/6 19/3/6 20/3/6
f 12/2/7 9/1/7 11/1/7
f 9/1/7 12/2/7 10/2/7
f 8/3/8 17/1/8 6/1/8
f 17/1/8 8/3/8 19/3/8
f 16/4/9 21/1/9 14/1/9
f 21/1/9 16/4/9 22/4/9
f 23/1/10 15/4/10 13/1/10
f 15/4/10 23/1/10 24/4/10
f 22/4/11 23/1/11 21/1/11
f 23/1/11 22/4/11 24/4/11
f 18/1/12 7/3/12 5/1/12
f 7/3/12 18/1/12 20/3/12
f 18/1/13 6/1/13 17/1/13
f 6/1/13 18/1/13 5/1/13
f 2/1/13 9/1/13 1/1/13
f 9/1/13 2/1/13 11/1/13
f 23/1/13 14/1/13 21/1/13
f 14/1/13 23/1/13 13/1/13
f 27/5/16 26/6/15 25/5/14
f 26/6/15 27/5/16 28/6/17
f 25/5/14 30/6/19 29/5/18
f 30/6/19 25/5/14 26/6/15
f 27/5/16 31/6/20 28/6/17
f 31/6/20 27/5/16 32/5/21
f 34/7/23 25/5/14 33/7/22
f 25/5/14 34/7/23 27/5/16
f 35/7/24 34/7/23 33/7/22
f 34/7/23 35/7/24 36/7/25
f 34/7/23 36/7/25 37/7/26
f 37/7/26 36/7/25 38/7/27
f 34/7/23 32/5/21 27/5/16
f 32/5/21 34/7/23 37/7/26
f 41/6/30 40/5/29 39/5/28
f 40/5/29 41/6/30 42/6/31
f 40/5/29 36/7/25 39/5/28
f 36/7/25 40/5/29 38/7/27
f 36/7/25 29/5/18 39/5/28
f 29/5/18 36/7/25 35/7/24
f 32/5/21 38/7/27 40/5/29
f 38/7/27 32/5/21 37/7/26
f 35/7/24 25/5/14 29/5/18
f 25/5/14 35/7/24 33/7/22
f 39/5/28 30/6/19 41/6/30
f 30/6/19 39/5/28 29/5/18
f 31/6/20 40/5/29 42/6/31
f 40/5/29 31/6/20 32/5/21
f 28/6/32 30/6/32 26/6/32
f 30/6/32 28/6/32 31/6/32
f 30/6/32 31/6/32 41/6/32
f 41/6/32 31/6/32 42/6/32
f 45/7/35 44/5/34 43/7/33
f 44/5/34 45/7/35 46/5/36
f 49/5/39 48/6/38 47/6/37
f 48/6/38 49/5/39 50/5/40
f 52/5/42 51/7/41 49/5/39
f 51/7/41 52/5/42 53/7/43
f 45/7/35 54/5/44 46/5/36
f 54/5/44 45/7/35 55/7/45
f 46/5/36 56/6/46 44/5/34
f 56/6/46 46/5/36 57/6/47
f 51/7/41 50/5/40 49/5/39
f 50/5/40 51/7/41 58/7/48
f 58/7/48 44/5/34 50/5/40
f 44/5/34 58/7/48 43/7/33
f 46/5/36 59/6/49 57/6/47
f 59/6/49 46/5/36 54/5/44
f 58/7/48 45/7/35 43/7/33
f 45/7/35 58/7/48 51/7/41
f 45/7/35 51/7/41 55/7/45
f 55/7/45 51/7/41 53/7/43
f 57/6/50 48/6/50 56/6/50
f 48/6/50 57/6/50 59/6/50
f 48/6/50 59/6/50 47/6/50
f 47/6/50 59/6/50 60/6/50
f 44/5/34 48/6/38 50/5/40
f 48/6/38 44/5/34 56/6/46
f 47/6/37 52/5/42 49/5/39
f 52/5/42 47/6/37 60/6/51
f 54/5/44 53/7/43 52/5/42
f 53/7/43 54/5/44 55/7/45
f 59/6/49 52/5/42 60/6/51
f 52/5/42 59/6/49 54/5/44
f 63/5/54 62/7/53 61/5/52
f 62/7/53 63/5/54 64/7/55
f 67/7/58 66/7/57 65/7/56
f 66/7/57 67/7/58 62/7/53
f 66/7/57 62/7/53 68/7/59
f 68/7/59 62/7/53 64/7/55
f 70/6/61 63/5/54 69/6/60
f 63/5/54 70/6/61 71/5/62
f 67/7/58 73/5/64 72/5/63
f 73/5/64 67/7/58 65/7/56
f 62/7/53 72/5/63 61/5/52
f 72/5/63 62/7/53 67/7/58
f 76/6/65 75/6/65 74/6/65
f 75/6/65 76/6/65 70/6/65
f 75/6/65 70/6/65 77/6/65
f 77/6/65 70/6/65 69/6/65
f 66/7/57 73/5/64 65/7/56
f 73/5/64 66/7/57 78/5/66
f 66/7/57 71/5/62 78/5/66
f 71/5/62 66/7/57 68/7/59
f 78/5/66 70/6/61 76/6/67
f 70/6/61 78/5/66 71/5/62
f 61/5/52 75/6/69 77/6/68
f 75/6/69 61/5/52 72/5/63
f 73/5/64 75/6/69 72/5/63
f 75/6/69 73/5/64 74/6/70
f 71/5/62 64/7/55 63/5/54
f 64/7/55 71/5/62 68/7/59
f 77/6/68 63/5/54 61/5/52
f 63/5/54 77/6/68 69/6/60
f 78/5/66 74/6/70 73/5/64
f 74/6/70 78/5/66 76/6/67

g mushrooms




usemtl colormap

f 3/2/1 2/1/1 1/1/1
f 2/1/1 3/2/1 4/2/1
f 7/3/2 6/1/2 5/1/2
f 6/1/2 7/3/2 8/3/2
f 10/2/3 1/1/3 9/1/3
f 1/1/3 10/2/3 3/2/3
f 2/1/4 12/2/4 11/1/4
f 12/2/4 2/1/4 4/2/4
f 15/4/5 14/1/5 13/1/5
f 14/1/5 15/4/5 16/4/5
f 19/3/6 18/1/6 17/1/6
f 18/1/6 19/3/6 20/3/6
f 12/2/7 9/1/7 11/1/7
f 9/1/7 12/2/7 10/2/7
f 8/3/8 17/1/8 6/1/8
f 17/1/8 8/3/8 19/3/8
f 16/4/9 21/1/9 14/1/9
f 21/1/9 16/4/9 22/4/9
f 23/1/10 15/4/10 13/1/10
f 15/4/10 23/1/10 24/4/10
f 22/4/11 23/1/11 21/1/11
f 23/1/11 22/4/11 24/4/11
f 18/1/12 7/3/12 5/1/12
f 7/3/12 18/1/12 20/3/12
f 18/1/13 6/1/13 17/1/13
f 6/1/13 18/1/13 5/1/13
f 2/1/13 9/1/13 1/1/13
f 9/1/13 2/1/13 11/1/13
f 23/1/13 14/1/13 21/1/13
f 14/1/13 23/1/13 13/1/13
f 27/5/16 26/6/15 25/5/14
f 26/6/15 27/5/16 28/6/17
f 25/5/14 30/6/19 29/5/18
f 30/6/19 25/5/14 26/6/15
f 27/5/16 31/6/20 28/6/17
f 31/6/20 27/5/16 32/5/21
f 34/7/23 25/5/14 33/7/22
f 25/5/14 34/7/23 27/5/16
f 35/7/24 34/7/23 33/7/22
f 34/7/23 35/7/24 36/7/25
f 34/7/23 36/7/25 37/7/26
f 37/7/26 36/7/25 38/7/27
f 34/7/23 32/5/21 27/5/16
f 32/5/21 34/7/23 37/7/26
f 41/6/30 40/5/29 39/5/28
f 40/5/29 41/6/30 42/6/31
f 40/5/29 36/7/25 39/5/28
f 36/7/25 40/5/29 38/7/27
f 36/7/25 29/5/18 39/5/28
f 29/5/18 36/7/25 35/7/24
f 32/5/21 38/7/27 40/5/29
f 38/7/27 32/5/21 37/7/26
f 35/7/24 25/5/14 29/5/18
f 25/5/14 35/7/24 33/7/22
f 39/5/28 30/6/19 41/6/30
f 30/6/19 39/5/28 29/5/18
f 31/6/20 40/5/29 42/6/31
f 40/5/29 31/6/20 32/5/21
f 28/6/32 30/6/32 26/6/32
f 30/6/32 28/6/32 31/6/32
f 30/6/32 31/6/32 41/6/32
f 41/6/32 31/6/32 42/6/32
f 45/7/35 44/5/34 43/7/33
f 44/5/34 45/7/35 46/5/36
f 49/5/39 48/6/38 47/6/37
f 48/6/38 49/5/39 50/5/40
f 52/5/42 51/7/41 49/5/39
f 51/7/41 52/5/42 53/7/43
f 45/7/35 54/5/44 46/5/36
f 54/5/44 45/7/35 55/7/45
f 46/5/36 56/6/46 44/5/34
f 56/6/46 46/5/36 57/6/47
f 51/7/41 50/5/40 49/5/39
f 50/5/40 51/7/41 58/7/48
f 58/7/48 44/5/34 50/5/40
f 44/5/34 58/7/48 43/7/33
f 46/5/36 59/6/49 57/6/47
f 59/6/49 46/5/36 54/5/44
f 58/7/48 45/7/35 43/7/33
f 45/7/35 58/7/48 51/7/41
f 45/7/35 51/7/41 55/7/45
f 55/7/45 51/7/41 53/7/43
f 57/6/50 48/6/50 56/6/50
f 48/6/50 57/6/50 59/6/50
f 48/6/50 59/6/50 47/6/50
f 47/6/50 59/6/50 60/6/50
f 44/5/34 48/6/38 50/5/40
f 48/6/38 44/5/34 56/6/46
f 47/6/37 52/5/42 49/5/39
f 52/5/42 47/6/37 60/6/51
f 54/5/44 53/7/43 52/5/42
f 53/7/43 54/5/44 55/7/45
f 59/6/49 52/5/42 60/6/51
f 52/5/42 59/6/49 54/5/44
f 63/5/54 62/7/53 61/5/52
f 62/7/53 63/5/54 64/7/55
f 67/7/58 66/7/57 65/7/56
f 66/7/57 67/7/58 62/7/53
f 66/7/57 62/7/53 68/7/59
f 68/7/59 62/7/53 64/7/55
f 70/6/61 63/5/54 69/6/60
f 63/5/54 70/6/61 71/5/62
f 67/7/58 73/5/64 72/5/63
f 73/5/64 67/7/58 65/7/56
f 62/7/53 72/5/63 61/5/52
f 72/5/63 62/7/53 67/7/58
f 76/6/65 75/6/65 74/6/65
f 75/6/65 76/6/65 70/6/65
f 75/6/65 70/6/65 77/6/65
f 77/6/65 70/6/65 69/6/65
f 66/7/57 73/5/64 65/7/56
f 73/5/64 66/7/57 78/5/66
f 66/7/57 71/5/62 78/5/66
f 71/5/62 66/7/57 68/7/59
f 78/5/66 70/6/61 76/6/67
f 70/6/61 78/5/66 71/5/62
f 61/5/52 75/6/69 77/6/68
f 75/6/69 61/5/52 72/5/63
f 73/5/64 75/6/69 72/5/63
f 75/6/69 73/5/64 74/6/70
f 71/5/62 64/7/55 63/5/54
f 64/7/55 71/5/62 68/7/59
f 77/6/68 63/5/54 61/5/52
f 63/5/54 77/6/68 69/6/60
f 78/5/66 74/6/70 73/5/64
f 74/6/70 78/5/66 76/6/67

