# Created by Kenney (www.kenney.nl)

mtllib pipe.mtl

g pipe

v -0.1580303 0.2785715 -0.2737165 1 1 1
v -0.1580303 0 -0.2737165 1 1 1
v -0.2737165 0.2785715 -0.1580303 1 1 1
v -0.2737165 0 -0.1580303 1 1 1
v 0.3160606 0 -3.093906E-15 1 1 1
v 0.3160606 0.2785715 -3.093906E-15 1 1 1
v 0.2737165 0 0.1580303 1 1 1
v 0.2737165 0.2785715 0.1580303 1 1 1
v -5.15651E-16 0 -0.3160606 1 1 1
v -5.15651E-16 0.2785715 -0.3160606 1 1 1
v -0.3160606 0.2785715 -3.093906E-15 1 1 1
v -0.3160606 0 -3.093906E-15 1 1 1
v -0.2737165 0.2785715 0.1580303 1 1 1
v -0.2737165 0 0.1580303 1 1 1
v -0.1580303 0 0.2737165 1 1 1
v -5.15651E-16 0 0.3160606 1 1 1
v -0.1580303 0.2785715 0.2737165 1 1 1
v -5.15651E-16 0.2785715 0.3160606 1 1 1
v 0.1580303 0 0.2737165 1 1 1
v 0.1580303 0.2785715 0.2737165 1 1 1
v 0.1580303 0 -0.2737165 1 1 1
v 0.1580303 0.2785715 -0.2737165 1 1 1
v 0.2737165 0 -0.1580303 1 1 1
v 0.2737165 0.2785715 -0.1580303 1 1 1
v -0.2239286 1.440197E-16 -0.3878556 1 1 1
v -5.15651E-16 1.440197E-16 -0.4478571 1 1 1
v -0.2035714 0.2785715 -0.3525961 1 1 1
v -5.15651E-16 0.2785715 -0.4071428 1 1 1
v -0.3878556 1.440197E-16 -0.2239286 1 1 1
v -0.3525961 0.2785715 -0.2035714 1 1 1
v -5.15651E-16 1.440197E-16 0.4478571 1 1 1
v -0.2239286 1.440197E-16 0.3878556 1 1 1
v -5.15651E-16 0.2785715 0.4071428 1 1 1
v -0.2035714 0.2785715 0.3525961 1 1 1
v 0.2239286 1.440197E-16 0.3878556 1 1 1
v 0.2035714 0.2785715 0.3525961 1 1 1
v 0.2239286 1.440197E-16 -0.3878556 1 1 1
v 0.3878556 1.440197E-16 -0.2239286 1 1 1
v 0.2035714 0.2785715 -0.3525961 1 1 1
v 0.3525961 0.2785715 -0.2035714 1 1 1
v 0.3525961 0.2785715 0.2035714 1 1 1
v 0.3878556 1.440197E-16 0.2239286 1 1 1
v 0.4478571 1.440197E-16 -5.15651E-15 1 1 1
v 0.4071428 0.2785715 -3.093906E-15 1 1 1
v -0.4478571 1.440197E-16 -5.15651E-15 1 1 1
v -0.4071428 0.2785715 -3.093906E-15 1 1 1
v -0.3878556 1.440197E-16 0.2239286 1 1 1
v -0.3525961 0.2785715 0.2035714 1 1 1
v 0.1580303 0.2785714 -0.2737165 1 1 1
v 0 0.2785714 -0.3160606 1 1 1
v 0.1580303 0.5642858 -0.2737165 1 1 1
v 0 0.5642858 -0.3160606 1 1 1
v -0.1580303 0.2785714 -0.2737165 1 1 1
v -0.1580303 0.5642858 -0.2737165 1 1 1
v -0.2737165 0.5642858 -0.1580303 1 1 1
v -0.2737165 0.2785714 -0.1580303 1 1 1
v -0.3160606 0.5642858 1.443823E-15 1 1 1
v -0.3160606 0.2785714 1.443823E-15 1 1 1
v -0.2737165 0.5642858 0.1580303 1 1 1
v -0.2737165 0.2785714 0.1580303 1 1 1
v -0.1580303 0.2785714 0.2737165 1 1 1
v -0.1580303 0.5642858 0.2737165 1 1 1
v 0 0.2785714 0.3160606 1 1 1
v 0 0.5642858 0.3160606 1 1 1
v 0.1580303 0.2785714 0.2737165 1 1 1
v 0.1580303 0.5642858 0.2737165 1 1 1
v 0.2737165 0.2785714 0.1580303 1 1 1
v 0.2737165 0.5642858 0.1580303 1 1 1
v 0.3160606 0.2785714 1.443823E-15 1 1 1
v 0.3160606 0.5642858 1.443823E-15 1 1 1
v 0.2737165 0.2785714 -0.1580303 1 1 1
v 0.2737165 0.5642858 -0.1580303 1 1 1
v 0 0.3035714 0.5 1 1 1
v -0.25 0.3035714 0.4330127 1 1 1
v 0 0.5392857 0.5 1 1 1
v -0.25 0.5392857 0.4330127 1 1 1
v -0.4330127 0.3035714 0.25 1 1 1
v -0.4330127 0.5392857 0.25 1 1 1
v 0.5 0.5392857 -6.187812E-16 1 1 1
v 0.5 0.3035714 -6.187812E-16 1 1 1
v 0.4330127 0.5392857 0.25 1 1 1
v 0.4330127 0.3035714 0.25 1 1 1
v -0.25 0.3035714 -0.4330127 1 1 1
v 0 0.3035714 -0.5 1 1 1
v -0.25 0.5392857 -0.4330127 1 1 1
v 0 0.5392857 -0.5 1 1 1
v -0.4330127 0.3035714 -0.25 1 1 1
v -0.4330127 0.5392857 -0.25 1 1 1
v -0.5 0.3035714 -6.187812E-16 1 1 1
v -0.5 0.5392857 -6.187812E-16 1 1 1
v 0.25 0.5392857 0.4330127 1 1 1
v 0.25 0.3035714 0.4330127 1 1 1
v 0.25 0.3035714 -0.4330127 1 1 1
v 0.25 0.5392857 -0.4330127 1 1 1
v 0.4330127 0.5392857 -0.25 1 1 1
v 0.4330127 0.3035714 -0.25 1 1 1
v 0.4741181 0.5642858 -2.681385E-15 1 1 1
v 0.4105983 0.5642858 0.237059 1 1 1
v 0.4105983 0.5642858 -0.237059 1 1 1
v 0.237059 0.5642858 -0.4105983 1 1 1
v 0.237059 0.5642858 0.4105983 1 1 1
v 0 0.5642858 -0.4741181 1 1 1
v 0 0.5642858 0.4741181 1 1 1
v -0.237059 0.5642858 0.4105983 1 1 1
v -0.237059 0.5642858 -0.4105983 1 1 1
v -0.4105983 0.5642858 0.237059 1 1 1
v -0.4105983 0.5642858 -0.237059 1 1 1
v -0.4741181 0.5642858 -2.681385E-15 1 1 1
v 0.4741181 0.2785714 -2.681385E-15 1 1 1
v 0.4105983 0.2785714 -0.237059 1 1 1
v 0.4105983 0.2785714 0.237059 1 1 1
v 0.237059 0.2785714 -0.4105983 1 1 1
v 0.237059 0.2785714 0.4105983 1 1 1
v 0 0.2785714 0.4741181 1 1 1
v 0 0.2785714 -0.4741181 1 1 1
v -0.237059 0.2785714 -0.4105983 1 1 1
v -0.237059 0.2785714 0.4105983 1 1 1
v -0.4105983 0.2785714 -0.237059 1 1 1
v -0.4105983 0.2785714 0.237059 1 1 1
v -0.4741181 0.2785714 -2.681385E-15 1 1 1

vn 0.5 0 0.8660254
vn 0.8660254 0 0.5
vn -1 0 0
vn -0.8660254 0 -0.5
vn 0 0 1
vn 1 0 0
vn 0.8660254 0 -0.5
vn 0.5 0 -0.8660254
vn 0 0 -1
vn -0.5 0 -0.8660254
vn -0.5 0 0.8660254
vn -0.8660254 0 0.5
vn -0.4947438 0.1446174 -0.8569214
vn 0 0.1446174 -0.9894876
vn -0.8569214 0.1446174 -0.4947438
vn 0 0.1446174 0.9894876
vn -0.4947438 0.1446174 0.8569214
vn 0.4947438 0.1446174 0.8569214
vn 0.4947438 0.1446174 -0.8569214
vn 0.8569214 0.1446174 -0.4947438
vn 0.8569214 0.1446174 0.4947438
vn 0.9894876 0.1446174 0
vn -0.9894876 0.1446174 0
vn -0.8569214 0.1446174 0.4947438
vn 0 -1 0
vn 0 -0.3692469 0.9293313
vn -0.4646657 -0.3692469 0.8048245
vn 0 0.3692469 0.9293313
vn -0.4646657 0.3692469 0.8048245
vn -0.8048245 -0.3692469 0.4646657
vn -0.8048245 0.3692469 0.4646657
vn 0.9293313 0.3692469 0
vn 0.9293313 -0.3692469 0
vn 0.8048245 0.3692469 0.4646657
vn 0.8048245 -0.3692469 0.4646657
vn -0.4646657 -0.3692469 -0.8048245
vn 0 -0.3692469 -0.9293313
vn -0.4646657 0.3692469 -0.8048245
vn 0 0.3692469 -0.9293313
vn -0.8048245 -0.3692469 -0.4646657
vn -0.8048245 0.3692469 -0.4646657
vn -0.9293313 -0.3692469 0
vn -0.9293313 0.3692469 0
vn 0.4646657 0.3692469 0.8048245
vn 0.4646657 -0.3692469 0.8048245
vn 0.4646657 -0.3692469 -0.8048245
vn 0.4646657 0.3692469 -0.8048245
vn 0.8048245 0.3692469 -0.4646657
vn 0.8048245 -0.3692469 -0.4646657
vn 0 1 0
vn 0.6947466 0.7192546 0
vn 0.6016682 0.7192546 0.3473733
vn -0.3473733 0.7192546 0.6016682
vn -0.6016682 0.7192546 0.3473733
vn 0 0.7192546 0.6947466
vn 0 0.7192546 -0.6947466
vn -0.3473733 0.7192546 -0.6016682
vn -0.6016682 0.7192546 -0.3473733
vn -0.6947466 0.7192546 0
vn 0.6016682 -0.7192546 -0.3473733
vn 0.3473733 -0.7192546 -0.6016682
vn 0 -0.7192546 0.6947466
vn -0.3473733 -0.7192546 0.6016682
vn -0.6016682 -0.7192546 -0.3473733
vn -0.6947466 -0.7192546 0
vn 0.3473733 0.7192546 -0.6016682
vn 0.6947466 -0.7192546 0
vn -0.3473733 -0.7192546 -0.6016682
vn 0 -0.7192546 -0.6947466
vn 0.6016682 0.7192546 -0.3473733
vn 0.3473733 0.7192546 0.6016682
vn 0.6016682 -0.7192546 0.3473733
vn 0.3473733 -0.7192546 0.6016682
vn -0.6016682 -0.7192546 0.3473733

vt 0.46875 0.525
vt 0.46875 0.725
vt 0.46875 0.575
vt 0.46875 0.675
vt 0.46875 0.58375
vt 0.46875 0.66625

usemtl colormap

f 3/1/2 2/2/1 1/1/1
f 2/2/1 3/1/2 4/2/2
f 7/2/4 6/1/3 5/2/3
f 6/1/3 7/2/4 8/1/4
f 10/1/5 2/2/1 9/2/5
f 2/2/1 10/1/5 1/1/1
f 13/1/7 12/2/6 11/1/6
f 12/2/6 13/1/7 14/2/7
f 17/1/8 16/2/9 15/2/8
f 16/2/9 17/1/8 18/1/9
f 19/2/10 8/1/4 7/2/4
f 8/1/4 19/2/10 20/1/10
f 17/1/8 14/2/7 13/1/7
f 14/2/7 17/1/8 15/2/8
f 11/1/6 4/2/2 3/1/2
f 4/2/2 11/1/6 12/2/6
f 22/1/11 9/2/5 21/2/11
f 9/2/5 22/1/11 10/1/5
f 23/2/12 22/1/11 21/2/11
f 22/1/11 23/2/12 24/1/12
f 5/2/3 24/1/12 23/2/12
f 24/1/12 5/2/3 6/1/3
f 18/1/9 19/2/10 16/2/9
f 19/2/10 18/1/9 20/1/10
f 27/1/13 26/2/14 25/2/13
f 26/2/14 27/1/13 28/1/14
f 30/1/15 25/2/13 29/2/15
f 25/2/13 30/1/15 27/1/13
f 33/1/16 32/2/17 31/2/16
f 32/2/17 33/1/16 34/1/17
f 36/1/18 31/2/16 35/2/18
f 31/2/16 36/1/18 33/1/16
f 39/1/19 38/2/20 37/2/19
f 38/2/20 39/1/19 40/1/20
f 36/1/18 42/2/21 41/1/21
f 42/2/21 36/1/18 35/2/18
f 40/1/20 43/2/22 38/2/20
f 43/2/22 40/1/20 44/1/22
f 44/1/22 42/2/21 43/2/22
f 42/2/21 44/1/22 41/1/21
f 45/2/23 30/1/15 29/2/15
f 30/1/15 45/2/23 46/1/23
f 28/1/14 37/2/19 26/2/14
f 37/2/19 28/1/14 39/1/19
f 47/2/24 46/1/23 45/2/23
f 46/1/23 47/2/24 48/1/24
f 47/2/24 34/1/17 48/1/24
f 34/1/17 47/2/24 32/2/17
f 42/2/25 38/2/25 43/2/25
f 38/2/25 42/2/25 35/2/25
f 38/2/25 35/2/25 5/2/25
f 5/2/25 37/2/25 38/2/25
f 5/2/25 35/2/25 7/2/25
f 37/2/25 5/2/25 23/2/25
f 7/2/25 35/2/25 19/2/25
f 37/2/25 23/2/25 21/2/25
f 19/2/25 35/2/25 31/2/25
f 19/2/25 31/2/25 16/2/25
f 37/2/25 21/2/25 26/2/25
f 26/2/25 21/2/25 9/2/25
f 26/2/25 9/2/25 2/2/25
f 26/2/25 2/2/25 25/2/25
f 25/2/25 2/2/25 4/2/25
f 16/2/25 31/2/25 32/2/25
f 16/2/25 32/2/25 15/2/25
f 15/2/25 32/2/25 14/2/25
f 25/2/25 4/2/25 29/2/25
f 14/2/25 32/2/25 47/2/25
f 29/2/25 4/2/25 12/2/25
f 14/2/25 47/2/25 12/2/25
f 29/2/25 12/2/25 47/2/25
f 29/2/25 47/2/25 45/2/25
f 51/4/11 50/3/5 49/3/11
f 50/3/5 51/4/11 52/4/5
f 52/4/5 53/3/1 50/3/5
f 53/3/1 52/4/5 54/4/1
f 55/4/2 53/3/1 54/4/1
f 53/3/1 55/4/2 56/3/2
f 57/4/6 56/3/2 55/4/2
f 56/3/2 57/4/6 58/3/6
f 59/4/7 58/3/6 57/4/6
f 58/3/6 59/4/7 60/3/7
f 59/4/7 61/3/8 60/3/7
f 61/3/8 59/4/7 62/4/8
f 62/4/8 63/3/9 61/3/8
f 63/3/9 62/4/8 64/4/9
f 64/4/9 65/3/10 63/3/9
f 65/3/10 64/4/9 66/4/10
f 65/3/10 68/4/4 67/3/4
f 68/4/4 65/3/10 66/4/10
f 67/3/4 70/4/3 69/3/3
f 70/4/3 67/3/4 68/4/4
f 69/3/3 72/4/12 71/3/12
f 72/4/12 69/3/3 70/4/3
f 71/3/12 51/4/11 49/3/11
f 51/4/11 71/3/12 72/4/12
f 75/6/28 74/5/27 73/5/26
f 74/5/27 75/6/28 76/6/29
f 74/5/27 78/6/31 77/5/30
f 78/6/31 74/5/27 76/6/29
f 81/6/34 80/5/33 79/6/32
f 80/5/33 81/6/34 82/5/35
f 85/6/38 84/5/37 83/5/36
f 84/5/37 85/6/38 86/6/39
f 89/5/42 88/6/41 87/5/40
f 88/6/41 89/5/42 90/6/43
f 77/5/30 90/6/43 89/5/42
f 90/6/43 77/5/30 78/6/31
f 91/6/44 82/5/35 81/6/34
f 82/5/35 91/6/44 92/5/45
f 86/6/39 93/5/46 84/5/37
f 93/5/46 86/6/39 94/6/47
f 87/5/40 85/6/38 83/5/36
f 85/6/38 87/5/40 88/6/41
f 91/6/44 73/5/26 92/5/45
f 73/5/26 91/6/44 75/6/28
f 95/6/48 93/5/46 94/6/47
f 93/5/46 95/6/48 96/5/49
f 99/4/50 98/4/50 97/4/50
f 98/4/50 99/4/50 100/4/50
f 98/4/50 100/4/50 70/4/50
f 70/4/50 101/4/50 98/4/50
f 70/4/50 100/4/50 72/4/50
f 101/4/50 70/4/50 68/4/50
f 72/4/50 100/4/50 51/4/50
f 101/4/50 68/4/50 66/4/50
f 51/4/50 100/4/50 102/4/50
f 51/4/50 102/4/50 52/4/50
f 101/4/50 66/4/50 103/4/50
f 103/4/50 66/4/50 64/4/50
f 103/4/50 64/4/50 62/4/50
f 103/4/50 62/4/50 104/4/50
f 104/4/50 62/4/50 59/4/50
f 52/4/50 102/4/50 105/4/50
f 52/4/50 105/4/50 54/4/50
f 54/4/50 105/4/50 55/4/50
f 104/4/50 59/4/50 106/4/50
f 55/4/50 105/4/50 107/4/50
f 106/4/50 107/4/50 108/4/50
f 106/4/50 59/4/50 57/4/50
f 55/4/50 107/4/50 57/4/50
f 57/4/50 107/4/50 106/4/50
f 79/6/32 96/5/49 95/6/48
f 96/5/49 79/6/32 80/5/33
f 111/3/25 110/3/25 109/3/25
f 110/3/25 111/3/25 112/3/25
f 112/3/25 111/3/25 69/3/25
f 113/3/25 69/3/25 111/3/25
f 112/3/25 69/3/25 71/3/25
f 69/3/25 113/3/25 67/3/25
f 112/3/25 71/3/25 49/3/25
f 67/3/25 113/3/25 65/3/25
f 65/3/25 113/3/25 114/3/25
f 65/3/25 114/3/25 63/3/25
f 112/3/25 49/3/25 115/3/25
f 115/3/25 49/3/25 50/3/25
f 115/3/25 50/3/25 53/3/25
f 115/3/25 53/3/25 116/3/25
f 116/3/25 53/3/25 56/3/25
f 63/3/25 114/3/25 117/3/25
f 63/3/25 117/3/25 61/3/25
f 61/3/25 117/3/25 60/3/25
f 116/3/25 56/3/25 118/3/25
f 60/3/25 117/3/25 119/3/25
f 118/3/25 56/3/25 58/3/25
f 60/3/25 119/3/25 58/3/25
f 118/3/25 58/3/25 119/3/25
f 118/3/25 119/3/25 120/3/25
f 97/4/51 81/6/34 79/6/32
f 81/6/34 97/4/51 98/4/52
f 106/4/54 76/6/29 104/4/53
f 76/6/29 106/4/54 78/6/31
f 104/4/53 75/6/28 103/4/55
f 75/6/28 104/4/53 76/6/29
f 85/6/38 102/4/56 86/6/39
f 102/4/56 85/6/38 105/4/57
f 88/6/41 108/4/59 107/4/58
f 108/4/59 88/6/41 90/6/43
f 108/4/59 78/6/31 106/4/54
f 78/6/31 108/4/59 90/6/43
f 110/3/60 93/5/46 96/5/49
f 93/5/46 110/3/60 112/3/61
f 74/5/27 114/3/62 73/5/26
f 114/3/62 74/5/27 117/3/63
f 85/6/38 107/4/58 105/4/57
f 107/4/58 85/6/38 88/6/41
f 120/3/65 87/5/40 118/3/64
f 87/5/40 120/3/65 89/5/42
f 86/6/39 100/4/66 94/6/47
f 100/4/66 86/6/39 102/4/56
f 109/3/67 96/5/49 80/5/33
f 96/5/49 109/3/67 110/3/60
f 118/3/64 83/5/36 116/3/68
f 83/5/36 118/3/64 87/5/40
f 112/3/61 84/5/37 93/5/46
f 84/5/37 112/3/61 115/3/69
f 95/6/48 97/4/51 79/6/32
f 97/4/51 95/6/48 99/4/70
f 94/6/47 99/4/70 95/6/48
f 99/4/70 94/6/47 100/4/66
f 101/4/71 75/6/28 91/6/44
f 75/6/28 101/4/71 103/4/55
f 92/5/45 111/3/72 82/5/35
f 111/3/72 92/5/45 113/3/73
f 98/4/52 91/6/44 81/6/34
f 91/6/44 98/4/52 101/4/71
f 77/5/30 120/3/65 119/3/74
f 120/3/65 77/5/30 89/5/42
f 116/3/68 84/5/37 115/3/69
f 84/5/37 116/3/68 83/5/36
f 73/5/26 113/3/73 92/5/45
f 113/3/73 73/5/26 114/3/62
f 82/5/35 109/3/67 80/5/33
f 109/3/67 82/5/35 111/3/72
f 74/5/27 119/3/74 117/3/63
f 119/3/74 74/5/27 77/5/30

g pipe




usemtl colormap

f 3/1/2 2/2/1 1/1/1
f 2/2/1 3/1/2 4/2/2
f 7/2/4 6/1/3 5/2/3
f 6/1/3 7/2/4 8/1/4
f 10/1/5 2/2/1 9/2/5
f 2/2/1 10/1/5 1/1/1
f 13/1/7 12/2/6 11/1/6
f 12/2/6 13/1/7 14/2/7
f 17/1/8 16/2/9 15/2/8
f 16/2/9 17/1/8 18/1/9
f 19/2/10 8/1/4 7/2/4
f 8/1/4 19/2/10 20/1/10
f 17/1/8 14/2/7 13/1/7
f 14/2/7 17/1/8 15/2/8
f 11/1/6 4/2/2 3/1/2
f 4/2/2 11/1/6 12/2/6
f 22/1/11 9/2/5 21/2/11
f 9/2/5 22/1/11 10/1/5
f 23/2/12 22/1/11 21/2/11
f 22/1/11 23/2/12 24/1/12
f 5/2/3 24/1/12 23/2/12
f 24/1/12 5/2/3 6/1/3
f 18/1/9 19/2/10 16/2/9
f 19/2/10 18/1/9 20/1/10
f 27/1/13 26/2/14 25/2/13
f 26/2/14 27/1/13 28/1/14
f 30/1/15 25/2/13 29/2/15
f 25/2/13 30/1/15 27/1/13
f 33/1/16 32/2/17 31/2/16
f 32/2/17 33/1/16 34/1/17
f 36/1/18 31/2/16 35/2/18
f 31/2/16 36/1/18 33/1/16
f 39/1/19 38/2/20 37/2/19
f 38/2/20 39/1/19 40/1/20
f 36/1/18 42/2/21 41/1/21
f 42/2/21 36/1/18 35/2/18
f 40/1/20 43/2/22 38/2/20
f 43/2/22 40/1/20 44/1/22
f 44/1/22 42/2/21 43/2/22
f 42/2/21 44/1/22 41/1/21
f 45/2/23 30/1/15 29/2/15
f 30/1/15 45/2/23 46/1/23
f 28/1/14 37/2/19 26/2/14
f 37/2/19 28/1/14 39/1/19
f 47/2/24 46/1/23 45/2/23
f 46/1/23 47/2/24 48/1/24
f 47/2/24 34/1/17 48/1/24
f 34/1/17 47/2/24 32/2/17
f 42/2/25 38/2/25 43/2/25
f 38/2/25 42/2/25 35/2/25
f 38/2/25 35/2/25 5/2/25
f 5/2/25 37/2/25 38/2/25
f 5/2/25 35/2/25 7/2/25
f 37/2/25 5/2/25 23/2/25
f 7/2/25 35/2/25 19/2/25
f 37/2/25 23/2/25 21/2/25
f 19/2/25 35/2/25 31/2/25
f 19/2/25 31/2/25 16/2/25
f 37/2/25 21/2/25 26/2/25
f 26/2/25 21/2/25 9/2/25
f 26/2/25 9/2/25 2/2/25
f 26/2/25 2/2/25 25/2/25
f 25/2/25 2/2/25 4/2/25
f 16/2/25 31/2/25 32/2/25
f 16/2/25 32/2/25 15/2/25
f 15/2/25 32/2/25 14/2/25
f 25/2/25 4/2/25 29/2/25
f 14/2/25 32/2/25 47/2/25
f 29/2/25 4/2/25 12/2/25
f 14/2/25 47/2/25 12/2/25
f 29/2/25 12/2/25 47/2/25
f 29/2/25 47/2/25 45/2/25
f 51/4/11 50/3/5 49/3/11
f 50/3/5 51/4/11 52/4/5
f 52/4/5 53/3/1 50/3/5
f 53/3/1 52/4/5 54/4/1
f 55/4/2 53/3/1 54/4/1
f 53/3/1 55/4/2 56/3/2
f 57/4/6 56/3/2 55/4/2
f 56/3/2 57/4/6 58/3/6
f 59/4/7 58/3/6 57/4/6
f 58/3/6 59/4/7 60/3/7
f 59/4/7 61/3/8 60/3/7
f 61/3/8 59/4/7 62/4/8
f 62/4/8 63/3/9 61/3/8
f 63/3/9 62/4/8 64/4/9
f 64/4/9 65/3/10 63/3/9
f 65/3/10 64/4/9 66/4/10
f 65/3/10 68/4/4 67/3/4
f 68/4/4 65/3/10 66/4/10
f 67/3/4 70/4/3 69/3/3
f 70/4/3 67/3/4 68/4/4
f 69/3/3 72/4/12 71/3/12
f 72/4/12 69/3/3 70/4/3
f 71/3/12 51/4/11 49/3/11
f 51/4/11 71/3/12 72/4/12
f 75/6/28 74/5/27 73/5/26
f 74/5/27 75/6/28 76/6/29
f 74/5/27 78/6/31 77/5/30
f 78/6/31 74/5/27 76/6/29
f 81/6/34 80/5/33 79/6/32
f 80/5/33 81/6/34 82/5/35
f 85/6/38 84/5/37 83/5/36
f 84/5/37 85/6/38 86/6/39
f 89/5/42 88/6/41 87/5/40
f 88/6/41 89/5/42 90/6/43
f 77/5/30 90/6/43 89/5/42
f 90/6/43 77/5/30 78/6/31
f 91/6/44 82/5/35 81/6/34
f 82/5/35 91/6/44 92/5/45
f 86/6/39 93/5/46 84/5/37
f 93/5/46 86/6/39 94/6/47
f 87/5/40 85/6/38 83/5/36
f 85/6/38 87/5/40 88/6/41
f 91/6/44 73/5/26 92/5/45
f 73/5/26 91/6/44 75/6/28
f 95/6/48 93/5/46 94/6/47
f 93/5/46 95/6/48 96/5/49
f 99/4/50 98/4/50 97/4/50
f 98/4/50 99/4/50 100/4/50
f 98/4/50 100/4/50 70/4/50
f 70/4/50 101/4/50 98/4/50
f 70/4/50 100/4/50 72/4/50
f 101/4/50 70/4/50 68/4/50
f 72/4/50 100/4/50 51/4/50
f 101/4/50 68/4/50 66/4/50
f 51/4/50 100/4/50 102/4/50
f 51/4/50 102/4/50 52/4/50
f 101/4/50 66/4/50 103/4/50
f 103/4/50 66/4/50 64/4/50
f 103/4/50 64/4/50 62/4/50
f 103/4/50 62/4/50 104/4/50
f 104/4/50 62/4/50 59/4/50
f 52/4/50 102/4/50 105/4/50
f 52/4/50 105/4/50 54/4/50
f 54/4/50 105/4/50 55/4/50
f 104/4/50 59/4/50 106/4/50
f 55/4/50 105/4/50 107/4/50
f 106/4/50 107/4/50 108/4/50
f 106/4/50 59/4/50 57/4/50
f 55/4/50 107/4/50 57/4/50
f 57/4/50 107/4/50 106/4/50
f 79/6/32 96/5/49 95/6/48
f 96/5/49 79/6/32 80/5/33
f 111/3/25 110/3/25 109/3/25
f 110/3/25 111/3/25 112/3/25
f 112/3/25 111/3/25 69/3/25
f 113/3/25 69/3/25 111/3/25
f 112/3/25 69/3/25 71/3/25
f 69/3/25 113/3/25 67/3/25
f 112/3/25 71/3/25 49/3/25
f 67/3/25 113/3/25 65/3/25
f 65/3/25 113/3/25 114/3/25
f 65/3/25 114/3/25 63/3/25
f 112/3/25 49/3/25 115/3/25
f 115/3/25 49/3/25 50/3/25
f 115/3/25 50/3/25 53/3/25
f 115/3/25 53/3/25 116/3/25
f 116/3/25 53/3/25 56/3/25
f 63/3/25 114/3/25 117/3/25
f 63/3/25 117/3/25 61/3/25
f 61/3/25 117/3/25 60/3/25
f 116/3/25 56/3/25 118/3/25
f 60/3/25 117/3/25 119/3/25
f 118/3/25 56/3/25 58/3/25
f 60/3/25 119/3/25 58/3/25
f 118/3/25 58/3/25 119/3/25
f 118/3/25 119/3/25 120/3/25
f 97/4/51 81/6/34 79/6/32
f 81/6/34 97/4/51 98/4/52
f 106/4/54 76/6/29 104/4/53
f 76/6/29 106/4/54 78/6/31
f 104/4/53 75/6/28 103/4/55
f 75/6/28 104/4/53 76/6/29
f 85/6/38 102/4/56 86/6/39
f 102/4/56 85/6/38 105/4/57
f 88/6/41 108/4/59 107/4/58
f 108/4/59 88/6/41 90/6/43
f 108/4/59 78/6/31 106/4/54
f 78/6/31 108/4/59 90/6/43
f 110/3/60 93/5/46 96/5/49
f 93/5/46 110/3/60 112/3/61
f 74/5/27 114/3/62 73/5/26
f 114/3/62 74/5/27 117/3/63
f 85/6/38 107/4/58 105/4/57
f 107/4/58 85/6/38 88/6/41
f 120/3/65 87/5/40 118/3/64
f 87/5/40 120/3/65 89/5/42
f 86/6/39 100/4/66 94/6/47
f 100/4/66 86/6/39 102/4/56
f 109/3/67 96/5/49 80/5/33
f 96/5/49 109/3/67 110/3/60
f 118/3/64 83/5/36 116/3/68
f 83/5/36 118/3/64 87/5/40
f 112/3/61 84/5/37 93/5/46
f 84/5/37 112/3/61 115/3/69
f 95/6/48 97/4/51 79/6/32
f 97/4/51 95/6/48 99/4/70
f 94/6/47 99/4/70 95/6/48
f 99/4/70 94/6/47 100/4/66
f 101/4/71 75/6/28 91/6/44
f 75/6/28 101/4/71 103/4/55
f 92/5/45 111/3/72 82/5/35
f 111/3/72 92/5/45 113/3/73
f 98/4/52 91/6/44 81/6/34
f 91/6/44 98/4/52 101/4/71
f 77/5/30 120/3/65 119/3/74
f 120/3/65 77/5/30 89/5/42
f 116/3/68 84/5/37 115/3/69
f 84/5/37 116/3/68 83/5/36
f 73/5/26 113/3/73 92/5/45
f 113/3/73 73/5/26 114/3/62
f 82/5/35 109/3/67 80/5/33
f 109/3/67 82/5/35 111/3/72
f 74/5/27 119/3/74 117/3/63
f 119/3/74 74/5/27 77/5/30

