# Created by Kenney (www.kenney.nl)

mtllib plant.mtl

g plant

v -0.05899688 0.1266036 -0.1857474 1 1 1
v -0.05899688 0.1701313 -0.2103511 1 1 1
v -0.05899688 0.1718378 -0.1644433 1 1 1
v 0.05899597 0.1701313 -0.2103511 1 1 1
v 0.05899597 0.1266036 -0.1857474 1 1 1
v 0.05899597 0.1718378 -0.1644433 1 1 1
v 0.06319451 0.1441538 -0.1056629 1 1 1
v 0.06319451 0.0989196 -0.126967 1 1 1
v 0.06319451 0.1208185 -0.08201772 1 1 1
v -0.06319541 0.0989196 -0.126967 1 1 1
v -0.06319541 0.1441538 -0.1056629 1 1 1
v -0.06319541 0.1208185 -0.08201772 1 1 1
v -0.03901879 0 -0.07877418 1 1 1
v 0.03901789 0 -0.07877421 1 1 1
v 0.03366566 0 -0.02315596 1 1 1
v -0.03366655 0 -0.02315596 1 1 1
v 0.01999955 0.1266288 -0.2873138 1 1 1
v 0.01999955 0.08310109 -0.2627101 1 1 1
v -0.02000046 0.08310109 -0.2627101 1 1 1
v -0.02000046 0.1266288 -0.2873138 1 1 1
v 0.1871401 0.1266036 0.0362007 1 1 1
v 0.2084477 0.1701313 0.04850221 1 1 1
v 0.1686901 0.1718378 0.02554893 1 1 1
v 0.1494528 0.1701313 0.1506879 1 1 1
v 0.1281452 0.1266036 0.1383864 1 1 1
v 0.1096952 0.1718378 0.1277347 1 1 1
v 0.05669017 0.1441538 0.1019813 1 1 1
v 0.07514021 0.0989196 0.112633 1 1 1
v 0.03621265 0.1208185 0.09015899 1 1 1
v 0.1383335 0.0989196 0.003175184 1 1 1
v 0.1198835 0.1441538 -0.007476568 1 1 1
v 0.09940596 0.1208185 -0.01929887 1 1 1
v 0.08450897 0 1.716614E-05 1 1 1
v 0.04549165 0 0.06759953 1 1 1
v 4.61936E-07 0 0.03515591 1 1 1
v 0.03366569 0 -0.023156 1 1 1
v 0.2356027 0.1266288 0.155396 1 1 1
v 0.2142951 0.08310109 0.1430945 1 1 1
v 0.2342946 0.08310109 0.1084532 1 1 1
v 0.2556022 0.1266288 0.1207547 1 1 1
v -0.1281427 0.1266036 0.1383884 1 1 1
v -0.1494501 0.1701313 0.1506902 1 1 1
v -0.1096929 0.1718378 0.1277364 1 1 1
v -0.2084466 0.1701313 0.04850544 1 1 1
v -0.1871392 0.1266036 0.03620361 1 1 1
v -0.1686893 0.1718378 0.02555156 1 1 1
v -0.1198832 0.1441538 -0.007474698 1 1 1
v -0.1383331 0.0989196 0.003177345 1 1 1
v -0.09940588 0.1208185 -0.01929729 1 1 1
v -0.07513814 0.0989196 0.1126342 1 1 1
v -0.05668825 0.1441538 0.1019822 1 1 1
v -0.03621092 0.1208185 0.09015958 1 1 1
v -0.04549024 0 0.06760025 1 1 1
v -0.08450861 0 1.851469E-05 1 1 1
v -0.03366567 0 -0.02315544 1 1 1
v 4.470348E-07 0 0.03515596 1 1 1
v -0.2556 0.1266288 0.1207587 1 1 1
v -0.2342926 0.08310109 0.1084568 1 1 1
v -0.2142926 0.08310109 0.1430978 1 1 1
v -0.2356 0.1266288 0.1553997 1 1 1

vn -0.984839 -0.06685833 -0.1600689
vn -0.9700269 -0.1195726 -0.2115425
vn -0.9992763 0.01620727 -0.03441229
vn 0.9700269 -0.1195726 -0.2115426
vn 0.984839 -0.06685833 -0.1600689
vn 0.9992763 0.01620727 -0.03441234
vn 0.9993461 0.01540559 -0.03271017
vn 0.9975348 -0.06860009 0.01478237
vn 0.9926574 -0.1087409 0.05297761
vn -0.9975348 -0.0686001 0.01478241
vn -0.9993461 0.0154056 -0.03271013
vn -0.9926574 -0.1087409 0.05297766
vn 0 0.9787756 0.2049351
vn 0 0.9716331 -0.2364933
vn 0 -0.4379783 -0.8989856
vn 0 -0.7247524 -0.6890094
vn 0 -0.7247523 -0.6890094
vn 0.9767022 -0.1929216 0.09398975
vn 0 -1 0
vn 0 0.4379783 0.8989856
vn 0 0.5934272 0.8048876
vn 0.9149425 -0.198593 -0.3513418
vn 0 -0.4920733 -0.8705539
vn 0 0.8705539 -0.4920733
vn 0 0.8178882 0.5753772
vn 0 -0.9986709 -0.05153897
vn 0 -0.9986709 -0.05153898
vn 0 -0.8705539 0.4920733
vn -0.9149426 -0.198593 -0.3513417
vn -0.9767022 -0.1929216 0.0939898
vn 0.6310315 -0.06685833 -0.7728708
vn 0.6682035 -0.1195726 -0.7343069
vn 0.5294272 0.01620727 -0.8482006
vn -0.3017978 -0.1195726 0.9458438
vn -0.3537816 -0.06685833 0.9329355
vn -0.4698228 0.01620727 0.882612
vn -0.4713318 0.01540559 0.8818215
vn -0.5115563 -0.06860009 0.8565071
vn -0.542196 -0.1087409 0.833186
vn 0.4859522 -0.0686001 -0.8712891
vn 0.527988 0.0154056 -0.8491122
vn 0.4504353 -0.1087409 -0.8861622
vn -0.1774806 0.9787756 -0.1024649
vn 0.204811 0.9716331 0.1182435
vn 0.7785512 -0.4379783 0.449481
vn 0.596705 -0.7247524 0.3444957
vn 0.596705 -0.7247523 0.3444957
vn -0.5697365 -0.1929216 0.7988628
vn -0.7785512 0.4379783 -0.449481
vn -0.6970593 0.5934272 -0.4024332
vn -0.1531857 -0.198593 0.9680368
vn 0.7539284 -0.4920733 0.4352655
vn 0.4261517 0.8705539 0.2460302
vn -0.4982957 0.8178882 -0.2876811
vn 0.04463445 -0.9986709 0.02576881
vn 0.04463446 -0.9986709 0.02576881
vn -0.4261517 -0.8705539 -0.2460302
vn 0.7617328 -0.198593 -0.6167042
vn 0.40694 -0.1929216 -0.8928501
vn 0.3537958 -0.06685833 0.9329299
vn 0.3018123 -0.1195726 0.945839
vn 0.4698363 0.01620727 0.8826048
vn -0.6682147 -0.1195726 -0.7342965
vn -0.6310433 -0.06685833 -0.772861
vn -0.5294401 0.01620727 -0.8481925
vn -0.5280009 0.01540559 -0.8491039
vn -0.4859655 -0.06860009 -0.8712815
vn -0.4504487 -0.1087409 -0.8861552
vn 0.5115693 -0.0686001 0.8564991
vn 0.4713452 0.0154056 0.8818141
vn 0.5422087 -0.1087409 0.8331776
vn 0.177479 0.9787756 -0.1024675
vn -0.2048092 0.9716331 0.1182466
vn -0.7785442 -0.4379783 0.4494928
vn -0.5966996 -0.7247524 0.3445047
vn -0.5966996 -0.7247523 0.3445047
vn -0.4069536 -0.1929216 -0.8928437
vn 0.7785442 0.4379783 -0.4494928
vn 0.697053 0.5934272 -0.4024438
vn -0.7617421 -0.198593 -0.6166925
vn -0.7539217 -0.4920733 0.4352769
vn -0.4261479 0.8705539 0.2460366
vn 0.4982913 0.8178882 -0.2876886
vn -0.04463406 -0.9986709 0.02576949
vn -0.04463406 -0.9986709 0.02576949
vn 0.4261479 -0.8705539 -0.2460366
vn 0.1532004 -0.198593 0.9680343
vn 0.5697486 -0.1929216 0.7988539

vt 0.96875 0.4223524
vt 0.96875 0.4730138
vt 0.96875 0.475
vt 0.96875 0.4427789
vt 0.96875 0.3901314
vt 0.96875 0.4156193
vt 0.96875 0.275
vt 0.96875 0.4223817
vt 0.96875 0.3717204

usemtl colormap

f 3/3/3 2/2/2 1/1/1
f 6/3/6 5/1/5 4/2/4
f 9/6/9 8/5/8 7/4/7
f 12/6/12 11/4/11 10/5/10
f 4/2/14 3/3/13 6/3/13
f 3/3/13 4/2/14 2/2/14
f 10/5/16 14/7/15 13/7/15
f 14/7/15 10/5/16 8/5/17
f 9/6/9 14/7/18 8/5/8
f 14/7/18 9/6/9 15/7/18
f 15/7/19 13/7/19 14/7/19
f 13/7/19 15/7/19 16/7/19
f 9/6/21 16/7/20 15/7/20
f 16/7/20 9/6/21 12/6/21
f 4/2/4 18/9/22 17/8/22
f 18/9/22 4/2/4 5/1/5
f 19/9/23 17/8/23 18/9/23
f 17/8/23 19/9/23 20/8/23
f 17/8/24 2/2/14 4/2/14
f 2/2/14 17/8/24 20/8/24
f 7/4/25 12/6/21 9/6/21
f 12/6/21 7/4/25 11/4/25
f 10/5/16 5/1/26 8/5/17
f 5/1/26 10/5/16 1/1/27
f 6/3/6 8/5/8 5/1/5
f 8/5/8 6/3/6 7/4/7
f 1/1/27 18/9/28 5/1/26
f 18/9/28 1/1/27 19/9/28
f 19/9/29 2/2/2 20/8/29
f 2/2/2 19/9/29 1/1/1
f 10/5/10 3/3/3 1/1/1
f 3/3/3 10/5/10 11/4/11
f 6/3/13 11/4/25 7/4/25
f 11/4/25 6/3/13 3/3/13
f 13/7/30 12/6/12 10/5/10
f 12/6/12 13/7/30 16/7/30
f 23/3/33 22/2/32 21/1/31
f 26/3/36 25/1/35 24/2/34
f 29/6/39 28/5/38 27/4/37
f 32/6/42 31/4/41 30/5/40
f 24/2/44 23/3/43 26/3/43
f 23/3/43 24/2/44 22/2/44
f 30/5/46 34/7/45 33/7/45
f 34/7/45 30/5/46 28/5/47
f 29/6/39 34/7/48 28/5/38
f 34/7/48 29/6/39 35/7/48
f 35/7/19 33/7/19 34/7/19
f 33/7/19 35/7/19 36/7/19
f 29/6/50 36/7/49 35/7/49
f 36/7/49 29/6/50 32/6/50
f 24/2/34 38/9/51 37/8/51
f 38/9/51 24/2/34 25/1/35
f 39/9/52 37/8/52 38/9/52
f 37/8/52 39/9/52 40/8/52
f 37/8/53 22/2/44 24/2/44
f 22/2/44 37/8/53 40/8/53
f 27/4/54 32/6/50 29/6/50
f 32/6/50 27/4/54 31/4/54
f 30/5/46 25/1/55 28/5/47
f 25/1/55 30/5/46 21/1/56
f 26/3/36 28/5/38 25/1/35
f 28/5/38 26/3/36 27/4/37
f 21/1/56 38/9/57 25/1/55
f 38/9/57 21/1/56 39/9/57
f 39/9/58 22/2/32 40/8/58
f 22/2/32 39/9/58 21/1/31
f 30/5/40 23/3/33 21/1/31
f 23/3/33 30/5/40 31/4/41
f 26/3/43 31/4/54 27/4/54
f 31/4/54 26/3/43 23/3/43
f 33/7/59 32/6/42 30/5/40
f 32/6/42 33/7/59 36/7/59
f 43/3/62 42/2/61 41/1/60
f 46/3/65 45/1/64 44/2/63
f 49/6/68 48/5/67 47/4/66
f 52/6/71 51/4/70 50/5/69
f 44/2/73 43/3/72 46/3/72
f 43/3/72 44/2/73 42/2/73
f 50/5/75 54/7/74 53/7/74
f 54/7/74 50/5/75 48/5/76
f 49/6/68 54/7/77 48/5/67
f 54/7/77 49/6/68 55/7/77
f 55/7/19 53/7/19 54/7/19
f 53/7/19 55/7/19 56/7/19
f 49/6/79 56/7/78 55/7/78
f 56/7/78 49/6/79 52/6/79
f 44/2/63 58/9/80 57/8/80
f 58/9/80 44/2/63 45/1/64
f 59/9/81 57/8/81 58/9/81
f 57/8/81 59/9/81 60/8/81
f 57/8/82 42/2/73 44/2/73
f 42/2/73 57/8/82 60/8/82
f 47/4/83 52/6/79 49/6/79
f 52/6/79 47/4/83 51/4/83
f 50/5/75 45/1/84 48/5/76
f 45/1/84 50/5/75 41/1/85
f 46/3/65 48/5/67 45/1/64
f 48/5/67 46/3/65 47/4/66
f 41/1/85 58/9/86 45/1/84
f 58/9/86 41/1/85 59/9/86
f 59/9/87 42/2/61 60/8/87
f 42/2/61 59/9/87 41/1/60
f 50/5/69 43/3/62 41/1/60
f 43/3/62 50/5/69 51/4/70
f 46/3/72 51/4/83 47/4/83
f 51/4/83 46/3/72 43/3/72
f 53/7/88 52/6/71 50/5/69
f 52/6/71 53/7/88 56/7/88

g plant




usemtl colormap

f 3/3/3 2/2/2 1/1/1
f 6/3/6 5/1/5 4/2/4
f 9/6/9 8/5/8 7/4/7
f 12/6/12 11/4/11 10/5/10
f 4/2/14 3/3/13 6/3/13
f 3/3/13 4/2/14 2/2/14
f 10/5/16 14/7/15 13/7/15
f 14/7/15 10/5/16 8/5/17
f 9/6/9 14/7/18 8/5/8
f 14/7/18 9/6/9 15/7/18
f 15/7/19 13/7/19 14/7/19
f 13/7/19 15/7/19 16/7/19
f 9/6/21 16/7/20 15/7/20
f 16/7/20 9/6/21 12/6/21
f 4/2/4 18/9/22 17/8/22
f 18/9/22 4/2/4 5/1/5
f 19/9/23 17/8/23 18/9/23
f 17/8/23 19/9/23 20/8/23
f 17/8/24 2/2/14 4/2/14
f 2/2/14 17/8/24 20/8/24
f 7/4/25 12/6/21 9/6/21
f 12/6/21 7/4/25 11/4/25
f 10/5/16 5/1/26 8/5/17
f 5/1/26 10/5/16 1/1/27
f 6/3/6 8/5/8 5/1/5
f 8/5/8 6/3/6 7/4/7
f 1/1/27 18/9/28 5/1/26
f 18/9/28 1/1/27 19/9/28
f 19/9/29 2/2/2 20/8/29
f 2/2/2 19/9/29 1/1/1
f 10/5/10 3/3/3 1/1/1
f 3/3/3 10/5/10 11/4/11
f 6/3/13 11/4/25 7/4/25
f 11/4/25 6/3/13 3/3/13
f 13/7/30 12/6/12 10/5/10
f 12/6/12 13/7/30 16/7/30
f 23/3/33 22/2/32 21/1/31
f 26/3/36 25/1/35 24/2/34
f 29/6/39 28/5/38 27/4/37
f 32/6/42 31/4/41 30/5/40
f 24/2/44 23/3/43 26/3/43
f 23/3/43 24/2/44 22/2/44
f 30/5/46 34/7/45 33/7/45
f 34/7/45 30/5/46 28/5/47
f 29/6/39 34/7/48 28/5/38
f 34/7/48 29/6/39 35/7/48
f 35/7/19 33/7/19 34/7/19
f 33/7/19 35/7/19 36/7/19
f 29/6/50 36/7/49 35/7/49
f 36/7/49 29/6/50 32/6/50
f 24/2/34 38/9/51 37/8/51
f 38/9/51 24/2/34 25/1/35
f 39/9/52 37/8/52 38/9/52
f 37/8/52 39/9/52 40/8/52
f 37/8/53 22/2/44 24/2/44
f 22/2/44 37/8/53 40/8/53
f 27/4/54 32/6/50 29/6/50
f 32/6/50 27/4/54 31/4/54
f 30/5/46 25/1/55 28/5/47
f 25/1/55 30/5/46 21/1/56
f 26/3/36 28/5/38 25/1/35
f 28/5/38 26/3/36 27/4/37
f 21/1/56 38/9/57 25/1/55
f 38/9/57 21/1/56 39/9/57
f 39/9/58 22/2/32 40/8/58
f 22/2/32 39/9/58 21/1/31
f 30/5/40 23/3/33 21/1/31
f 23/3/33 30/5/40 31/4/41
f 26/3/43 31/4/54 27/4/54
f 31/4/54 26/3/43 23/3/43
f 33/7/59 32/6/42 30/5/40
f 32/6/42 33/7/59 36/7/59
f 43/3/62 42/2/61 41/1/60
f 46/3/65 45/1/64 44/2/63
f 49/6/68 48/5/67 47/4/66
f 52/6/71 51/4/70 50/5/69
f 44/2/73 43/3/72 46/3/72
f 43/3/72 44/2/73 42/2/73
f 50/5/75 54/7/74 53/7/74
f 54/7/74 50/5/75 48/5/76
f 49/6/68 54/7/77 48/5/67
f 54/7/77 49/6/68 55/7/77
f 55/7/19 53/7/19 54/7/19
f 53/7/19 55/7/19 56/7/19
f 49/6/79 56/7/78 55/7/78
f 56/7/78 49/6/79 52/6/79
f 44/2/63 58/9/80 57/8/80
f 58/9/80 44/2/63 45/1/64
f 59/9/81 57/8/81 58/9/81
f 57/8/81 59/9/81 60/8/81
f 57/8/82 42/2/73 44/2/73
f 42/2/73 57/8/82 60/8/82
f 47/4/83 52/6/79 49/6/79
f 52/6/79 47/4/83 51/4/83
f 50/5/75 45/1/84 48/5/76
f 45/1/84 50/5/75 41/1/85
f 46/3/65 48/5/67 45/1/64
f 48/5/67 46/3/65 47/4/66
f 41/1/85 58/9/86 45/1/84
f 58/9/86 41/1/85 59/9/86
f 59/9/87 42/2/61 60/8/87
f 42/2/61 59/9/87 41/1/60
f 50/5/69 43/3/62 41/1/60
f 43/3/62 50/5/69 51/4/70
f 46/3/72 51/4/83 47/4/83
f 51/4/83 46/3/72 43/3/72
f 53/7/88 52/6/71 50/5/69
f 52/6/71 53/7/88 56/7/88

